<?xml version="1.0" encoding="UTF-8"?>
<svg width="186px" height="120px" viewBox="0 0 186 120" version="1.1" xmlns="http://www.w3.org/2000/svg" xmlns:xlink="http://www.w3.org/1999/xlink">
    <title>1B0913AD-E387-450E-8C9B-2E0F751E68F5</title>
    <defs>
        <rect id="path-1" x="0" y="0" width="186" height="120"></rect>
        <linearGradient x1="50%" y1="0%" x2="50%" y2="100%" id="linearGradient-3">
            <stop stop-color="#FFFFFF" stop-opacity="0.501899346" offset="0%"></stop>
            <stop stop-color="#FFFFFF" stop-opacity="0" offset="100%"></stop>
        </linearGradient>
        <rect id="path-4" x="0" y="0" width="186" height="120"></rect>
    </defs>
    <g id="----Balances" stroke="none" stroke-width="1" fill="none" fill-rule="evenodd">
        <g id="wallet" transform="translate(-312.000000, -182.000000)">
            <g id="Group-10" transform="translate(56.000000, 38.000000)">
                <g id="Group-8" transform="translate(224.000000, 0.000000)">
                    <g id="balance-bg-dfi" transform="translate(32.000000, 144.000000)" style="mix-blend-mode: multiply;">
                        <mask id="mask-2" fill="white">
                            <use xlink:href="#path-1"></use>
                        </mask>
                        <use id="Rectangle" fill-opacity="0" fill="#FFFFFF" xlink:href="#path-1"></use>
                        <g id="Group-67" mask="url(#mask-2)" stroke="#000000" stroke-opacity="0.1">
                            <g transform="translate(-56.999907, -36.000000)">
                                <path d="M126.189523,17.9211554 C131.356382,18.9564408 136.585594,20.2991031 141.826603,21.9575864 C191.370144,37.6304233 223.542523,75.6944746 213.689089,106.975971 C209.376632,120.662681 197.736875,130.782469 181.855439,136.526361" id="Stroke-5"></path>
                                <path d="M130.697127,27.6214254 C134.209109,28.4557337 137.748053,29.4319083 141.293739,30.5533268 C188.808285,45.5860768 219.971222,81.135381 210.892986,109.954485 C206.974869,122.394799 196.197939,131.546858 181.395039,136.723285" id="Stroke-7"></path>
                                <line x1="129.836321" y1="94.3843325" x2="153.545566" y2="150.9349" id="Stroke-9"></line>
                                <line x1="93.8199746" y1="8.48215564" x2="114.101498" y2="56.8568394" id="Stroke-11"></line>
                                <line x1="126.189523" y1="17.9236887" x2="181.393691" y2="136.719739" id="Stroke-13"></line>
                                <polyline id="Stroke-17" points="94.8698615 0.0368948092 91.5213457 26.9779609 103.317828 51.0445476 120.726066 60.4262942 94.8698615 0.0368948092"></polyline>
                                <polygon id="Stroke-19" stroke-linejoin="bevel" points="132.074619 86.9328106 122.782361 97.5930418 132.074619 126.199347 165.249699 164.417087"></polygon>
                                <line x1="132.074619" y1="86.9328106" x2="129.836658" y2="94.3841636" id="Stroke-21"></line>
                                <line x1="123.919205" y1="101.09207" x2="123.919205" y2="101.09207" id="Stroke-23"></line>
                                <line x1="123.919205" y1="101.09207" x2="129.835984" y2="94.3838258" id="Stroke-25"></line>
                                <polyline id="Stroke-27" points="35.2522924 28.7438572 66.6646402 38.2725367 69.9288955 44.9216701"></polyline>
                                <line x1="66.6639662" y1="38.2718611" x2="68.5598294" y2="31.2528622" id="Stroke-29"></line>
                                <path d="M16.9305013,99.0287615 C11.9759786,91.5892307 8.34940284,83.9149451 6.23614725,76.2288373 L60.7662304,86.9329795 L98.6767549,84.6040094 L107.962272,74.3203992 L89.8361339,63.9219448 L52.12952,62.8663928 L5.83506684,74.6767535 C4.07065009,67.5682438 3.60553164,60.461423 4.59812138,53.530246 L25.9581809,48.7709729 L11.5563609,34.3394653" id="Stroke-31"></path>
                                <path d="M10.2135841,41.2603401 L11.5566979,34.3392964 C15.0231786,28.7153151 19.5968434,23.7179095 25.0940043,19.3943683 L52.9724629,44.921839 L74.8802163,44.921839 L68.560672,31.2520178 L25.9180728,18.7559704 C31.7421648,14.319274 38.5605317,10.6189308 46.1591517,7.70898488 L66.4541573,14.0997192 L67.9691627,1.89247087 C91.1239727,-1.96662742 118.400811,-0.0328560702 146.00458,8.70035936 C210.280243,29.034514 251.989235,78.5238607 239.164773,119.23777 C228.564791,152.890458 184.022958,170.012357 132.59535,163.457801" id="Stroke-35"></path>
                                <polyline id="Stroke-39" points="18.5606067 78.647487 50.9352104 70.1135598 88.0098699 70.8178241 103.481799 79.2808182"></polyline>
                                <line x1="88.0097013" y1="70.8183308" x2="89.8347857" y2="63.9226204" id="Stroke-41"></line>
                                <path d="M97.4915455,155.467863 C85.91077,151.662809 75.0866547,146.910291 65.2079432,141.436621 L102.633127,122.766016 L97.5252497,105.360385 L74.4058291,106.882069 L63.6002511,140.534757 L63.6002511,140.536446 C53.5749262,134.84322 44.5556726,128.405197 36.7497716,121.467265" id="Stroke-47"></path>
                                <polyline id="Stroke-49" points="72.1631493 113.865939 95.2067353 112.212522 99.1315936 124.512659"></polyline>
                                <line x1="97.5244071" y1="105.35954" x2="95.2072409" y2="112.213029" id="Stroke-51"></line>
                                <path d="M129.719536,170.4616 L132.594507,163.456112 L116.588366,145.270217 L97.4915455,155.467694 L95.3833455,162.927491 C96.0709119,163.153802 96.7601636,163.376734 97.4544708,163.596289 C108.600462,167.120989 118.929125,169.086849 129.719536,170.4616 Z" id="Stroke-53"></path>
                                <polyline id="Stroke-55" points="95.3825029 162.92766 114.523138 151.851964 129.718693 170.461769"></polyline>
                                <line x1="114.52297" y1="151.852639" x2="116.58904" y2="145.271061" id="Stroke-57"></line>
                                <path d="M237.487482,123.781542 L224.098474,152.842156 L224.098474,152.843845 C210.181995,182.098681 168.954974,196.714277 122.190347,190.644431 L116.598814,183.086678" id="Stroke-59"></path>
                                <path d="M11.8740233,127.647395 L13.0048004,120.689196 C18.1531224,128.292549 24.5417603,135.860435 32.2617156,142.722367 L30.777044,149.753189 C38.2779217,156.604988 46.9752997,162.950123 56.6618971,168.545393 C66.0856015,173.865375 77.7978234,179.264735 88.8646093,182.951567 L96.5845645,178.48616" id="Stroke-63"></path>
                            </g>
                        </g>
                        <mask id="mask-5" fill="white">
                            <use xlink:href="#path-4"></use>
                        </mask>
                        <use id="Rectangle" fill="url(#linearGradient-3)" xlink:href="#path-4"></use>
                    </g>
                </g>
            </g>
        </g>
    </g>
</svg>