<?xml version="1.0" encoding="UTF-8"?>
<svg width="186px" height="64px" viewBox="0 0 186 64" version="1.1" xmlns="http://www.w3.org/2000/svg" xmlns:xlink="http://www.w3.org/1999/xlink">
    <title>4DA807E8-8F17-4559-9EA4-FC1B2DCFF273</title>
    <defs>
        <rect id="path-1" x="0" y="0" width="186" height="64"></rect>
        <linearGradient x1="50%" y1="0%" x2="50%" y2="100%" id="linearGradient-3">
            <stop stop-color="#FFFFFF" stop-opacity="0.5" offset="0%"></stop>
            <stop stop-color="#FFFFFF" stop-opacity="0" offset="100%"></stop>
        </linearGradient>
        <rect id="path-4" x="0" y="0" width="186" height="64"></rect>
    </defs>
    <g id="----Balances" stroke="none" stroke-width="1" fill="none" fill-rule="evenodd">
        <g id="wallet" transform="translate(-312.000000, -318.000000)">
            <g id="Group-10" transform="translate(56.000000, 38.000000)">
                <g id="Group-8" transform="translate(224.000000, 0.000000)">
                    <g id="balance-bg-btc" transform="translate(32.000000, 280.000000)" style="mix-blend-mode: multiply;">
                        <mask id="mask-2" fill="white">
                            <use xlink:href="#path-1"></use>
                        </mask>
                        <use id="Rectangle" fill-opacity="0" fill="#FFFFFF" xlink:href="#path-1"></use>
                        <g id="Group-45" mask="url(#mask-2)" stroke="#000000" stroke-opacity="0.1">
                            <g transform="translate(-72.500497, -41.500594)">
                                <path d="M256.189062,64.6074795 C256.811248,101.461915 199.965438,132.304025 129.222012,133.496242 C58.4785874,134.689375 0.626300262,105.778786 0.00502957563,68.925265 C-0.615326132,32.0699141 56.2295692,1.22780473 126.972994,0.0355871954 C197.716419,-1.15663034 255.567792,27.7539586 256.189062,64.6074795 Z" id="Stroke-3"></path>
                                <path d="M231.019182,61.4882248 C231.50961,90.6010241 185.94366,114.976063 129.246076,115.9313 C72.5475777,116.886538 26.1855959,94.0614744 25.6951672,64.9486751 C25.2047385,35.8367908 70.7697737,11.4617524 127.469187,10.5065144 C184.167686,9.55036148 230.528753,32.3763406 231.019182,61.4882248 Z" id="Stroke-5"></path>
                                <path d="M26.5361243,71.2723689 C27.5206416,42.7936501 72.3372241,19.1981737 127.882849,18.2621503 C182.1228,17.3480863 226.865269,38.3733869 230.749354,65.8328193" id="Stroke-7"></path>
                                <path d="M256.14798,67.0191809 L253.721456,92.4363803 C250.253685,129.017238 196.234245,158.84372 129.59267,159.967314 C63.1286017,161.088164 8.24999611,133.249015 3.29721522,96.9490563 L0.0691695979,70.5134854" id="Stroke-9"></path>
                                <path d="M110.737883,19.2910441 L119.889502,27.3108343 C119.889502,27.3108343 140.14622,22.2125717 151.037214,25.9319611 C161.928208,29.6495204 167.534284,35.5804138 160.526461,41.8333797 C160.526461,41.8333797 178.803165,40.258701 187.220971,45.3880728 C196.169465,50.8413471 196.752306,57.9882475 192.116108,62.5796117 C187.47991,67.169146 172.312304,73.244606 172.312304,73.244606 L185.3169,84.6397534 L172.382758,88.6931101 L159.674615,77.1726105 L149.860551,80.2698141 L162.195382,91.8854715 L148.970277,96.029411 L136.870596,84.3670897 L111.662012,92.3200865 L105.325783,82.9104433 L116.025546,79.6787377 C117.702702,79.1425601 118.200451,77.0088293 116.933205,75.7855024 L89.7592462,49.5585467 C87.2540339,47.1402574 83.646272,46.245408 80.3001941,47.2134557 L71.1229555,50.0974693 L64.5204677,44.3459118 L64.5204677,44.3449968 L87.8871993,37.1560075 L78.4867059,28.0949712 L90.8718605,24.7141241 L100.094848,33.400019 L108.529124,30.8051388 L99.2786868,22.419357 L110.737883,19.2910441" id="Stroke-11" stroke-linejoin="round"></path>
                                <path d="M118.845786,51.0597526 L106.666501,39.5895769 L123.330097,34.7712979 C123.330097,34.7712979 132.048931,32.5241097 138.745662,35.0759859 C145.295081,37.5720484 141.928874,43.665808 135.459973,45.6064783 L118.845786,51.0597526 Z" id="Stroke-13"></path>
                                <path d="M114.2342,46.7171712 L123.330006,44.0866068 C123.330006,44.0866068 132.04884,41.8394185 138.745571,44.3912948" id="Stroke-15"></path>
                                <path d="M128.108117,59.7833446 L144.516434,55.1489764 C153.734847,52.8844036 164.084173,52.560501 167.804478,55.7958665 C171.523867,59.029402 166.83826,63.4267907 162.640337,64.7699797 L140.815344,71.7503539 L128.108117,59.7833446 Z" id="Stroke-17"></path>
                                <path d="M135.844355,67.0683153 L145.576071,64.3197186 C152.488737,62.6215177 160.039143,62.0148867 164.951665,63.1823998" id="Stroke-19"></path>
                                <path d="M64.5206507,44.3457288 L64.5206507,52.9382958 L71.1231385,59.5398687 L80.5602311,56.5881467 C83.9319284,55.534091 87.6092287,56.3996611 90.157445,58.8472297 L112.888266,80.6822866" id="Stroke-21"></path>
                                <polyline id="Stroke-25" points="105.325691 82.9107178 104.786768 92.0751466 111.045224 102.650473 137.054415 93.9078494 149.236444 106.441231 162.46704 101.670531 162.195291 91.885746"></polyline>
                                <line x1="111.661737" y1="92.3204525" x2="111.045041" y2="102.650564" id="Stroke-27"></line>
                                <line x1="136.870138" y1="84.3671812" x2="137.054049" y2="93.9076664" id="Stroke-29"></line>
                                <line x1="148.970368" y1="96.0295025" x2="149.236627" y2="106.441048" id="Stroke-31"></line>
                                <polyline id="Stroke-33" stroke-linejoin="round" points="157.266848 87.2443324 159.507632 86.6029322 172.170025 98.5434071 184.935811 94.253071 185.316442 84.6393875"></polyline>
                                <line x1="172.382758" y1="88.6927441" x2="172.170482" y2="98.5434071" id="Stroke-35" stroke-linejoin="round"></line>
                                <line x1="159.67489" y1="77.1724275" x2="159.507449" y2="86.6031152" id="Stroke-37" stroke-linejoin="round"></line>
                                <path d="M194.687199,54.0066252 C195.861117,59.9915023 196.649828,68.1970333 191.847104,72.5596528 C187.952039,76.0997062 179.677884,79.6983183 179.677884,79.6983183" id="Stroke-39" stroke-linejoin="round"></path>
                            </g>
                        </g>
                        <mask id="mask-5" fill="white">
                            <use xlink:href="#path-4"></use>
                        </mask>
                        <use id="Rectangle" fill="url(#linearGradient-3)" xlink:href="#path-4"></use>
                    </g>
                </g>
            </g>
        </g>
    </g>
</svg>