<svg width="24" height="25" viewBox="0 0 24 25" fill="none" xmlns="http://www.w3.org/2000/svg">
<g clip-path="url(#clip0)">
<path d="M12 24.0068C18.6274 24.0068 24 18.6343 24 12.0068C24 5.37942 18.6274 0.00683594 12 0.00683594C5.37258 0.00683594 0 5.37942 0 12.0068C0 18.6343 5.37258 24.0068 12 24.0068Z" fill="white"/>
<path d="M12 24.0068C18.6274 24.0068 24 18.6343 24 12.0068C24 5.37942 18.6274 0.00683594 12 0.00683594C5.37258 0.00683594 0 5.37942 0 12.0068C0 18.6343 5.37258 24.0068 12 24.0068Z" fill="#0AC18E" fill-opacity="0.2"/>
<path d="M17.629 12.5054L17.6223 12.493L17.6212 12.491C17.6171 12.4785 17.614 12.4654 17.6095 12.4519L17.6089 12.4509L17.6084 12.4498L17.6078 12.4488L17.6072 12.4478L17.6066 12.4467L17.6061 12.4457L17.6049 12.4436C17.4641 11.9725 17.1849 11.5547 16.8035 11.2444L16.803 11.2434C16.7917 11.2348 16.7799 11.2251 16.7685 11.2166L16.753 11.205L16.7417 11.1964L16.7368 11.1923L16.7261 11.1848L16.7213 11.1807L16.7105 11.1732L16.7057 11.1691L16.6944 11.1606L16.6885 11.157L16.6772 11.1484L16.6713 11.1448L16.6591 11.1368L16.6532 11.1332L16.646 11.1225L16.6396 11.1179L16.6274 11.1099L16.621 11.1054L16.6088 11.0973L16.6024 11.0928L16.5902 11.0847L16.5837 11.0802L16.5708 11.0711L16.5644 11.0665L16.5505 11.058L16.5441 11.0535L16.5302 11.0449L16.5238 11.0404L16.5099 11.0318L16.5035 11.0273L16.4896 11.0188L16.4821 11.0148L16.4682 11.0063L16.4607 11.0023L16.4458 10.9944L16.4383 10.9904L16.4228 10.9814L16.4153 10.9775L16.3998 10.9685L16.3923 10.9646L16.3768 10.9556L16.3688 10.9506L16.3533 10.9416L16.3452 10.9367L16.3287 10.9282L16.3207 10.9232L16.3042 10.9148L16.293 10.9087L16.2924 10.9076C16.2844 10.9027 16.2759 10.8992 16.2678 10.8942C15.9247 10.7178 15.5543 10.6008 15.1721 10.548C15.2793 10.4328 15.3775 10.3095 15.4657 10.1793L15.4798 10.1583L15.4808 10.1578L15.4873 10.1476L15.4959 10.1337L15.5004 10.1272L15.5089 10.1134L15.5134 10.1069L15.522 10.093L15.5265 10.0866L15.5351 10.0727L15.5396 10.0663L15.5481 10.0524L15.5526 10.046L15.5601 10.0326L15.5647 10.0262L15.5721 10.0128L15.5757 10.0069L15.5832 9.99349L15.5867 9.98758L15.5942 9.97422L15.5978 9.96831L15.6042 9.95548L15.6078 9.94957L15.6142 9.93678L15.6178 9.93087L15.6242 9.91809L15.6278 9.91218L15.6348 9.90039L15.6384 9.89448L15.6455 9.88273L15.6491 9.87682L15.6552 9.86564L15.6588 9.85973L15.6649 9.84852L15.6674 9.84322L15.6735 9.83201L15.6759 9.82667L15.6821 9.8155L15.6845 9.81016L15.6906 9.79898L15.6931 9.79364L15.698 9.7829L15.7005 9.77756L15.7054 9.76681L15.7079 9.76148L15.7128 9.75073L15.7153 9.74543L15.7207 9.73321L15.7281 9.71727C15.7335 9.70506 15.7379 9.69335 15.7433 9.6811L15.7444 9.68052C15.9088 9.27522 15.9473 8.82981 15.855 8.40229L15.8544 8.40125L15.8533 8.39917L15.8527 8.39813L15.8522 8.3971L15.8516 8.39606L15.851 8.39502L15.8504 8.39398L15.8499 8.39298C15.8474 8.38094 15.8449 8.36894 15.8415 8.35744V8.35483L15.8409 8.35379L15.8403 8.35275L15.8397 8.35175L15.8403 8.35275L15.8353 8.34347C15.8317 8.32678 15.8281 8.30994 15.8228 8.29293C15.8192 8.27623 15.8139 8.25904 15.8092 8.24278L15.8031 8.23142L15.8019 8.22935C15.7984 8.21792 15.795 8.20642 15.7915 8.19499L15.7908 8.19395L15.7903 8.19292L15.7897 8.19188L15.7892 8.19084L15.7886 8.18984L15.788 8.1888L15.7874 8.18776C15.6624 7.76861 15.414 7.39685 15.0746 7.12087L15.074 7.11979C15.0643 7.11166 15.0536 7.1041 15.0439 7.09604L15.0305 7.08591L15.0197 7.07803L15.0149 7.07398L15.0057 7.06681L15.0009 7.06273L14.9918 7.05557L14.9869 7.05152L14.9767 7.045L14.9719 7.04095L14.9611 7.03339L14.9563 7.02935L14.9455 7.02179L14.9407 7.01774L14.9299 7.01018L14.924 7.0066L14.9133 6.99904L14.9074 6.99546L14.8966 6.9879L14.8907 6.98432L14.879 6.97733L14.873 6.97375L14.8613 6.96677L14.8554 6.96318L14.8436 6.9562L14.8377 6.95262L14.8259 6.94545L14.82 6.94187L14.8078 6.93381L14.8019 6.93023L14.7896 6.92221L14.7837 6.91862L14.7703 6.91114L14.7644 6.90755L14.751 6.90007L14.7446 6.89552L14.7312 6.88807L14.7248 6.88352L14.7115 6.87607L14.705 6.87152L14.6911 6.86299L14.6837 6.85902L14.6698 6.85049L14.6623 6.84655L14.6473 6.83856L14.6399 6.83462L14.6249 6.82667L14.6142 6.82173L14.6136 6.82069L14.5912 6.8088C13.9359 6.46821 13.1033 6.36566 12.2657 6.58055L12.0478 6.6365L11.4956 4.49219L10.2185 4.81959L10.7666 6.95742L9.74492 7.21948L9.19514 5.08864L7.91806 5.41597L8.46737 7.55362L5.8335 8.23149L6.18393 9.59358L7.2452 9.32102C7.41388 9.27754 7.59292 9.30284 7.74294 9.39137C7.89296 9.47989 8.00167 9.62439 8.04515 9.79307L8.04544 9.79429L9.51868 15.526C9.57875 15.7604 9.43772 15.9992 9.20345 16.0597L8.27354 16.2989L8.32817 17.9189L10.9587 17.2428L11.5152 19.3766L12.7917 19.0481L12.2419 16.9094L13.2635 16.6473L13.8134 18.7858L15.0899 18.4574L14.5383 16.3104C14.7546 16.2539 14.9406 16.2057 15.0694 16.1725C16.0134 15.9296 16.7767 15.3761 17.2386 14.6861L17.2542 14.6631L17.2553 14.6625L17.2628 14.6517L17.2729 14.6357L17.2778 14.6276L17.2879 14.6116L17.2929 14.6035L17.3018 14.588L17.3068 14.58L17.3158 14.5645L17.3198 14.557L17.3287 14.5415L17.3327 14.534L17.3416 14.5185L17.3456 14.511L17.3535 14.4961L17.3575 14.4886L17.3655 14.4737L17.3694 14.4662L17.378 14.4523L17.3819 14.4448L17.3904 14.4309L17.3944 14.4235L17.4019 14.4101L17.4058 14.4026L17.4133 14.3893L17.4173 14.3818L17.4247 14.3685L17.4278 14.3616L17.4352 14.3482L17.4383 14.3413L17.4447 14.3285L17.4483 14.3226L17.4547 14.3098L17.4583 14.3039L17.4647 14.2911L17.4683 14.2852L17.4747 14.2724L17.4783 14.2665L17.4847 14.2537L17.4883 14.2478L17.4948 14.2349L17.4984 14.229L17.5038 14.2168L17.5073 14.2109L17.5128 14.1988L17.5152 14.1934L17.5211 14.1796L17.5291 14.162C17.535 14.1482 17.5414 14.1354 17.5462 14.1221L17.5467 14.1205C17.7315 13.6646 17.7749 13.1636 17.6714 12.6827L17.6709 12.6817L17.6703 12.6806L17.6697 12.6796L17.6691 12.6786L17.6686 12.6775L17.668 12.6765L17.6674 12.6754L17.6669 12.6744L17.6577 12.6353V12.6327L17.6572 12.6316L17.6566 12.6306L17.656 12.6295L17.6554 12.6285L17.6549 12.6275L17.6543 12.6264L17.6537 12.6254L17.6532 12.6244L17.6526 12.6234L17.652 12.6223L17.6515 12.6213L17.6509 12.6202L17.6503 12.6192L17.6481 12.6151C17.6434 12.5963 17.6396 12.577 17.6338 12.5588C17.6329 12.5474 17.6301 12.5275 17.629 12.5054ZM10.1251 8.67123C10.343 8.61532 11.2439 8.38904 11.541 8.3117C12.0133 8.1908 12.4785 8.23773 12.8421 8.41271L12.8543 8.41812L12.8596 8.42059L12.8671 8.42453L12.8707 8.42654L12.8781 8.43048L12.8817 8.43249L12.8892 8.43643L12.8928 8.43843L12.9002 8.44237L12.9038 8.44434L12.9113 8.44832L12.9149 8.45029L12.9224 8.45426L12.926 8.45624L12.9334 8.46021L12.937 8.46218L12.9444 8.46616L12.948 8.46813L12.9555 8.4721L12.9591 8.47407L12.9655 8.47862L12.9691 8.48059L12.9755 8.48514L12.9791 8.48711L12.9855 8.49166L12.9891 8.49363L12.995 8.49721L12.9986 8.49918L13.0045 8.50277L13.0081 8.50474L13.014 8.50832L13.0176 8.51029L13.0235 8.51387L13.027 8.51584L13.033 8.51942L13.0357 8.522L13.0416 8.52558L13.0437 8.52705L13.0497 8.53064L13.0518 8.53214L13.0577 8.53572L13.0598 8.53719L13.0657 8.54077L13.0678 8.54228L13.0727 8.54632L13.0748 8.54783L13.0807 8.55141L13.0888 8.55643C13.0947 8.56001 13.1001 8.56506 13.106 8.56861C13.292 8.70901 13.4287 8.90481 13.4964 9.12784L13.4981 9.13089C13.4998 9.13662 13.5021 9.14335 13.5039 9.14915L13.5044 9.15023L13.5078 9.15632C13.5102 9.1657 13.513 9.17351 13.5155 9.18286C13.5181 9.19244 13.5198 9.20223 13.5206 9.21213L13.5239 9.21822L13.5245 9.21926C13.5254 9.22565 13.527 9.23193 13.5292 9.23799L13.5309 9.24104C13.5787 9.46909 13.5533 9.70643 13.4582 9.91916L13.4498 9.93832L13.4454 9.94746L13.4418 9.95337L13.4408 9.95656L13.4383 9.96189L13.4374 9.96508L13.4338 9.97099L13.4328 9.97407L13.4292 9.97998L13.4283 9.98317L13.4247 9.98908L13.4237 9.99213L13.4201 9.99804L13.4192 10.0012L13.4156 10.0071L13.4146 10.0104L13.411 10.0163L13.409 10.0199L13.4054 10.0258L13.4034 10.0293L13.3998 10.0353L13.3979 10.0388L13.3943 10.0447L13.3923 10.0483L13.3878 10.0547L13.3858 10.0583L13.3812 10.0648L13.3793 10.0684L13.3747 10.0748L13.3728 10.0783L13.3682 10.0848L13.3662 10.0883L13.3617 10.0948L13.3597 10.0984L13.3552 10.1048L13.3532 10.1084L13.3486 10.1148L13.3467 10.1184L13.3421 10.1248L13.3402 10.1284L13.3346 10.1354L13.3326 10.139L13.327 10.1459L13.325 10.1495L13.3195 10.1565L13.3175 10.1601L13.3119 10.1671L13.3078 10.1719L13.3003 10.1827C13.0654 10.5118 12.6806 10.7776 12.2083 10.8985C11.9107 10.9747 11.0121 11.2103 10.7944 11.2663L10.1251 8.67123ZM15.1171 13.0655L15.1205 13.0716L15.121 13.0727C15.1223 13.0798 15.1241 13.0857 15.1253 13.093L15.1259 13.0941L15.1265 13.0951L15.1271 13.0962L15.1277 13.0972C15.178 13.3486 15.1418 13.6096 15.025 13.8378L15.0135 13.8586L15.008 13.8682L15.0041 13.8757L15.0021 13.8793L14.9985 13.8852L14.9966 13.8888L14.993 13.8947L14.991 13.8983L14.9865 13.9047L14.9845 13.9082L14.9799 13.9147L14.978 13.9182L14.9734 13.9247L14.9714 13.9283L14.9669 13.9347L14.9649 13.9383L14.9604 13.9447L14.9584 13.9483L14.9539 13.9547L14.9519 13.9583L14.9473 13.9647L14.9454 13.9683L14.9408 13.9747L14.9388 13.9783L14.9343 13.9847L14.9323 13.9883L14.9267 13.9953L14.9248 13.9989L14.9192 14.0059L14.9172 14.0094L14.9122 14.0175L14.9102 14.0211L14.9052 14.0291L14.9032 14.0327L14.8982 14.0407L14.8951 14.045L14.8902 14.0531L14.8871 14.0574L14.881 14.0659L14.878 14.0702L14.8719 14.0788L14.8688 14.0831L14.8627 14.0917L14.8597 14.0959L14.8536 14.1045L14.8505 14.1088L14.8445 14.1174L14.8394 14.1228L14.8297 14.1346C14.5445 14.4989 14.0844 14.7985 13.5255 14.9419C13.1732 15.0329 12.1084 15.3114 11.8493 15.3775L11.1244 12.557C11.3829 12.49 12.4507 12.2218 12.803 12.1307C13.3618 11.9875 13.9104 12.028 14.3345 12.209L14.3483 12.215L14.3552 12.218L14.3654 12.2219L14.3701 12.2233L14.3793 12.2277L14.384 12.2291L14.3932 12.2336L14.3979 12.235L14.407 12.2394L14.4106 12.2414L14.4198 12.2458L14.4233 12.2478L14.4325 12.2523L14.4361 12.2543L14.4452 12.2587L14.4488 12.2607L14.4563 12.2646L14.4598 12.2666L14.4673 12.2706L14.4709 12.2726L14.4784 12.2765L14.4819 12.2785L14.4894 12.2825L14.493 12.2845L14.5004 12.2884L14.504 12.2904L14.5115 12.2944L14.5151 12.2963L14.5226 12.3003L14.5262 12.3023L14.5336 12.3063L14.5372 12.3082L14.5446 12.3122L14.5482 12.3142L14.5546 12.3187L14.5582 12.3207L14.5647 12.3253L14.5682 12.3272L14.5747 12.3318L14.5783 12.3337L14.5847 12.3383L14.5883 12.3403L14.5947 12.3448L14.5983 12.3468L14.6042 12.3504L14.6078 12.3523L14.6142 12.3569L14.6228 12.363C14.6292 12.3675 14.6367 12.3715 14.6432 12.376C14.8567 12.52 15.0152 12.7321 15.0926 12.9778L15.0948 12.9819C15.0971 12.9886 15.0989 12.9944 15.1012 13.0011L15.1018 13.0021L15.1051 13.0082C15.1075 13.0176 15.1099 13.027 15.1128 13.0374C15.1181 13.0397 15.1189 13.0512 15.1173 13.0655L15.1171 13.0655Z" fill="#0AC18E"/>
</g>
<defs>
<clipPath id="clip0">
<rect width="24" height="24" fill="white" transform="translate(0 0.00683594)"/>
</clipPath>
</defs>
</svg>
