<svg width="33" height="32" viewBox="0 0 33 32" fill="none" xmlns="http://www.w3.org/2000/svg">
<g clip-path="url(#clip0_1388_11302)">
<path fill-rule="evenodd" clip-rule="evenodd" d="M16.5 0C7.663 0 0.5 7.163 0.5 16C0.5 24.837 7.663 32 16.5 32C25.338 32 32.5 24.837 32.5 16C32.5 7.163 25.338 0 16.5 0Z" fill="#141029"/>
<path d="M8.39916 16.986L7.62605 13.3894H7.60364L6.83053 16.986H8.39916ZM8.61204 12L10.7297 20H9.04902L8.67927 18.3081H6.55042L6.18067 20H4.5L6.61765 12H8.61204Z" fill="white"/>
<path d="M14.6251 16.986L13.852 13.3894H13.8296L13.0565 16.986H14.6251ZM14.838 12L16.9556 20H15.2749L14.9052 18.3081H12.7763L12.4066 20H10.7259L12.8436 12H14.838Z" fill="white"/>
<path d="M19.1255 15.619V13.1877H19.7978C20.2012 13.1877 20.4887 13.2923 20.6605 13.5014C20.8323 13.7106 20.9182 14.0168 20.9182 14.4202C20.9182 14.831 20.8174 15.1335 20.6157 15.3277C20.4215 15.5219 20.1638 15.619 19.8426 15.619H19.1255ZM17.5121 12V20H19.1255V16.8067H19.9883C20.3692 16.8067 20.7166 16.7582 21.0303 16.6611C21.344 16.564 21.6092 16.4183 21.8258 16.2241C22.0499 16.0299 22.2217 15.7796 22.3412 15.4734C22.4682 15.1671 22.5317 14.8086 22.5317 14.3978C22.5317 14.099 22.4943 13.8077 22.4196 13.5238C22.3449 13.2325 22.2217 12.9748 22.0499 12.7507C21.8781 12.5266 21.6503 12.3473 21.3664 12.2129C21.09 12.071 20.7464 12 20.3356 12H17.5121Z" fill="white"/>
<path d="M23.3222 20H27.7928V18.6779H24.9357V12H23.3222V20Z" fill="white"/>
</g>
<defs>
<clipPath id="clip0_1388_11302">
<rect width="32" height="32" fill="white" transform="translate(0.5)"/>
</clipPath>
</defs>
</svg>
