<svg width="33" height="32" viewBox="0 0 33 32" fill="none" xmlns="http://www.w3.org/2000/svg">
<g clip-path="url(#clip0_1388_11299)">
<path fill-rule="evenodd" clip-rule="evenodd" d="M16.5 0C7.663 0 0.5 7.163 0.5 16C0.5 24.837 7.663 32 16.5 32C25.338 32 32.5 24.837 32.5 16C32.5 7.163 25.338 0 16.5 0Z" fill="#141029"/>
<path d="M6.47726 16.9076L7.51928 13.972H7.54169L8.55009 16.9076H6.47726ZM6.64533 12L3.62012 20H5.39043L6.01788 18.2185H9.00947L9.61451 20H11.4408L8.44925 12H6.64533Z" fill="white"/>
<path d="M12.1307 12V20H13.7778V14.3866H13.8002L15.761 20H17.1167L19.0775 14.3305H19.0999V20H20.747V12H18.2708L16.5005 17.5014H16.478L14.6069 12H12.1307Z" fill="white"/>
<path d="M24.0548 18.521V13.479H25.3097C25.743 13.479 26.1052 13.5425 26.3966 13.6695C26.6953 13.789 26.9344 13.9645 27.1136 14.1961C27.2929 14.4276 27.4199 14.7077 27.4946 15.0364C27.5768 15.3576 27.6178 15.7199 27.6178 16.1232C27.6178 16.564 27.5618 16.9374 27.4498 17.2437C27.3377 17.55 27.1883 17.8002 27.0016 17.9944C26.8149 18.1811 26.602 18.3156 26.3629 18.3978C26.1239 18.4799 25.8774 18.521 25.6234 18.521H24.0548ZM22.2957 12V20H25.7467C26.3592 20 26.8895 19.8992 27.3377 19.6975C27.7934 19.4883 28.1706 19.2045 28.4694 18.8459C28.7756 18.4874 29.0035 18.0616 29.1529 17.5686C29.3022 17.0756 29.3769 16.5378 29.3769 15.9552C29.3769 15.2904 29.2836 14.7115 29.0968 14.2185C28.9176 13.7255 28.6636 13.3147 28.3349 12.986C28.0137 12.6573 27.629 12.4108 27.1809 12.2465C26.7402 12.0822 26.2621 12 25.7467 12H22.2957Z" fill="white"/>
</g>
<defs>
<clipPath id="clip0_1388_11299">
<rect width="32" height="32" fill="white" transform="translate(0.5)"/>
</clipPath>
</defs>
</svg>
