<svg width="32" height="32" viewBox="0 0 32 32" fill="none" xmlns="http://www.w3.org/2000/svg">
<circle cx="16" cy="16" r="16" fill="#141029"/>
<path d="M7.55248 16.986L6.77937 13.3894H6.75696L5.98385 16.986H7.55248ZM7.76536 12L9.88301 20H8.20234L7.83259 18.3081H5.70374L5.33399 20H3.65332L5.77097 12H7.76536Z" fill="white"/>
<path d="M10.4395 12V20H12.0529V16.6162H12.9157C13.2518 16.6162 13.4908 16.7059 13.6327 16.8852C13.7747 17.0644 13.8531 17.3109 13.868 17.6246L13.9129 19.1597C13.9203 19.3165 13.9353 19.4697 13.9577 19.619C13.9801 19.761 14.0324 19.888 14.1145 20H15.8624V19.9328C15.713 19.8506 15.6159 19.6975 15.5711 19.4734C15.5412 19.2493 15.5188 18.9244 15.5039 18.4986C15.4964 18.282 15.489 18.0878 15.4815 17.916C15.474 17.7367 15.4628 17.5724 15.4479 17.423C15.4031 16.9748 15.2873 16.6499 15.1005 16.4482C14.9138 16.2465 14.6187 16.1158 14.2154 16.056V16.0336C14.671 15.9365 15.0072 15.7199 15.2238 15.3838C15.4404 15.0401 15.5487 14.5994 15.5487 14.0616C15.5487 13.3669 15.362 12.8515 14.9885 12.5154C14.615 12.1718 14.0921 12 13.4199 12H10.4395ZM12.0529 15.4958V13.1877H12.8148C13.5618 13.1877 13.9353 13.5574 13.9353 14.2969C13.9353 14.7302 13.8307 15.0401 13.6215 15.2269C13.4124 15.4062 13.1136 15.4958 12.7252 15.4958H12.0529Z" fill="white"/>
<path d="M18.2788 12H16.6654V20H18.2788V17.6246L18.8727 16.7171L20.5197 20H22.3349L19.9147 15.4286L22.0884 12H20.3405L18.3013 15.2045H18.2788V12Z" fill="white"/>
<path d="M24.2969 12H22.6834V20H24.2969V17.6246L24.8907 16.7171L26.5378 20H28.3529L25.9327 15.4286L28.1064 12H26.3585L24.3193 15.2045H24.2969V12Z" fill="white"/>
</svg>
