<svg width="32" height="32" viewBox="0 0 32 32" fill="none" xmlns="http://www.w3.org/2000/svg">
<circle cx="16" cy="16" r="16" fill="#FF6A00"/>
<path d="M5.44059 18.8123V16.4034H6.13527C6.31454 16.4034 6.47888 16.422 6.62827 16.4594C6.77766 16.4967 6.90465 16.564 7.00922 16.6611C7.12127 16.7507 7.20717 16.8739 7.26692 17.0308C7.33415 17.1802 7.36776 17.3707 7.36776 17.6022C7.36776 18.0654 7.24825 18.3828 7.00922 18.5546C6.77019 18.7264 6.45647 18.8123 6.06804 18.8123H5.44059ZM5.44059 15.2829V13.1877H6.02323C6.42659 13.1877 6.72164 13.2661 6.90838 13.423C7.09512 13.5798 7.18849 13.8487 7.18849 14.2297C7.18849 14.6106 7.08392 14.8833 6.87477 15.0476C6.67309 15.2045 6.34816 15.2829 5.89998 15.2829H5.44059ZM3.82715 12V20H6.54984C7.02043 20 7.41258 19.9365 7.72631 19.8095C8.0475 19.6825 8.30521 19.5145 8.49942 19.3053C8.7011 19.0887 8.84302 18.8385 8.92519 18.5546C9.00735 18.2708 9.04844 17.972 9.04844 17.6583C9.04844 17.1204 8.91772 16.6909 8.65628 16.3697C8.39484 16.0486 8.04003 15.8581 7.59185 15.7983V15.7759C7.99522 15.6639 8.29774 15.4547 8.49942 15.1485C8.7011 14.8347 8.80194 14.4613 8.80194 14.028C8.80194 13.6471 8.74592 13.3259 8.63387 13.0644C8.52183 12.803 8.36496 12.5938 8.16328 12.437C7.9616 12.2801 7.71884 12.1681 7.43499 12.1008C7.15861 12.0336 6.85609 12 6.52743 12H3.82715Z" fill="white"/>
<path d="M13.392 16.986L12.6189 13.3894H12.5965L11.8234 16.986H13.392ZM13.6049 12L15.7225 20H14.0419L13.6721 18.3081H11.5433L11.1735 20H9.49285L11.6105 12H13.6049Z" fill="white"/>
<path d="M17.8924 18.8123V16.4034H18.5871C18.7664 16.4034 18.9307 16.422 19.0801 16.4594C19.2295 16.4967 19.3565 16.564 19.4611 16.6611C19.5731 16.7507 19.659 16.8739 19.7188 17.0308C19.786 17.1802 19.8196 17.3707 19.8196 17.6022C19.8196 18.0654 19.7001 18.3828 19.4611 18.5546C19.222 18.7264 18.9083 18.8123 18.5199 18.8123H17.8924ZM17.8924 15.2829V13.1877H18.4751C18.8784 13.1877 19.1735 13.2661 19.3602 13.423C19.547 13.5798 19.6403 13.8487 19.6403 14.2297C19.6403 14.6106 19.5358 14.8833 19.3266 15.0476C19.1249 15.2045 18.8 15.2829 18.3518 15.2829H17.8924ZM16.279 12V20H19.0017C19.4723 20 19.8644 19.9365 20.1782 19.8095C20.4994 19.6825 20.7571 19.5145 20.9513 19.3053C21.153 19.0887 21.2949 18.8385 21.377 18.5546C21.4592 18.2708 21.5003 17.972 21.5003 17.6583C21.5003 17.1204 21.3696 16.6909 21.1081 16.3697C20.8467 16.0486 20.4919 15.8581 20.0437 15.7983V15.7759C20.4471 15.6639 20.7496 15.4547 20.9513 15.1485C21.153 14.8347 21.2538 14.4613 21.2538 14.028C21.2538 13.6471 21.1978 13.3259 21.0857 13.0644C20.9737 12.803 20.8168 12.5938 20.6151 12.437C20.4135 12.2801 20.1707 12.1681 19.8868 12.1008C19.6105 12.0336 19.3079 12 18.9793 12H16.279Z" fill="white"/>
<path d="M25.8439 16.986L25.0708 13.3894H25.0483L24.2752 16.986H25.8439ZM26.0567 12L28.1744 20H26.4937L26.124 18.3081H23.9951L23.6254 20H21.9447L24.0624 12H26.0567Z" fill="white"/>
</svg>
