<svg width="24" height="25" viewBox="0 0 24 25" fill="none" xmlns="http://www.w3.org/2000/svg">
<g clip-path="url(#clip0)">
<path d="M12 24.0068C18.6274 24.0068 24 18.6343 24 12.0068C24 5.37942 18.6274 0.00683594 12 0.00683594C5.37258 0.00683594 0 5.37942 0 12.0068C0 18.6343 5.37258 24.0068 12 24.0068Z" fill="#FF00AF" fill-opacity="0.2"/>
<path fill-rule="evenodd" clip-rule="evenodd" d="M13.6625 17.5977V6.416C16.0696 7.13517 17.8292 9.36934 17.8292 12.0068C17.8292 14.6443 16.0696 16.8789 13.6625 17.5977ZM11.9958 4.50684V10.8281L11.0438 9.876L10.9221 7.49975L11.915 4.511C11.2783 4.51767 10.6633 4.6085 10.0746 4.76475L9.59417 6.20934L8.2325 5.52642C7.69375 5.84017 7.19542 6.21559 6.7525 6.64934L9.27458 7.91309L9.34833 9.35934L7.9025 9.28517L6.63833 6.7635C6.205 7.20642 5.82917 7.70434 5.51542 8.2435L6.19875 9.60559L4.75333 10.0856C4.5975 10.6743 4.50667 11.2893 4.5 11.926L7.48917 10.9331L9.86542 11.0543L10.8175 12.0068L9.86542 12.9593L7.48917 13.0806L4.5 12.0877C4.50667 12.7243 4.5975 13.3393 4.75333 13.9281L6.19875 14.4081L5.51542 15.7702C5.82917 16.3093 6.205 16.8073 6.63833 17.2502L7.9025 14.7285L9.34833 14.6543L9.27458 16.1002L6.7525 17.3643C7.19542 17.7977 7.69375 18.1731 8.2325 18.4873L9.59417 17.8043L10.0746 19.2489C10.6633 19.4048 11.2783 19.496 11.915 19.5027L10.9221 16.5139L11.0438 14.1377L11.9958 13.1856V19.5068C16.1379 19.5068 19.4958 16.1489 19.4958 12.0068C19.4958 7.86475 16.1379 4.50684 11.9958 4.50684Z" fill="#FF00AF"/>
</g>
<defs>
<clipPath id="clip0">
<rect width="24" height="24" fill="white" transform="translate(0 0.00683594)"/>
</clipPath>
</defs>
</svg>
