<svg height="24" viewBox="0 0 24 24" width="24" xmlns="http://www.w3.org/2000/svg"><g fill="none" fill-rule="evenodd"><circle cx="12" cy="12" fill="#ff00af" fill-rule="nonzero" r="12"/><path d="m13.6625 17.5908333v-11.18166663c2.4070833.71916666 4.1666667 2.95333333 4.1666667 5.59083333s-1.7595834 4.8720833-4.1666667 5.5908333m-1.6666667-13.0908333v6.32125l-.9520833-.95208333-.1216667-2.37625.9929167-2.98875c-.6366667.00666666-1.2516667.0975-1.8404167.25375l-.48041663 1.44458333-1.36166667-.68291667c-.53875.31375-1.03708333.68916667-1.48 1.12291667l2.52208333 1.26375.07375 1.44625-1.44583333-.07416667-1.26416667-2.52166666c-.43333333.44291666-.80916666.94083333-1.12291666 1.48l.68333333 1.36208333-1.44541667.48c-.15583333.58875-.24666666 1.20375-.25333333 1.8404167l2.98916667-.9929167 2.37625.12125.95208333.9525-.95208333.9525-2.37625.12125-2.98916667-.9929167c.00666667.6366667.0975 1.2516667.25333333 1.8404167l1.44541667.48-.68333333 1.3620833c.31375.5391667.68958333 1.0370834 1.12291666 1.48l1.26416667-2.5216666 1.44583333-.0741667-.07375 1.4458333-2.52208333 1.2641667c.44291667.4333333.94125.80875 1.48 1.1229167l1.36166667-.6829167.48041663 1.4445833c.58875.1558334 1.20375.2470834 1.8404167.25375l-.9929167-2.98875.1216667-2.37625.9520833-.9520833v6.32125c4.1420834 0 7.5-3.3579167 7.5-7.5 0-4.14208333-3.3579166-7.5-7.5-7.5" fill="#fff"/></g></svg>