<svg width="32" height="32" viewBox="0 0 32 32" fill="none" xmlns="http://www.w3.org/2000/svg">
<circle cx="16" cy="16" r="16" fill="#F5E045"/>
<path d="M11.1911 18.9612L11.3625 19.8286H12.4334V15.6948H9.22056V16.9478H10.9127C10.8627 17.4833 10.6842 17.8938 10.3772 18.1794C10.0773 18.4578 9.64894 18.5971 9.09204 18.5971C8.71364 18.5971 8.39236 18.5257 8.12819 18.3829C7.86402 18.2329 7.64983 18.0366 7.48562 17.7938C7.32141 17.5511 7.20003 17.2798 7.1215 16.9799C7.0501 16.6729 7.0144 16.3588 7.0144 16.0375C7.0144 15.7019 7.0501 15.3771 7.1215 15.0629C7.20003 14.7488 7.32141 14.4703 7.48562 14.2276C7.64983 13.9777 7.86402 13.7813 8.12819 13.6386C8.39236 13.4886 8.71364 13.4137 9.09204 13.4137C9.499 13.4137 9.84528 13.5207 10.1309 13.7349C10.4165 13.9491 10.6092 14.2704 10.7092 14.6988H12.3156C12.2728 14.2633 12.155 13.8777 11.9622 13.5422C11.7694 13.2066 11.5231 12.9246 11.2232 12.6961C10.9305 12.4676 10.5985 12.2963 10.2273 12.1821C9.86313 12.0607 9.48473 12 9.09204 12C8.50659 12 7.97826 12.1035 7.50704 12.3106C7.04296 12.5176 6.65028 12.8032 6.32899 13.1673C6.00771 13.5315 5.76139 13.9598 5.59004 14.4525C5.41868 14.938 5.33301 15.4663 5.33301 16.0375C5.33301 16.5944 5.41868 17.1156 5.59004 17.6011C5.76139 18.0794 6.00771 18.4971 6.32899 18.8541C6.65028 19.2111 7.04296 19.4931 7.50704 19.7001C7.97826 19.9 8.50659 20 9.09204 20C9.46331 20 9.831 19.925 10.1951 19.7751C10.5592 19.618 10.8912 19.3467 11.1911 18.9612Z" fill="#284033"/>
<path d="M13.7913 12.1821V19.8286H19.1996V18.415H15.4726V12.1821H13.7913Z" fill="#284033"/>
<path d="M21.821 18.415V13.5957H23.0204C23.4345 13.5957 23.7808 13.6564 24.0592 13.7778C24.3448 13.892 24.5733 14.0598 24.7447 14.2811C24.916 14.5025 25.0374 14.7702 25.1088 15.0843C25.1873 15.3913 25.2266 15.7376 25.2266 16.1232C25.2266 16.5444 25.173 16.9014 25.0659 17.1941C24.9588 17.4868 24.816 17.726 24.6376 17.9116C24.4591 18.0901 24.2556 18.2187 24.0271 18.2972C23.7986 18.3757 23.563 18.415 23.3203 18.415H21.821ZM20.1396 12.1821V19.8286H23.4381C24.0235 19.8286 24.5305 19.7323 24.9588 19.5395C25.3944 19.3396 25.7549 19.0683 26.0405 18.7256C26.3332 18.3829 26.551 17.9759 26.6938 17.5047C26.8366 17.0335 26.908 16.5194 26.908 15.9625C26.908 15.3271 26.8187 14.7738 26.6402 14.3025C26.4689 13.8313 26.2261 13.4386 25.912 13.1245C25.605 12.8104 25.2373 12.5747 24.8089 12.4177C24.3877 12.2606 23.9307 12.1821 23.4381 12.1821H20.1396Z" fill="#284033"/>
</svg>
