<svg width="33" height="32" viewBox="0 0 33 32" fill="none" xmlns="http://www.w3.org/2000/svg">
<g clip-path="url(#clip0_1388_11290)">
<path fill-rule="evenodd" clip-rule="evenodd" d="M16.5 0C7.663 0 0.5 7.163 0.5 16C0.5 24.837 7.663 32 16.5 32C25.338 32 32.5 24.837 32.5 16C32.5 7.163 25.338 0 16.5 0Z" fill="#141029"/>
<path d="M10.3581 18.9612L10.5295 19.8286H11.6004V15.6948H8.38755V16.9478H10.0797C10.0297 17.4833 9.85118 17.8938 9.54418 18.1794C9.24431 18.4578 8.81593 18.5971 8.25904 18.5971C7.88063 18.5971 7.55935 18.5257 7.29518 18.3829C7.03101 18.2329 6.81682 18.0366 6.65261 17.7938C6.4884 17.5511 6.36702 17.2798 6.28849 16.9799C6.21709 16.6729 6.18139 16.3588 6.18139 16.0375C6.18139 15.7019 6.21709 15.3771 6.28849 15.0629C6.36702 14.7488 6.4884 14.4703 6.65261 14.2276C6.81682 13.9777 7.03101 13.7813 7.29518 13.6386C7.55935 13.4886 7.88063 13.4137 8.25904 13.4137C8.666 13.4137 9.01227 13.5207 9.29786 13.7349C9.58344 13.9491 9.77622 14.2704 9.87617 14.6988H11.4826C11.4398 14.2633 11.322 13.8777 11.1292 13.5422C10.9364 13.2066 10.6901 12.9246 10.3902 12.6961C10.0975 12.4676 9.76551 12.2963 9.39424 12.1821C9.03012 12.0607 8.65172 12 8.25904 12C7.67358 12 7.14525 12.1035 6.67403 12.3106C6.20995 12.5176 5.81727 12.8032 5.49598 13.1673C5.1747 13.5315 4.92838 13.9598 4.75703 14.4525C4.58568 14.938 4.5 15.4663 4.5 16.0375C4.5 16.5944 4.58568 17.1156 4.75703 17.6011C4.92838 18.0794 5.1747 18.4971 5.49598 18.8541C5.81727 19.2111 6.20995 19.4931 6.67403 19.7001C7.14525 19.9 7.67358 20 8.25904 20C8.6303 20 8.99799 19.925 9.36211 19.7751C9.72624 19.618 10.0582 19.3467 10.3581 18.9612Z" fill="white"/>
<path d="M12.9582 12.1821V19.8286H14.5325V14.4632H14.554L16.4281 19.8286H17.724L19.5981 14.4096H19.6196V19.8286H21.1939V12.1821H18.8271L17.135 17.4404H17.1135L15.325 12.1821H12.9582Z" fill="white"/>
<path d="M22.6742 12.1821V19.8286H28.4787V18.415H24.3556V16.5408H28.0611V15.2343H24.3556V13.5957H28.3931V12.1821H22.6742Z" fill="white"/>
</g>
<defs>
<clipPath id="clip0_1388_11290">
<rect width="32" height="32" fill="white" transform="translate(0.5)"/>
</clipPath>
</defs>
</svg>
