<svg width="32" height="32" viewBox="0 0 32 32" fill="none" xmlns="http://www.w3.org/2000/svg">
<path fill-rule="evenodd" clip-rule="evenodd" d="M16 0C7.163 0 0 7.163 0 16C0 24.837 7.163 32 16 32C24.838 32 32 24.837 32 16C32 7.163 24.838 0 16 0Z" fill="#34A853"/>
<path d="M7.97424 14.4465H9.46815C9.46815 13.6599 9.28051 13.0573 8.90523 12.6387C8.52995 12.2129 7.9165 12 7.0649 12C6.56693 12 6.15196 12.083 5.81998 12.249C5.488 12.415 5.22097 12.664 5.01889 12.9959C4.81682 13.3207 4.67248 13.7285 4.58588 14.2192C4.50649 14.71 4.4668 15.2801 4.4668 15.9296C4.4668 16.6008 4.49566 17.1926 4.5534 17.705C4.61114 18.2102 4.723 18.636 4.88899 18.9824C5.0622 19.3288 5.29675 19.585 5.59264 19.751C5.89575 19.917 6.28547 20 6.76179 20C7.12986 20 7.44379 19.9387 7.7036 19.816C7.97063 19.6861 8.19797 19.4696 8.38561 19.1664H8.40726V19.8809H9.55475V15.7131H7.03243V16.8606H8.06084V17.6509C8.06084 17.8602 8.02837 18.0442 7.96341 18.203C7.89846 18.3545 7.81547 18.4808 7.71443 18.5819C7.62061 18.6829 7.51596 18.7587 7.40049 18.8092C7.29224 18.8597 7.1912 18.885 7.09738 18.885C6.87365 18.885 6.68962 18.8164 6.54528 18.6793C6.40816 18.535 6.2999 18.3329 6.22052 18.0731C6.14835 17.806 6.09783 17.4849 6.06896 17.1096C6.04009 16.7343 6.02566 16.3157 6.02566 15.8539C6.02566 14.8868 6.10866 14.194 6.27465 13.7754C6.44064 13.3568 6.71127 13.1475 7.08655 13.1475C7.24533 13.1475 7.37884 13.1908 7.48709 13.2774C7.60257 13.3568 7.69639 13.4614 7.76856 13.5913C7.84073 13.714 7.89124 13.8512 7.92011 14.0027C7.9562 14.1543 7.97424 14.3022 7.97424 14.4465Z" fill="white"/>
<path d="M11.9544 16.0162C11.9544 15.4966 11.9652 15.0564 11.9868 14.6955C12.0157 14.3347 12.0662 14.0388 12.1384 13.8078C12.2178 13.5769 12.326 13.4109 12.4632 13.3099C12.6075 13.2016 12.7951 13.1475 13.0261 13.1475C13.257 13.1475 13.4411 13.2016 13.5782 13.3099C13.7225 13.4109 13.8308 13.5769 13.9029 13.8078C13.9823 14.0388 14.0328 14.3347 14.0545 14.6955C14.0834 15.0564 14.0978 15.4966 14.0978 16.0162C14.0978 16.5359 14.0834 16.9797 14.0545 17.3478C14.0328 17.7086 13.9823 18.0045 13.9029 18.2355C13.8308 18.4592 13.7225 18.6252 13.5782 18.7334C13.4411 18.8345 13.257 18.885 13.0261 18.885C12.7951 18.885 12.6075 18.8345 12.4632 18.7334C12.326 18.6252 12.2178 18.4592 12.1384 18.2355C12.0662 18.0045 12.0157 17.7086 11.9868 17.3478C11.9652 16.9797 11.9544 16.5359 11.9544 16.0162ZM10.3955 16.0162C10.3955 16.608 10.4208 17.1493 10.4713 17.6401C10.529 18.1308 10.6481 18.553 10.8285 18.9066C11.0162 19.2603 11.2832 19.5309 11.6296 19.7185C11.976 19.9062 12.4415 20 13.0261 20C13.6107 20 14.0762 19.9062 14.4226 19.7185C14.769 19.5309 15.0324 19.2603 15.2128 18.9066C15.4005 18.553 15.5195 18.1308 15.5701 17.6401C15.6278 17.1493 15.6567 16.608 15.6567 16.0162C15.6567 15.4317 15.6278 14.894 15.5701 14.4032C15.5195 13.9053 15.4005 13.4795 15.2128 13.1258C15.0324 12.7722 14.769 12.498 14.4226 12.3031C14.0762 12.101 13.6107 12 13.0261 12C12.4415 12 11.976 12.101 11.6296 12.3031C11.2832 12.498 11.0162 12.7722 10.8285 13.1258C10.6481 13.4795 10.529 13.9053 10.4713 14.4032C10.4208 14.894 10.3955 15.4317 10.3955 16.0162Z" fill="white"/>
<path d="M17.9697 16.0162C17.9697 15.4966 17.9805 15.0564 18.0021 14.6955C18.031 14.3347 18.0815 14.0388 18.1537 13.8078C18.2331 13.5769 18.3413 13.4109 18.4785 13.3099C18.6228 13.2016 18.8104 13.1475 19.0414 13.1475C19.2723 13.1475 19.4564 13.2016 19.5935 13.3099C19.7378 13.4109 19.8461 13.5769 19.9183 13.8078C19.9976 14.0388 20.0482 14.3347 20.0698 14.6955C20.0987 15.0564 20.1131 15.4966 20.1131 16.0162C20.1131 16.5359 20.0987 16.9797 20.0698 17.3478C20.0482 17.7086 19.9976 18.0045 19.9183 18.2355C19.8461 18.4592 19.7378 18.6252 19.5935 18.7334C19.4564 18.8345 19.2723 18.885 19.0414 18.885C18.8104 18.885 18.6228 18.8345 18.4785 18.7334C18.3413 18.6252 18.2331 18.4592 18.1537 18.2355C18.0815 18.0045 18.031 17.7086 18.0021 17.3478C17.9805 16.9797 17.9697 16.5359 17.9697 16.0162ZM16.4108 16.0162C16.4108 16.608 16.4361 17.1493 16.4866 17.6401C16.5443 18.1308 16.6634 18.553 16.8438 18.9066C17.0315 19.2603 17.2985 19.5309 17.6449 19.7185C17.9913 19.9062 18.4568 20 19.0414 20C19.626 20 20.0915 19.9062 20.4379 19.7185C20.7843 19.5309 21.0477 19.2603 21.2281 18.9066C21.4158 18.553 21.5349 18.1308 21.5854 17.6401C21.6431 17.1493 21.672 16.608 21.672 16.0162C21.672 15.4317 21.6431 14.894 21.5854 14.4032C21.5349 13.9053 21.4158 13.4795 21.2281 13.1258C21.0477 12.7722 20.7843 12.498 20.4379 12.3031C20.0915 12.101 19.626 12 19.0414 12C18.4568 12 17.9913 12.101 17.6449 12.3031C17.2985 12.498 17.0315 12.7722 16.8438 13.1258C16.6634 13.4795 16.5443 13.9053 16.4866 14.4032C16.4361 14.894 16.4108 15.4317 16.4108 16.0162Z" fill="white"/>
<path d="M26.0202 14.4465H27.5141C27.5141 13.6599 27.3264 13.0573 26.9512 12.6387C26.5759 12.2129 25.9624 12 25.1108 12C24.6129 12 24.1979 12.083 23.8659 12.249C23.5339 12.415 23.2669 12.664 23.0648 12.9959C22.8627 13.3207 22.7184 13.7285 22.6318 14.2192C22.5524 14.71 22.5127 15.2801 22.5127 15.9296C22.5127 16.6008 22.5416 17.1926 22.5993 17.705C22.6571 18.2102 22.7689 18.636 22.9349 18.9824C23.1081 19.3288 23.3427 19.585 23.6386 19.751C23.9417 19.917 24.3314 20 24.8077 20C25.1758 20 25.4897 19.9387 25.7495 19.816C26.0166 19.6861 26.2439 19.4696 26.4315 19.1664H26.4532V19.8809H27.6007V15.7131H25.0783V16.8606H26.1068V17.6509C26.1068 17.8602 26.0743 18.0442 26.0093 18.203C25.9444 18.3545 25.8614 18.4808 25.7604 18.5819C25.6665 18.6829 25.5619 18.7587 25.4464 18.8092C25.3382 18.8597 25.2371 18.885 25.1433 18.885C24.9196 18.885 24.7355 18.8164 24.5912 18.6793C24.4541 18.535 24.3458 18.3329 24.2664 18.0731C24.1943 17.806 24.1438 17.4849 24.1149 17.1096C24.086 16.7343 24.0716 16.3157 24.0716 15.8539C24.0716 14.8868 24.1546 14.194 24.3206 13.7754C24.4866 13.3568 24.7572 13.1475 25.1325 13.1475C25.2912 13.1475 25.4248 13.1908 25.533 13.2774C25.6485 13.3568 25.7423 13.4614 25.8145 13.5913C25.8866 13.714 25.9372 13.8512 25.966 14.0027C26.0021 14.1543 26.0202 14.3022 26.0202 14.4465Z" fill="white"/>
</svg>
