<svg width="24" height="24" viewBox="0 0 24 24" fill="none" xmlns="http://www.w3.org/2000/svg">
<path fill-rule="evenodd" clip-rule="evenodd" d="M12 0C5.37225 0 0 5.37225 0 12C0 18.6278 5.37225 24 12 24C18.6285 24 24 18.6278 24 12C24 5.37225 18.6285 0 12 0Z" fill="#77B900"/>
<path d="M4.27484 9H2.87988V15H3.98913V10.7983H4.00593L5.48492 15H6.86308V9H5.75383V13.1092H5.73703L4.27484 9Z" fill="white"/>
<path d="M8.64138 9H7.34727L8.72542 15H10.28L11.6582 9H10.4061L9.51533 13.437H9.49012L8.64138 9Z" fill="white"/>
<path d="M13.4057 14.1092V9.89076H13.9183C14.148 9.89076 14.3301 9.93557 14.4645 10.0252C14.6046 10.1092 14.7082 10.2381 14.7755 10.4118C14.8483 10.5798 14.8959 10.7927 14.9183 11.0504C14.9407 11.3081 14.9519 11.6078 14.9519 11.9496C14.9519 12.3585 14.9379 12.7003 14.9099 12.9748C14.8875 13.2493 14.8371 13.4706 14.7587 13.6387C14.6858 13.8067 14.585 13.9272 14.4561 14C14.3273 14.0728 14.1564 14.1092 13.9435 14.1092H13.4057ZM12.1956 9V15H14.1032C14.5065 15 14.8399 14.9384 15.1032 14.8151C15.3665 14.6919 15.5766 14.5042 15.7334 14.2521C15.8903 14 15.9995 13.6807 16.0612 13.2941C16.1284 12.902 16.162 12.4426 16.162 11.916C16.162 11.4734 16.1368 11.0728 16.0864 10.7143C16.036 10.3557 15.9379 10.0504 15.7923 9.79832C15.6522 9.54062 15.4533 9.34454 15.1956 9.21008C14.9379 9.07003 14.599 9 14.1788 9H12.1956Z" fill="white"/>
<path d="M19.5033 12.7395L18.9235 10.042H18.9067L18.3269 12.7395H19.5033ZM19.663 9L21.2512 15H19.9907L19.7134 13.7311H18.1168L17.8395 15H16.579L18.1672 9H19.663Z" fill="white"/>
</svg>
