<svg height="32" width="32" xmlns="http://www.w3.org/2000/svg" xmlns:xlink="http://www.w3.org/1999/xlink"><defs><path id="a" d="m16 0c-8.837 0-16 7.163-16 16s7.163 16 16 16 16-7.163 16-16-7.163-16-16-16z"/><mask id="b" fill="#fff"><use fill-rule="evenodd" xlink:href="#a"/></mask><mask id="c" fill="#fff"><path d="m.167.434h1v.566h-1z" fill-rule="evenodd"/></mask><mask id="d" fill="#fff"><path d="m0 .569h22.745v11.504h-22.745z" fill-rule="evenodd"/></mask><mask id="e" fill="#fff"><path d="m.37 0h1.433v4.492h-1.433z" fill-rule="evenodd"/></mask><mask id="f" fill="#fff"><path d="m1 .795h.975v1h-.975z" fill-rule="evenodd"/></mask><mask id="g" fill="#fff"><path d="m1 .88h.965v1h-.965z" fill-rule="evenodd"/></mask><mask id="h" fill="#fff"><path d="m.346.126h4.597v7.792h-4.597z" fill-rule="evenodd"/></mask><mask id="i" fill="#fff"><path d="m.18 0h1v.999h-1z" fill-rule="evenodd"/></mask></defs><g fill="none" fill-rule="evenodd"><use fill="#c2a633" xlink:href="#a"/><g mask="url(#b)"><path d="m24.078 30.002c-1.512 1.045-3.19 1.647-5.008 1.876-.148.02-.32-.044-.429.122h-1.179a.634.634 0 0 0 -.59 0h-3.305c-.612-.322-1.315-.25-1.955-.459-.459-.149-.938-.235-1.369-.467.03-.129.127-.227.24-.226.668.003 1.262-.44 1.941-.333.365.057.386-.244.531-.43.221-.283.422-.664.857-.264-.003.051-.058.126.06.124.44-.38.961-.666 1.277-1.176.114-.119.261-.197.378-.31.655-.557 1.516-.6 2.272-.908.217-.088.45-.112.6-.328.106-.153.287-.19.462-.235 1.072-.266 1.892-.837 2.621-1.713.664-.797 1.585-1.435 2.788-1.194.46.092.705.577.69 1.205-.023.82-.357 1.513-.77 2.182-.16.26-.135.501-.043.761-.134.302-.435.324-.697.411-.415.03-.57.287-.583.67l.01.151c.013.147-.123.35.152.396l.218.071c.394.425.091-.346.325-.19l.152-.016c.127.081.27.143.354.28" fill="#e7cf90"/><path d="m.372 1c.196-.175.394-.177.59 0z" fill="#ebd8a4" mask="url(#c)" transform="translate(16.5 31)"/><path d="m9.187 10.877c-.304-.123-.425-.117-.56.197-.198.46-.389.639-.983.587-.617-.055-1.266.26-1.901.412-1.885-.612-3.461-1.731-4.936-3.015-.133-.117-.24-.27-.387-.362-.542-.339-.492-.725-.228-1.244.322-.63.599-1.295.404-2.054-.045-.176.137-.4.163-.608.055-.453.097-.901.085-1.369-.014-.499.355-1.01.558-1.515.418.075.481.428.527.742.189 1.299.883 2.305 1.854 3.112.676.561 1.193 1.245 1.709 1.928.299.396.409.929.474 1.429.043.336-.013.75.357.85.345.093.746-.033 1.04-.287.704-.609 1.121-1.397 1.49-2.246.29-.666.832-1.163 1.475-1.574.567-.362 1.171-.681 1.691-1.118l.148.011c.114.087.229.174.383.077.281-.189.611-.257.922-.373.13-.049.298-.106.395-.02.34.305.757.209 1.145.28.219.04.565-.101.597.368.011.149.323-.06.501-.048.263.09.548-.008.811.09.202.136.332-.049.489-.111.29-.131.462-.422.75-.558.355-.124.652-.366 1.042-.438.281-.052.49-.295.526-.622a.515.515 0 0 1 .274-.303c.602-.056.873-.53 1.105-.974.205-.392.45-.776.575-1.21.054-.173.16-.296.34-.342.417.084.235.557.485.75l.238.92c-.132.269.07.618-.206.852l-.046.235c-.107.039-.23.049-.267.195-.197.748-.536 1.459-.576 2.248-.083.141-.294.26-.075.452.164.423.112.765-.356.951l-.153.161c-.13.386-.387.675-.707.915-.172.075-.268.223-.357.378-.2.159-.075.552-.43.599-.449-.546.017-.983.261-1.344.518-.767.522-1.552.343-2.386-.041-.19-.198-.26-.397-.288-.836-.116-1.486.223-2.159.691-.607.421-.836 1.189-1.425 1.506-.327.177-.687.388-1.054.54-.466.193-.985.164-1.418.589-.344.338-.974.425-1.496.527-.44.085-.786.308-1.151.519-.163.011-.344-.005-.356.236-.272.648-.882.928-1.414 1.293-.068-.063-.195-.095-.119-.231" fill="#e2c170" mask="url(#d)" transform="translate(4.5 19)"/><path d="m16.635 23.738c-.112.3-.29.45-.641.53-.544.123-.821.74-1.37.904-.553.166-.557.887-1.1 1.06l-.065.157c-.157 1.017-.815 1.726-1.491 2.42-.303.313-.767.233-1.133.421-.18.093-.546-.605-.545-.94.002-.634-.217-1.197-.562-1.736-.656-1.026-1.724-1.662-2.44-2.628-.501-.678-.926-1.383-.983-2.258-.02-.303-.194-.546-.403-.761l-.004-.24c-.08-.137-.115-.267.054-.366.409.168.579.552.803.887-.022.146-.026.285.13.369l.164.16c.249.335.473.689.786.97.093.12.216.206.343.285.166.152.373.264.48.476.08.22.21.351.467.262.452-.095.635.122.635.55-.177.331.082.441.293.575.198.098.326.302.553.351.13-.01.173-.166.3-.178.209.08.27.24.245.448.055.091-.207.024-.075.139.1.088.172.206.287.279.32.259.249.677.407 1.018.312-.206.365-.604.646-.816.224.119.18-.113.25-.197l.095-.114c.132-.117.198-.276.27-.43.086-.16.14-.332.189-.508.148-.308.46-.444.729-.552.594-.24 1.027-.698 1.554-1.024.202-.13.406-.256.587-.417.133-.1.255-.22.437-.226l.15.072a.383.383 0 0 1 .034.329c-.243.21-.198.433-.03.662zm-10.869-12.513c.473-.68.46-1.551.921-2.251.348-.53.768-.93 1.333-1.15.494-.191.97-.39 1.374-.737.391-.202.792-.383 1.16-.63.115-.06.242-.091.358-.152.147-.073.185-.236.284-.35.157-.152.345-.177.55-.135.111.027.218.066.323.112.121.059.227.137.262.273.051.199.102-.048.151.003.413.235.552.537.284.934-.43.637-.492 1.42-.93 2.06-.23.334-.449.612-.8.793l-.168-.018c-.196-.165-.203-.397-.22-.625-.012-.13.006-.293-.167-.323-.16-.03-.21.136-.298.229-.256.245-.542.437-.896.508a.84.84 0 0 0 -.257.138c-.14.114-.165.289-.228.444-.108.15-.203.32-.43.298a.822.822 0 0 1 -.267-.221c-.472-.53-.565-.534-1.13-.063-.337.322-.369.898-.889 1.067-.15 0-.326.04-.32-.204" fill="#e3af51"/><path d="m5.514 20.098c-.25-.32-.213-.752-.427-1.086.107-.388.248-.76.5-1.082.272-.335.6-.616.894-.931l.203-.232.146-.034.19.128a.46.46 0 0 1 .121.28c0 .184.06.358.073.54-.027.39.102.759.156 1.137-.032.21-.199.26-.367.305-.22.058-.299.216-.318.423-.059.274-.253.409-.502.487l-.23.049-.222.017z" fill="#efdfac"/><path d="m1.471.023c.053.16.291.07.332.247-.099.134-.34.198-.214.44.056.124.1.25.062.386-.179.506-.026 1.041-.132 1.555-.03.148.012.313-.114.437-.203.164-.217.376-.223.625-.01.493-.389.825-.812.773.37-1.025.361-2.098.391-3.164.009-.312-.003-.622.1-.926.102-.3.277-.46.61-.373" fill="#e3af51" mask="url(#e)" transform="translate(9.5 2)"/><path d="m9.87 6.487c.446-.136.732-.394.647-.903-.052-.304.089-.482.336-.614.166.213-.016.503.162.713.024.138-.016.264-.067.389a1.865 1.865 0 0 1 -.33.444c-.346.324-.704.622-1.224.572.095-.252.267-.442.477-.601" fill="#c79335"/><path d="m5.062 18.794c-.157-.216-.154-.48-.22-.726.1-.178.207-.353.337-.513l.184-.243c.123-.128.245-.258.391-.362a.864.864 0 0 1 .366-.135l.157.038.136.193c-.158.354-.498.548-.736.831-.234.287-.329.666-.615.917" fill="#f0e0ad"/><path d="m5.766 11.225c.085.152.23.127.368.124.35.198.248.484.12.747-.16.329-.375.627-.647.878-.122.09-.217.03-.307-.06l.01-.147z" fill="#f0e0af"/><path d="m4.73 17.242-.133-.822c-.058-.142.061-.206.127-.295.288-.14.578-.275.913-.249.144.045.266.116.316.272.006.31-.265.394-.449.548-.177.101-.343.214-.453.393-.086.094-.161.213-.321.153" fill="#f0e0ad"/><path d="m4.722 14.775c.148-.171.185-.387.243-.595l.152-.04c.387.123.748.293 1.048.575 0 .09-.048.155-.119.204l-.157.032c-.303-.033-.61-.11-.892.089l-.158.032-.176-.151.06-.146z" fill="#f0e0ae"/><path d="m5.075 14.18h-.11l.33-1.181-.024-.084.042-.034.23.117.059.053c.055.092.076.195.1.298a.649.649 0 0 1 -.102.605l-.234.216c-.095.06-.191.097-.291.01" fill="#f0e1b1"/><path d="m4.614 16.064c-.01-.13-.03-.261.097-.352.111-.216.331-.241.53-.301l.157-.042c.166-.024.33-.034.48.06l.051.148-.188.147c-.097.043-.196.082-.292.129-.243.21-.535.228-.835.21" fill="#e1d4a5"/><path d="m4.614 16.064c.244-.178.628-.03.811-.351.12.086.373-.038.376.236l-.14.003-.954.239-.11-.006z" fill="#e0d1a1"/><path d="m5.062 18.794c.17-.337.322-.686.598-.956l.036.08-.036.04c-.166.364-.303.745-.573 1.054z" fill="#e6d7a8"/><path d="m5.426 17.363-.12.239c-.17.056-.244.3-.473.237-.018-.08-.132-.152-.015-.24.09-.16.098-.383.334-.43l.166.005c.08.037.145.085.108.189" fill="#f2e4b5"/><path d="m1.688 1.247-.371.352-.087-.357.222-.227c.121-.063.198.002.268.091z" fill="#efe1b1" mask="url(#f)" transform="translate(3.5 16)"/><path d="m1.108 1.473.118-.233.224-.067a.83.83 0 0 1 .371.16l-.015.146.001-.001c-.182.113-.404.015-.588.11l-.11-.115z" fill="#ebddab" mask="url(#g)" transform="translate(3.5 14)"/><path d="m5.666 19.968.229-.005c.08.077.156.155.15.278l-.035.075c-.134.086-.11.222-.113.351l-.133-.208c-.056-.159-.155-.31-.098-.491" fill="#e3b154"/><path d="m4.833 17.84c.164-.068.266-.258.473-.238a1.195 1.195 0 0 1 -.464.466l-.009-.229z" fill="#e4d4a4"/><path d="m5.666 19.968c.082.153.136.313.098.491a.616.616 0 0 1 -.25-.361z" fill="#e3c272"/><path d="m4.72 15.59c.166-.189.39-.085.587-.112-.156.186-.423.09-.596.234l.008-.123z" fill="#f2e2ae"/><path d="m12.033 6.036c-.097 0-.186-.02-.236-.116l-.05-.11.039-.239.19-.098c.133-.009.257.035.386.048a1.5 1.5 0 0 0 .635-.059c.192-.066.393.004.586-.043.57.151 1.156.157 1.739.187.22.012.463-.01.587.246.04.086.113.204.214.13.589-.434 1.15-.008 1.723.04.139.168.333.286.437.486.17.2.343.398.532.582.187.523.773.764.932 1.307.097.166.287.141.432.21.068.128-.016.215-.08.306l.035.146.234-.055.108-.096c.298-.116.578.202.878.033.554.07.752-.354.992-.718.31-.303.49-.727.889-.946l.235.02c.115.162.032.358.089.531a.375.375 0 0 1 -.14.345c-.097.058-.21.104-.225.24-.033.094-.104.184-.03.288-.03.115-.13.207-.113.336l-.025.132.044-.158c.028-.136.096-.238.224-.293l.14.055c.065.051.1.16.216.101.069-.084.09-.203.196-.257.312.645.678 1.277.925 1.936.283.754.413 1.594.437 2.402.015.462.124.894.158 1.344l.002.161c.129.216.215.467-.003.64-.228.177-.342-.148-.538-.23-.171.371-.39.678-.82.762-.166.033-.227.177-.28.342-.111.352-.12.34-.425.074-.045-.039-.186.062-.247-.063-.233-.356-.3-.703-.295-1.165.006-.512.043-1.097-.185-1.613.017-.107.143-.214-.005-.319-.27-.196-.094-.732-.585-.752l-.224-.045c-.142-.017-.284-.032-.412.055l-.166.241-.13.087c-.348-.057-.686-.142-.993-.323-.222-.212-.427.022-.64.027a2.822 2.822 0 0 1 -.588.021c-.341-.02-.547.092-.76.403-.533.778-1.26 1.362-2.12 1.77-.326.154-.61.03-.904-.08-.193-.075-.41-.094-.588-.182-.204-.1-.153.11-.238.141a.591.591 0 0 1 -.41.027l-.2-.152c-.078-.147-.14-.298-.111-.47.157-.105.005-.183-.028-.272a1.533 1.533 0 0 1 -.087-.297c-.035-.095.033-.256-.163-.243l-.12.08c-.198.155-.296.56-.62.391-.29-.15-.233-.495-.186-.79.08-.517.329-.99.38-1.51l-.027-.107-.112.171c-.154.192-.3.396-.58.406-.21.014-.407.061-.578.192-.175.143-.29.368-.545.404a.43.43 0 0 0 -.353.327c-.308.334-.458.171-.482-.18a1.856 1.856 0 0 1 .086-.618c.06-.21.53-.223.283-.585l-.02-.146c.075-.117.199-.154.317-.198.206-.097.148-.294.173-.459a.42.42 0 0 1 .134-.29c.706-.549 1.083-1.283 1.286-2.143.05-.22.215-.442.352-.654.197-.306.324-.7-.223-.865-.111-.088-.1-.365-.355-.234" fill="#c89436"/><path d="m23.127 15.953c.352-.246.185.247.416.254-.008-.563.278-.853.86-.843.043.001.094-.197.135-.305.15-.39.247-.41.541-.119l.203.085c.093-.009.066-.115.088-.184.06-.184-.208-.36-.005-.542.306.42.43.894.498 1.405.065.478.207.946.315 1.42-.031.44-.066.881.206 1.276.216.316-.041.645.014.966.08.214-.256.364-.09.592-.215.762-.704 1.382-1.102 2.044-.086.144-.439.13-.671.188-.176-.008-.283.047-.229.25.133.311-.077.482-.296.58-.436.193-.852.454-1.345.495l-.043-.07c.208-.663.754-1.122 1.045-1.743.176-.377.45-.692.252-1.142-.085-.192.042-.325.145-.474.389-.559.768-1.127.96-1.792.065-.159.05-.333.051-.377a.882.882 0 0 1 -.078.411c-.292.39-.57.78-1.066.954-.186.066-.256.322-.346.483-.387.68-.884 1.227-1.564 1.608l-.038.15c.003.166-.16.261-.17.418.071.178.248.276.331.443.161.205.103.444.102.675a.954.954 0 0 1 -.225.49c-.175.181-.361.354-.468.591l-.197.07c-.242.01-.507.147-.701-.124-.264-.443.159-.61.362-.843.245-.28.419-.52-.006-.779l-.055-.22-.044-.218-.027-.146c-.018-.175.029-.342.063-.51.034-.158-.078-.265-.142-.388-.113-.633.172-1.084.68-1.41a.892.892 0 0 0 .319-.324c.108-.205.006-.38-.081-.557-.193-.427.065-.572.412-.662.083-.12.166-.24.304-.305.157-.34.009-.707.083-1.053.024-.276.301-.393.39-.629.055-.069.113-.13.214-.089" fill="#d49930"/><path d="m2.281 5.168c.306-.27.56-.576.697-.967l.087.07.021-.188c.424-.133.58-.389.374-.811-.076-.185-.013-.337.114-.474.023-.646-.028-1.313.433-1.85.162-.188 0-.366.044-.547.093-.381.25-.326.442-.075.293 1.33.324 2.69.442 4.04.06.673-.222 1.184-.697 1.651-.76.747-1.574 1.411-2.527 1.897-.168-.042-.344-.059-.495-.156l-.058-.006-.059.002c-.1.027-.11.213-.263.152l-.218-.2c-.13-.135-.243-.279-.272-.473.078-.294.131-.606.512-.666l.714-.342c.2-.196.057-.565.36-.707.19-.043.3-.166.35-.35" fill="#d49a30" mask="url(#h)" transform="translate(22.5 22)"/><path d="m20.185 8.635c-.17-.007-.385.167-.481-.124-.296-.587.038-1.168.018-1.752a1.39 1.39 0 0 1 .116-.391c.138-.229.326-.419.49-.627.114-.195.36-.349.192-.63l-.058-.135c.016-.216.159-.354.313-.471.438-.333.654-.8.814-1.304.35-.561.85-.629 1.549-.211-.05.281.07.541.104.811-.01.226-.114.444-.046.676.007.288.41.418.302.752l-.21.108a3.08 3.08 0 0 0 -.304.094c-.475.156-.624-.272-.941-.518-.052.25-.212.434-.388.607l-.168.224c.195.524-.283.697-.5 1.004-.147.229.092.31.174.45l.024.24-.128.208c-.281.231-.353.579-.49.89-.111.098-.23.164-.382.099" fill="#c89436"/><path d="m23.134 3.79c.035-.267-.444-.536.004-.8.38.134.663.337.576.805-.107.21-.107.381.162.457.244 1.026.413 2.058.2 3.112-.04.2-.015.432-.226.567-.17.093-.267-.033-.376-.123-.208-.169-.051-.317.027-.469-.092-.317-.007-.637.117-.9.135-.286-.15-.217-.19-.335-.071-.149-.02-.302-.01-.453-.042-.155-.15-.319.048-.448.047-.313-.54-.31-.347-.697-.192-.243.17-.475.015-.717" fill="#855113"/><path d="m13.583 5.42c-.161.231-.403.117-.613.145-.106.052-.198-.005-.294-.038-.112-.067-.201-.164-.312-.232-.391-.218-.441-.653-.637-.995-.067-.16-.046-.348-.148-.5l-.082-.129c-.057-.115-.066-.252-.161-.347-.084-.08-.202-.127-.258-.238l-.096-.358c.039-.326.254-.299.483-.244.556.407.85.993 1.123 1.598.232.52.506 1.01.995 1.337" fill="#bb7b22"/><path d="m20.412 5.801-.479.605a1.004 1.004 0 0 0 -.272.332l-.106.107c-.198.117-.335.315-.55.409-.13.02-.183-.082-.253-.157-.338.021-.325-.392-.582-.471.012-.193-.127-.386 0-.579.562.041 1.042-.128 1.413-.566.18.163.242-.003.324-.117.174-.16.301-.423.613-.283l.011.012c.06.253.052.494-.119.708" fill="#c89436"/><path d="m26.314 19.382c-.172-.12-.122-.273-.038-.406.151-.24.078-.463-.084-.632-.34-.357-.087-.779-.166-1.162l.151-.059c.567.99.869 2.049.83 3.196-.133.063-.184.031-.247-.118-.083-.195-.029-.437-.21-.593-.105-.046-.15-.157-.236-.226" fill="#e3c272"/><path d="m20.52 5.081c-.262.014-.367.272-.575.37l-.255-.013c-.018-.392.31-.57.523-.808.442-.492.915-.954 1.375-1.429.058.562-.213.971-.617 1.314-.188.161-.41.29-.45.566" fill="#e3b053"/><path d="m23.474 7.808.376.123-.03.35c-.136.188.079.466-.16.629-.135.009-.208-.083-.287-.168l-.011.01-.062-.121c.004-.086.09-.146.072-.238l-.03-.235z" fill="#7b4408"/><path d="m.965.484c-.161.082-.375.06-.483.243-.158-.353-.134-.387.32-.457z" fill="#bb8025" mask="url(#i)" transform="translate(10.5 2)"/><path d="m18.17 6.047c.025.193.163.386 0 .58-.162-.164-.163-.473-.47-.518l.146-.087c.108.007.216.016.324.025" fill="#c58e30"/><path d="m23.716 29.758c.213-.1.364-.005.495.156l-.133.088c-.146-.042-.366.024-.362-.244" fill="#d29223"/><path d="m19.69 5.439.255.013c-.02.14-.05.297-.22.299-.172.002-.122-.164-.142-.27l.108-.042z" fill="#d6a243"/><path d="m23.608 8.865c.212-.144.005-.439.212-.585l.026.337c-.029.137.02.295-.113.402-.11.004-.17-.034-.125-.154" fill="#845013"/><path d="m23.876 4.252c-.376-.039-.328-.228-.162-.457.055.152.108.305.162.457" fill="#7d460f"/><path d="m23.358 28.568c-.266.167-.316.476-.472.716l-.097.01c-.063-.441.054-.74.57-.726" fill="#e8d396"/><path d="m23.005 29.97c-.634.016-.223-.347-.205-.567.173-.004.203.205.353.236.039.149-.04.248-.148.332" fill="#d9a646"/><path d="m15.22 28.815c-.044-.135-.2-.28-.046-.407.208-.173.267.11.401.172z" fill="#e3c578"/><path d="m23.366 29.861c.116.049.084-.227.233-.107-.103.102.073.61-.353.245-.037-.113.01-.154.12-.137" fill="#e7ce8f"/><path d="m23.366 29.861-.12.139-.24-.03.123-.323.116-.005.121.22z" fill="#dbac51"/><path d="m23.245 29.642-.116.005c-.18.014-.228-.151-.329-.244l-.01-.11.097-.01z" fill="#d29426"/><path d="m13.687 29.877.119.231c-.104-.008-.246.04-.291-.085-.046-.133.09-.125.172-.146" fill="#e5ca83"/><path d="m21.962 19.255c-.052.491-.65.425-.833.841-.14.315-.27.593-.223.935.013.132-.253.2-.083.367l-.141.17-.197.02-.048-.002.013.038a.354.354 0 0 1 .275.194l.043.136.073.18.129.136.026.056c.657.368.66.47.076 1.047-.2.196-.485.356-.417.713-.161.161-.37.21-.582.213-.037 0-.49.004-.104-.258l-.064-.159c-.265.057-.501-.126-.776-.056-.223.057-.528.271-.644-.202-.033-.136-.288-.13-.473-.047-.333.15-.681.266-1.022.396a.558.558 0 0 1 -.354-.116l-.001-.12c.378-.337.63-.848 1.218-.897.192-.175-.197-.259-.068-.422.487-.442.688-.484 1.18-.248-.2-.275-.547-.297-.944.026-.264.214-.512.26-.813.171-.14-.04-.176-.14-.16-.272.235-.637.917-.81 1.328-1.272.259-.292.443-.564.35-.963l.065-.23c.15-.232.308-.459.625-.473l.108-.04c.236-.538.793-.757 1.146-1.174l-.17-.1c-.061-.113-.031-.209.048-.297l.208-.115-.252.13-.197.251c-.825.302-1.64.631-2.43 1.021-.196.098-.27.271-.311.471-.063.29-.16.548-.543.436-.221-.063-.141.12-.153.197-.03.184-.076.378-.252.441-.424.153-.783.45-1.23.55-.11.016-.265-.032-.24.175-.044.255-.16.443-.443.472-.151.003-.267.13-.432.115l.033.092c-.655.515-1.195.522-1.877.073-.341-.225-.84-.215-1.017-.686-.013-.229.152-.279.324-.32.194-.027.385.107.58.01l.068-.113c.115-.043.09-.147.107-.234.242-.369.59-.55 1.023-.577.262-.017.487-.113.68-.294.6-.56.566-.996-.127-1.562-.148-.08-.304-.146-.455-.22-.23-.115-.292-.278-.143-.5.12-.16.317-.216.47-.332l.212-.115c.126-.039.254-.07.386-.093.229-.023.305.168.424.3.086.09.17.18.23.29.127.243.156.003.224-.049l.13-.065a.71.71 0 0 1 .303.057l.152.041c.522.2.949.115 1.44-.214 1.128-.755 2.394-1.158 3.776-1.107.182.07.358.013.536-.02.42.016.842-.194 1.259.016.134.35-.378.304-.358.583-.067.083-.107.182-.158.274-.087.26-.001.55-.137.802-.168.113-.07.328-.175.465-.334-.004-.55.08-.35.471.057.195.108.39.129.592" fill="#e7cf90"/><path d="m22.665 23.516c-.2.244-.376.52-.723.586l-.154-.024c-.09-.315.16-.426.346-.577.17-.081.34-.154.513-.007z" fill="#d49930"/><path d="m24.781 27.168c.175.138.084.173-.045.305-.132.136-.169.215-.305.045.067-.166.116-.352.35-.35" fill="#d4982e"/><path d="m26.074 24.798c.021.173-.036.326-.114.475-.379-.259-.219-.388.114-.475" fill="#dbae50"/><path d="m21.821 24.077.121.024c-.196.032-.304.542-.586.108l.118-.127c.115-.082.23-.092.347-.005" fill="#e2c170"/><path d="m26.314 19.382c.168-.017.218.087.236.226-.073.122-.25.172-.242.35-.245-.195.03-.384.006-.576" fill="#d29325"/><path d="m24.306 22.44c-.09-.014-.22-.02-.122-.152.078-.107.177-.28.35-.097l-.228.25z" fill="#d29528"/><path d="m16.636 23.857c.13.004.27-.022.354.116-.202.214-.265.01-.354-.116" fill="#e3c577"/><path d="m25.586 26.083c.141.15.017.264-.07.474l-.037-.356z" fill="#d19224"/><path d="m11.446 21.14c.352.476.979.473 1.428.84.384.315.949-.037 1.404-.246.189.028.294-.07.353-.237.31-.004.357-.275.475-.472.016-.14.154-.158.233-.236.103-.086.44.198.339-.231-.043-.184.153-.111.248-.117.436-.027.855-.035.79-.677-.015-.16.067-.41.367-.13.178.168.279-.077.344-.277.062-.19-.087-.48.203-.561.483-.136.82-.595 1.335-.608.132-.003.27.028.36-.06.275-.262.526-.552.968-.41.1-.001.175.048.237.12.073.069.428-.228.236.159-.121.245-.25.545-.612.553l-.161.042c.048.793-.897.606-1.113 1.133-.128-.073-.161.026-.184.113l.026.048.039-.038c.129.106.529.12.138.406-.13.094-.266.194-.085.37l-.017.152c-.548-.007-.593.71-1.11.76-.31.032-.312.44-.575.55-.011.385-.278.512-.593.589-.113.077-.225.154-.337.233-.278-.002-.466.263-.747.253a1.324 1.324 0 0 1 -.397-.028c-.174-.06-.343-.07-.5.05l-.154.019c-.092-.022-.21-.123-.23.078-.203.163-.454.158-.69.209-.143.012-.28-.027-.417-.054-.161-.02-.325-.026-.484-.063-.22-.068-.435-.12-.615.09a.623.623 0 0 1 -.361.155c-.186.003-.37-.06-.557-.01a.671.671 0 0 1 -.475-.088c-.307-.211-.65-.19-.995-.151-.43-.102-.816-.326-1.24-.445l-.2-.138-.025-.16c-.001-.39-.372-.4-.59-.567-.192-.09-.388-.175-.545-.326l-.11-.113c-.031-.124-.233-.185-.131-.36-.287-.275-.545-.574-.71-.943h.007c.05-.123.11-.237.236-.302.14-.055.294-.065.432-.13a2.31 2.31 0 0 1 .35-.115c.192-.05.246-.214.308-.37.077-.191.03-.386.022-.58-.023-.18-.187-.344-.058-.54l.242-.017c.34.464.817.753 1.315 1.008.054.018-.086.16.065.113.125-.04.236-.123.364-.165l.162.018c.214.162.176.369.122.565.166-.262-.14-.574.04-.852l.136-.093c.208.003.379.065.457.282l.062.198.085-.211c.197-.08.359-.011.5.123.016.12.053.182.16.056a1.68 1.68 0 0 0 .253-.254l.215-.236a.986.986 0 0 1 .482-.175c.23-.018.462-.011.693-.012.459-.08.994.093 1.33-.396a.554.554 0 0 1 .167-.272c.47.23.634.685.669 1.132.027.33-.818.985-1.191.98-.5-.005-.852.21-1.126.598-.245.198-.545.114-.818.162-.06.12-.33.075-.244.31" fill="#e2c170"/><path d="m11.557 23.509.357-.122c.142-.141.313-.127.488-.092l.221.096a.82.82 0 0 0 .35.092c.163-.012.335.033.477-.091.204-.194.516-.053.725-.232l.22-.01.12-.012c.14-.128.311-.107.48-.091l.46-.003c.075.058.13.125.124.226-.364.466-.836.801-1.364 1.041-.335.153-.645.321-.889.598-.168.118-.155.32-.226.482-.039.181-.06.372-.248.476-.073-.069-.173-.12-.17-.243v-.221l-.073.139c-.076.138-.028.283-.032.425l-.074.127-.097.14c-.166.323-.3.81-.654.81-.346 0-.129-.528-.293-.786-.069-.109-.06-.263-.235-.28-.148-.13.03-.345-.125-.474-.052-.171-.079-.355-.246-.467-.147.071-.099.277-.242.349-.254-.086-.407-.303-.599-.47-.178-.157-.42-.277-.348-.584-.022-.373-.095-.682-.586-.467-.254 0-.306-.243-.45-.376-.168-.146-.4-.223-.495-.451-.069-.135.025-.184.123-.231.48.023.878.272 1.296.468.35.089.72-.03 1.064.111.121.184.306.098.468.109.16-.017.311.144.473.014" fill="#ba7a20"/><path d="m16.519 22.675c.147-.246.508-.278.593-.588.175.252.535.295.656.16.342-.384.84-.353 1.215-.599.183.093.07.255.08.369.013.141.12.497-.292.166-.223-.179-.667.016-.947.26-.11.189.082.31.108.468-.097.152-.301.102-.407.209-.104.104-.6-.086-.291.383.043.066-.355.237-.6.234.025-.284-.28-.175-.387-.311.08-.189.229-.3.389-.399.095-.117.184-.233 0-.349z" fill="#e2c170"/><path d="m6.96 21.732c.214.042.429.083.604.229.15.28.691.236.597.719l-.021-.003c-.077.168-.208.16-.352.107a2.253 2.253 0 0 1 -.828-1.052" fill="#bb7b21"/><path d="m15.58 23.27c-.094-.047-.12-.13-.125-.226.26.047.434-.36.727-.136-.18.155-.309.395-.603.362" fill="#bb7a20"/><path d="m9.664 24.332.348.584c-.257-.11-.642-.146-.348-.584" fill="#e7b455"/><path d="m8.628 23.49c.241.017.31.239.45.376-.352.117-.46-.06-.45-.377" fill="#e5b253"/><path d="m12.515 25.984c-.073-.16-.223-.318-.009-.482.126-.047.194.015.238.124l.108.242-.11-.003c-.064.062-.099.18-.227.119" fill="#d59d40"/><path d="m11.1 25.504c.39.066.064.321.124.474-.043-.158-.38-.238-.124-.474" fill="#e5b253"/><path d="m16.636 22.678.408-.086c-.084.229-.24.337-.408.435v-.35z" fill="#e3ae4f"/><path d="m7.788 22.783.352-.106.116.13-.123.231a.366.366 0 0 1 -.345-.255" fill="#c28328"/><path d="m6.72 21.26c.001.135.262.174.131.357-.14-.01-.28-.041-.316-.196-.029-.132.09-.143.184-.161" fill="#e3b154"/><path d="m12.515 25.984.226-.12c-.02.09-.047.18-.06.27-.016.098.05.25-.136.219l-.042-.26.012-.11z" fill="#e3b051"/><path d="m10.611 25.386c.101-.102-.102-.414.242-.35-.003.17.008.35-.242.35" fill="#d49b3e"/><path d="m13.1 25.39c-.04-.213-.143-.457.226-.48a.629.629 0 0 1 -.226.48" fill="#daa345"/><path d="m5.544 12.998c.064-.346.359-.546.525-.829.158-.27.255-.529.065-.82.185-.307.543-.51.522-.946-.005-.113.186-.108.297-.136.81-.27.862-.22.844.771.016.17.058.335.08.503-.032.35-.033.703-.117 1.047-.236.342.026.763-.174 1.111l-.084.146a.661.661 0 0 1 -.267.197 1.806 1.806 0 0 1 -.394.118l-.242-.025c-.3-.098-.453-.357-.641-.579a2.386 2.386 0 0 1 -.414-.558z" fill="#faedc8"/><path d="m10.402 10.876-.042.104c-.083.242-.254.427-.408.624l-.153.07-.244-.049-.087-.139c-.035-.387-.493-.67-.28-1.12.097-.08.216-.08.22-.082-.026.008-.167-.01-.305.02l-.23.033-.145-.035c-.024-.21-.011-.406.232-.492a1.56 1.56 0 0 1 .588-.112c.407-.017.662.178.784.56.09.198.133.402.07.618" fill="#0c0d08"/><path d="m7.667 10.993-.044-.22c.051-.343.182-.75-.429-.43-.105.053-.185.026-.241-.077.388-.52.831-.534 1.192-.034.089.123.174.25.26.374l.001.076a.625.625 0 0 1 -.144.274.497.497 0 0 1 -.288.142.357.357 0 0 1 -.307-.105" fill="#f0dfab"/><path d="m10.138 9.21c-.047-.302.168-.39.383-.388.238.004.334.258.29.422-.063.248.058.458.04.687.125.143.01.258-.044.381l-.212.133c-.125-.002-.207-.068-.26-.175.198-.22.085-.395-.067-.583-.106-.132-.228-.28-.13-.477" fill="#ba7920"/><path d="m10.138 9.21c.077.136.125.304.236.4.269.238.283.447.007.675l-.13.003c-.183-.169-.212-.525-.575-.476-.135-.136-.348.02-.48-.128z" fill="#ba7a20"/><path d="m11.798 5.801-.001.119c-.206-.015-.404.002-.578.129l-.116.047-.251-.06.12-.353c.069-.069.155-.086.248-.08.2.045.419.034.578.198" fill="#ba7c22"/><path d="m10.852 6.036c.08-.01.16-.132.238.002.065.152-.033.251-.115.355-.086.14-.229.11-.358.122-.05-.223.106-.344.235-.479" fill="#b6741b"/><path d="m8.728 10.302.127-.056.049.063.015.156-.06.145c-.16.184-.054.472-.252.642-.292-.033-.211-.278-.256-.452l.03-.149.024-.044z" fill="#7f7762"/><path d="m12.033 6.036c.039-.092.103-.197.202-.16.175.066.15.243.153.394-.217.072-.172-.254-.355-.234" fill="#e5b152"/><path d="m9.196 9.684c.164.03.354-.043.48.128l-.716-.002z" fill="#110c05"/><path d="m10.975 6.394c.04-.118.077-.237.115-.355l.13.01c-.017.16-.018.333-.245.345" fill="#c79335"/><path d="m10.729 10.278.122-.348.122.002-.004.348-.16.155c-.08-.026-.146-.058-.08-.157" fill="#dfac4d"/><path d="m7.431 18.898c.157.16.062.318 0 .479-.08.126-.183.22-.34.237l-.175.01a.423.423 0 0 1 -.312-.133c-.144-.658.458-.418.715-.593z" fill="#eedda7"/><path d="m6.604 19.49.352.001c.181.285-.108.338-.233.472-.125.17-.317.088-.475.13-.102.026-.131-.025-.122-.116.158-.164.43-.216.478-.487" fill="#efdfad"/><path d="m7.055 17.14-.092-.245.042-.063c.175-.13.377-.124.58-.111l.116.18c-.059.144-.123.287-.015.437.041.114-.006.2-.088.278l-.15.034-.197-.12c-.072-.126-.218-.216-.196-.39" fill="#8f856d"/><path d="m6.795 16.77-.07.009-.146.019c-.136-.131-.219-.304-.348-.442l-.054-.155.01-.085.106-.133c.217-.116.397-.087.522.142.033.216.23.439-.02.646" fill="#f0ebdb"/><path d="m7.431 18.898h-.111c-.219-.405-.28-.84-.24-1.292l.147-.01c.092.117.1.259.118.397.012.107.036.217-.03.317l.117.588" fill="#e3c77e"/><path d="m5.66 17.957v-.119l.708-.826h.238a4.686 4.686 0 0 1 -.946.945" fill="#ddcf9f"/><path d="m6.795 16.77-.094-.71c-.009-.101.047-.14.14-.138a.64.64 0 0 1 .276.283c.025.189-.014.372-.058.554l-.087.135h-.009l-.168-.123z" fill="#a19a8a"/><path d="m6.607 17.01-.24.002-.118-.116.022-.232c.135-.074.236.029.333.112l.12.003c-.005.094-.024.182-.118.232" fill="#eadbaa"/><path d="m6.127 19.978.12.114-.232.225-.12-.354z" fill="#e3c272"/><path d="m7.185 17.595-.106.01c.042-.156-.202-.301-.023-.465l.26.34z" fill="#fdecb5"/><path d="m11.209 5.685-.236-.002c-.49-.162-.09-.473-.12-.712-.006-.523.187-1.043.039-1.57-.048-.17.062-.246.186-.315l.35.116c-.015.203.101.387.079.592a1.15 1.15 0 0 0 -.157.96.61.61 0 0 0 .165.403l.114.204-.044.233c-.112.083-.231.14-.376.09" fill="#c99637"/><path d="m6.604 16.776c-.117.043-.329-.192-.354.12l-.117-.001a.32.32 0 0 1 -.208-.272c.023-.195.065-.37.326-.32.282.036.31.26.353.473" fill="#e5d6a5"/><path d="m6.015 16.658.118.236-.353.118c-.136.053-.218-.018-.288-.12l-.008-.174.115-.129a.353.353 0 0 1 .416.07" fill="#e2d3a3"/><path d="m5.539 16.892.24.12a.728.728 0 0 1 -.353.35l-.12-.115c-.113-.243-.035-.36.233-.355" fill="#dfd1a1"/><path d="m6.015 16.658h-.473l-.12-.002.477-.467c.113-.105.228-.098.343-.004l.01.118a.355.355 0 0 0 -.237.355" fill="#dcce9f"/><path d="m5.421 16.656.121.002v.117a.988.988 0 0 0 -.353.358l-.238-.118c.102-.193.232-.346.47-.359" fill="#e0d1a1"/><path d="m6.242 16.186c-.114 0-.23.003-.343.004l-.237-.238.116-.003c.196-.143.35-.108.46.11z" fill="#f5e4b0"/><path d="m4.958 15.243-.231-.004-.03.002c-.044-.129.049-.18.134-.235h.122c.096-.094.216-.117.344-.117.239-.04.478.066.717 0l.12-.12.15.027a.477.477 0 0 1 .088.317l-.08.234c-.096.084-.201.05-.306.02l-.147-.049a1.246 1.246 0 0 0 -.666-.032z" fill="#efdfac"/><path d="m6.243 14.768h-.11c-.335-.227-.752-.307-1.058-.587.095-.005.182-.024.231-.12.293-.083.484.174.738.22.106.036.204.082.262.185l-.003.243z" fill="#dfd0a1"/><path d="m5.304 15.003-.352.002c.27-.409.607-.272.946-.117-.178.137-.416-.026-.594.115" fill="#dbcd9e"/><path d="m5.304 15.003c.168-.19.394-.087.594-.115h.115c-.208.213-.472.08-.709.115" fill="#e9daa8"/><path d="m6.017 13.472.587.588c-.148.173-.342.212-.557.197-.198-.055-.378-.142-.506-.313.018-.197.166-.393.002-.59.207-.158.322.053.474.118" fill="#faeec9"/><path d="m5.542 13.944c.187.018.35.088.473.233l.002.235c-.288-.016-.451-.28-.71-.35.05-.096.137-.116.235-.118" fill="#e5d7ae"/><path d="m6.017 13.472c-.158-.04-.316-.08-.474-.118l.001-.356c.2.118.358.274.473.474" fill="#e8dcb9"/><path d="m6.239 16.059a.801.801 0 0 0 -.461-.11l-.353-.236.237-.117c.185.183.479-.064.652.167a.275.275 0 0 1 -.06.305l-.015-.01z" fill="#e4d6a5"/><path d="m6.007 15.247.219.115c.096.01.154.063.173.157-.027.093-.09.14-.187.137-.113.021-.228.048-.316-.06l-.001-.12-.04-.11z" fill="#e2d4a5"/><path d="m5.896 15.595h.354l-.012.12c-.233.157-.415.069-.576-.12z" fill="#efdfad"/><path d="m5.896 15.36v.115c-.197 0-.393.003-.59.004l.002-.114c.194-.17.39-.142.588-.004" fill="#f3e3af"/><path d="m5.189 17.133c.006-.229.127-.347.354-.358l-.004.117a.36.36 0 0 0 -.233.355h-.118z" fill="#f4e4b0"/><path d="m5.896 15.36-.588.005c-.127-.014-.27.02-.35-.121l.23-.006c.237-.082.472-.087.708.003l.11.007-.11.113z" fill="#cfc295"/><path d="m21.243 16.178c-.72.084-1.498.029-2.145.294-.629.257-1.313.52-1.845.957-.396.323-.68.334-1.06.09-.077-.05-.19.079-.267-.034-.129-.141-.06-.364-.209-.495-.105-.135-.253-.153-.408-.153l-.14-.055a1.067 1.067 0 0 0 -.433-.286c-.145-.07-.292-.134-.417-.24-.064-.066-.094-.141-.06-.233l.2-.146c.214.028.431.006.615.018-.163-.052-.377.055-.564-.057-.07-.146.075-.201.125-.295.01-.094-.059-.161-.084-.243l.004-.21.024-.047.04-.04c-.288-.001-.607.11-.798-.228-.05-.196-.175-.39-.012-.59.155-.006.31-.014.464-.022a1.29 1.29 0 0 1 .708.01c1.138.379 1.783-.428 2.47-1.067.26-.243.671-.427.628-.922-.016-.176.208-.134.334-.134.352 0 .705.018 1.057.028.2.094.384-.187.586-.023.333.185.745.127 1.065.35l.071.077.094-.034-.164-.16c-.01-.104-.023-.211.107-.258.182-.06.368-.022.552-.032l.174.052c.294-.091.531-.025.512.316-.013.227.148.333.204.504l.005.258c-.03.369.25.66.166 1.095-.059.31.173.726.025 1.11-.113.294.361.335.26.62l-.116.116c-.43.09-.865.129-1.304.112-.153-.1-.309-.031-.464-.003" fill="#faedc9"/><path d="m9.804 11.591.09-.016.26.009c.087.234.016.456-.05.678-.036.119.022.203.12.223.13.026.146-.092.163-.188.117-.12.262-.21.36-.35.338.093.313-.373.585-.38.18-.105.467.063.58-.221.34.107.325-.347.582-.37l.25.015c.32.062.11.238.055.337-.23.422-.256.901-.4 1.345-.067.212 0 .429.152.605.355.008.212-.642.666-.503.179.154.074.473.337.58.009.079.16.145.02.238-.146.13.02.304-.061.443l-.105.125c-.343.175-.66.412-1.061.455-.466-.121-.904-.423-1.423-.23l-.164-.016c-.173-.072-.336-.171-.525-.204-.185-.056-.35-.156-.52-.241a2.204 2.204 0 0 0 -.727-.174c-.3-.017-.6.016-.896-.03l-.165-.07c-.22-.293.066-.401.206-.562.215-.187.432-.374.588-.618l.09-.123c.122-.127.285-.208.383-.36l.094-.116c.133-.165.369-.141.516-.281" fill="#e9c179"/><path d="m13.684 9.694c.342-.793.945-1.17 1.536-.96.546.195.797.69.643 1.223-.052.179-.04.377-.059.566l-.14.063c-.037.099.066.036.101.067.082.077.284.084.136.275-.19.126-.428.069-.627.162-.26.063-.44.36-.757.258l-.24-.117c-.242-.057-.515-.024-.704-.238l-.12-.822c.156-.122.142-.324.231-.477" fill="#e3af50"/><path d="m20.185 8.635.337-.13c.085-.35.512-.526.478-.937l.118-.119.108-.096c-.025-.078.274.043.085-.138-.037-.143-.203-.052-.267-.147-.083-.127-.121-.259-.045-.404.33-.331 1.232-.508 1.609-.316.363.184.359.782-.007 1.126-.382.164-.352.558-.477.866-.14.349-.357.609-.758.656-.128.159-.261.341-.465.109-.148-.168-.313-.123-.486-.096-.178.061-.382.209-.441-.132l.21-.242z" fill="#844f11"/><path d="m22.427 7.463c.345-.137.376-.376.3-.714-.09-.39-.332-.227-.566-.254-.425-.047-.851-.218-1.154.252l-.125-.005c0-.239.202-.305.35-.428.127-.107.39-.244.03-.409-.124-.057-.12-.148-.014-.215.414-.267.658-.663.816-1.194.218.495.397.891.944.833l.099.131c-.04.631.334 1.233.134 1.875-.282.308-.466.7-.821.944-.254.007-.077-.222-.168-.306.072-.166.065-.359.175-.51" fill="#bb7a21"/><path d="m14.518 11.348c.239-.094.39-.35.672-.365.249-.101.514-.012.766-.061.179-.03.303.08.437.166.209.359.67.534.726 1.005-.103.084-.195.195-.353.129a.358.358 0 0 1 -.131-.335c-.048.158.075.292.067.445-.051.227-.243.296-.422.379-.181.045-.343-.012-.503-.09l-.172-.186c-.058-.163-.052-.332-.043-.501l.026-.158.056-.141c.064-.094.099-.178-.075-.181l-.138-.024c-.235-.074-.351.09-.475.236-.185.15-.265.377-.406.559-.262.162.07.367-.038.54-.128.126-.262.09-.397.018-.166-.123-.301-.266-.336-.48-.125-.277.123-.365.26-.51l.224-.215z" fill="#0b0c06"/><path d="m12.496 10.08c-.554-.354-.074-.76-.028-1.088.073-.526.438-1.014.69-1.512.042-.084.147-.155.24-.063.14.135.162.287.07.476-.244.505-.515 1.005-.68 1.538-.072.235-.081.473-.292.648" fill="#ba7920"/><path d="m23.244 10.283c.155-.066.154-.364.383-.289.084.027.173.178.18.277.024.336-.357.114-.449.306.295.234.387.851.158 1.121-.113.135-.342.093-.295-.022.148-.36-.138-.384-.303-.497-.368-.252-.218-.689-.38-1.012.14-.08.251-.007.363.065.064.358.254-.135.343.051" fill="#bb7c22"/><path d="m11.217 4.828c.008-.359-.28-.782.22-1.038l.135-.026c.148.113.045.305.137.435l.09.064c.323.255.248.803.704.961.045.147-.032.251-.124.35l-.11.11-.352-.124c-.137-.045-.28-.082-.363-.219l-.122-.134c-.032-.149-.068-.295-.215-.379" fill="#845011"/><path d="m23.241 7.335c-.258-.17-.054-.45-.16-.693-.152-.342-.059-.792-.069-1.196.363.034.167.493.45.59.171.11.403.143.271.477-.103.26-.095.565-.232.826z" fill="#c79335"/><path d="m18.752 7.097.224.113c.402.103.361-.373.611-.468h.005l.215-.024c.132.608-.187 1.189-.104 1.793-.191-.556-.914-.754-.951-1.414" fill="#bb7a20"/><path d="m13.81 14.186.111.584c-.062.09-.025.226-.134.294-.262.093-.51.244-.807.177l-.082-.228c.048-.232.272-.238.39-.333-.122.022-.25.134-.407.162l-.15-.044c-.14-.252.032-.357.216-.445.176-.084.356-.158.502-.292l.23.004.13.12z" fill="#e5be78"/><path d="m14.262 11.578-.14.227c-.216.126-.449.232-.554.485-.383.052-.676-.157-.63-.492.042-.31.39-.383.717-.278.194.063.393.173.607.058" fill="#ba791f"/><path d="m22.31 8.044.11.235c-.135.356-.366.608-.695.825-.247.163-.24-.089-.36-.108a2.31 2.31 0 0 0 .704-.716c.029-.13.023-.297.24-.236" fill="#bb7b21"/><path d="m10.153 11.584-.26-.009c.096-.245.198-.485.467-.595.1.05.306-.069.288.161-.022.295-.214.424-.495.443" fill="#daaf61"/><path d="m22.888 10.284-.35-.117c.044-.266-.045-.663.47-.417.327.155.128.277.006.418.024.11-.01.156-.126.116" fill="#ba7920"/><path d="m16.393 11.088c-.14.063-.221-.056-.323-.104l-.141-.122c-.14-.25-.434-.065-.656-.234.175-.167.366-.084.53-.105.174.212.52.246.59.565" fill="#edb555"/><path d="m16.753 12.17.365-.077c-.126.337-.337.585-.7.677l-.144.021-.029-.148c.108-.142.343-.142.392-.35z" fill="#706f5e"/><path d="m15.191 12.983-.295.007-.083-.011c-.136-.095-.168-.217-.1-.367a.348.348 0 0 1 .37-.15l.148.082.062.058.082.146c.016.138-.067.2-.184.235" fill="#cbc2b4"/><path d="m10.252 10.288.129-.003.23.115c.086.052.14.128.167.224l-.047.127-.329.125z" fill="#ce8522"/><path d="m14.896 12.99c-.312.371-.586.104-.866-.053l.145-.063c.262-.13.481.002.702.115h.019z" fill="#d09837"/><path d="m13.573 10.992c.272-.032.478.133.704.238-.286.072-.62.285-.704-.238" fill="#e6b354"/><path d="m13.568 12.29c-.038-.416.224-.489.554-.485.02.258-.386.223-.344.5z" fill="#8a5926"/><path d="m11.912 11.346c.037.679-.382.16-.58.22.157-.167.355-.228.58-.22" fill="#c99537"/><path d="m14.877 12.99c-.253.078-.46-.126-.703-.117l-.06-.09c.138-.032.305.013.398-.146-.046-.098.018-.125.093-.143l.14.152.133.343" fill="#1f150a"/><path d="m14.981 14.174c-.235-.051-.474.155-.708-.011-.002-.071-.147-.214.063-.182.221.034.47-.001.645.193" fill="#c6902f"/><path d="m16.28 12.998c-.318.167-.636.338-.957.007.197-.195.443-.164.686-.149a.409.409 0 0 1 .271.142" fill="#705f46"/><path d="m20.057 12.055c-.2-.086-.38.337-.587.023.194-.04.378-.37.587-.023" fill="#faf2d2"/><path d="m11.209 5.685.353-.12c.133-.072.179.035.237.116l.043.087-.044.033c-.198-.03-.423.078-.589-.116" fill="#b8761c"/><path d="m13.554 13.355c-.47.014-.311-.337-.337-.58l-.007-.03c.3-.018.152.254.24.372.094.053.113.139.104.238" fill="#e6bd72"/><path d="m16.034 12.995-.71.01-.132-.023.13-.187c.16-.154.338-.05.51-.039.106.046.25.063.202.24" fill="#7d7c69"/><path d="m16.034 12.995-.245-.134c.083-.286.274-.16.443-.115l.186.023c-.015.095-.032.19-.138.23z" fill="#635f4d"/><path d="m13.45 13.116-.24-.37c.017-.098.04-.193.167-.107.193.132.19.297.072.477" fill="#c59130"/><path d="m23.608 8.865.125.154-.14.146c-.183-.07-.209-.249-.22-.424.095.008.185.027.235.124" fill="#a97425"/><path d="m23.357 8.643.005.109-.236.236h-.114c-.232-.204.078-.225.116-.338z" fill="#ca9738"/><path d="m23.012 8.987h.113c-.035.207-.06.421-.382.468-.012-.232.223-.303.269-.468" fill="#b6721a"/><path d="m21.126 12.522-.005-.117.001-.115c.187.003.376.003.469.213-.15.133-.307.103-.465.019" fill="#dcb871"/><path d="m12.27 5.685v-.12c.13-.145.322-.05.472-.12l.228.12c-.201.224-.468.073-.7.12" fill="#8a5514"/><path d="m23.343 8.157.117.227c-.095.101-.197.112-.308.025-.121-.059-.071-.144-.033-.225.06-.125.145-.056.224-.027" fill="#cd9938"/><path d="m23.151 8.41c.104-.01.206-.018.31-.026.16.164-.128.15-.105.258l-.229.007c-.152-.096-.017-.163.024-.24" fill="#79430b"/><path d="m13.684 9.694c-.02.187.08.43-.23.477a.634.634 0 0 1 .23-.477" fill="#d4a142"/><path d="m10.731 10.751v-.104a.31.31 0 0 1 .12-.247l.119-.12c-.06.166.149.468-.239.471" fill="#c59132"/><path d="m10.747 11.947c-.029.212-.147.33-.36.35-.004-.245.196-.279.36-.35" fill="#d6a752"/><path d="m13.678 14.065-.229-.004c.02-.162-.062-.351.126-.468.034.158.07.315.103.472" fill="#ddb265"/><path d="m19.974 8.877c.104.19.294.09.44.132l-.001.097a.474.474 0 0 1 -.467.001c-.13-.093-.127-.17.028-.23" fill="#c28f33"/><path d="m21.816 12.046c-.195-.006-.392-.01-.587-.017.184-.16.401-.069.606-.084z" fill="#debb78"/><path d="m11.799 5.68-.237-.115-.007-.224.363.22-.12.12z" fill="#ba7c22"/><path d="m12.745 10.991c-.085.02-.175.125-.25-.016l.205-.248z" fill="#edc680"/><path d="m22.888 10.284.126-.116c.096.001.18.022.23.115-.12-.035-.237.365-.356.001" fill="#ca9939"/><path d="m19.945 9.108.468-.001c-.156.23-.312.125-.468 0" fill="#d39f3b"/><path d="m22.676 13.128c-.14-.083-.142-.169-.005-.258.34.08.07.171.005.258" fill="#fcf3d3"/><path d="m21.816 12.046.02-.1.12.104z" fill="#f2dfb2"/><path d="m22.648 23.493-.468.121c-.067-.063-.186-.017-.235-.112.078-.158.154-.317.232-.474.009-.252.13-.469.207-.71-.105.048-.195.137-.32.12-.096-.174-.32-.255-.355-.474.043-.17.317-.226.233-.46-.093-.025-.233-.04-.056-.153a5.143 5.143 0 0 0 1.729-1.83c.317-.555.985-.675 1.279-1.215l.236.005c-.104.705-.543 1.245-.915 1.816-.078.121-.306.198-.177.375.334.453.04.828-.163 1.17-.372.628-.814 1.216-1.227 1.821" fill="#ba7a20"/><path d="m20.651 21.979c.006-.338-.363-.171-.473-.352.125-.191.356.009.495-.132l.092-.11c.105-.106.225-.127.361-.064l-.143.647-.097.078-.129.002-.106-.07z" fill="#ead8a0"/><path d="m22.064 22.439.485-.512c.024.486-.227.776-.372 1.102-.2-.165.102-.428-.113-.59" fill="#d79d32"/><path d="m21.944 23.502c.095.003.184.02.235.112-.182.106-.33.238-.358.463l-.347.005c.036-.29.257-.432.47-.58" fill="#b8771e"/><path d="m22.429 16.776.225-.124c-.01.394-.017.787-.027 1.18l-.043.02-.051-.022c-.203-.238-.056-.54-.148-.8-.023-.09-.036-.18.044-.254" fill="#d39528"/><path d="m22.424 17.007c.213.251.07.549.108.823-.246-.005-.194.279-.35.362.022-.164-.05-.35.12-.476.153-.217-.036-.493.122-.709" fill="#dfb766"/><path d="m21.126 21.32-.36.064c-.152-.197.047-.253.14-.352.201 0 .21.143.22.288" fill="#ce8812"/><path d="m25.13 18.312-.236-.005c.117-.175.13-.382.236-.58z" fill="#c38425"/><path d="m21.941 21.503c.233.312-.109.331-.233.461-.164-.276.224-.273.233-.46" fill="#ce922c"/><path d="m21.962 19.255a.858.858 0 0 1 -.128-.592c.094.187.299.35.128.592" fill="#daab4f"/><path d="m20.997 22.081.122.127-.136.015-.018-.073z" fill="#d08e1b"/><path d="m21.36 21.146.058-.063-.012.038-.054.018z" fill="#f0e9bf"/><path d="m21.353 21.139-.055.062.01-.036.052-.02z" fill="#eee4b6"/><path d="m20.885 21.968h.099l.013.113-.004-.005-.055.055-.072-.029z" fill="#ead79e"/><path d="m21.002 22.203.117.005-.123.118.004.002-.029-.084z" fill="#dfb969"/><path d="m21 7.568c.252.182.25.38-.013.523-.194.107-.299.29-.466.414-.003-.395.114-.73.479-.937" fill="#b0721e"/><path d="m23.461 6.035c-.202.053-.375.072-.337-.233.016-.129.017-.267-.112-.356l-.004-.117c.053-.097.141-.117.241-.118.081.15.105.351.334.366z" fill="#cc9837"/><path d="m20.412 5.801c.095-.227-.028-.49.12-.708.098-.024.265-.106.212.093-.059.221-.06.5-.332.615" fill="#bb7d23"/><path d="m20.882 6.742.124.005.114.346.028.08-.03.04c-.233-.079-.507-.137-.236-.47" fill="#9e6419"/><path d="m23.134 3.79c.257.243-.092.475-.015.716-.26-.244.013-.478.015-.717" fill="#a77324"/><path d="m23.583 5.577c-.383.126-.318-.156-.334-.366l.217-.008c-.124.176.073.251.117.374" fill="#bb7a21"/><path d="m19.807 6.718-.215.023c.009-.219.134-.319.342-.335z" fill="#6c3a08"/><path d="m21.12 7.213v-.12c.128-.057.242-.086.251.115l-.138.237-.116.004.002-.236z" fill="#ba791f"/><path d="m12.742 5.446c-.123.176-.31.1-.473.118l.235-.34.238.221z" fill="#7c470e"/><path d="m11.56 3.792-.123-.002c.13-.198-.298-.388-.01-.589.195.115.115.31.134.473l.03.08z" fill="#925c17"/><path d="m11.56 3.792v-.118l.112.005c.104.194.092.39.008.586-.26-.102-.06-.32-.12-.473" fill="#7b470e"/><path d="m11.68 4.265-.008-.586c.21.158.095.387.128.584z" fill="#a5691a"/><path d="m19.587 6.741c-.077.171-.164.34-.23.515-.195.53-.266.071-.381-.046.173-.198.302-.449.61-.469" fill="#7e490e"/><path d="m14.156 17.96-.007.358c-.105.041-.205.004-.306-.018-.333-.038-.63.138-.955.156-.27.002-.546.048-.806-.074l-.084-.149c.093-.184.285-.177.446-.23.181-.045.368.023.548-.027.218-.02.09-.129.051-.214-.118-.346-.41-.347-.7-.354l-.158-.188a.317.317 0 0 1 .077-.249.639.639 0 0 1 .344-.103c.31-.01.596.056.84.265a.373.373 0 0 1 .123.231c-.04.132-.19.274.066.361.18.06.348.155.521.234" fill="#daba6c"/><path d="m15.222 16.777.114-.001c.126.065.294.006.399.136.076.183.239.356.07.569l-.23-.115c-.222-.091-.452-.148-.696-.112-.176-.063-.106-.38-.366-.354-.192-.093-.322-.23-.324-.457.015-.126.087-.207.2-.256l.358.235c.117.173.302.256.475.355" fill="#f9edcb"/><path d="m14.274 16.417.239.482c-.083.14-.22.105-.345.11l-.266-.098-.015-.14c.061-.1.138-.193.201-.293l.186-.06z" fill="#f6e7be"/><path d="m11.446 21.14c-.225-.121-.225-.121.115-.351.277-.088.553-.095.829.003l-.003.115a.69.69 0 0 1 -.59 0l-.351.234" fill="#e4c87f"/><path d="m14.63 21.497c-.046.142.113.313-.02.411-.044.032-.218-.11-.333-.175l-.372-.026z" fill="#e8d196"/><path d="m17.932 22.911c-.332-.088-.284-.264-.108-.469l.192.207c.06.052.233.005.166.154z" fill="#e3c373"/><path d="m14.879 17.253c.27-.207.504-.172.697.112h-.117c-.1.1-.201.191-.358.116z" fill="#e0c788"/><path d="m20.414 17.485c.203-.1.405-.2.685-.336-.059.332-.292.353-.454.449-.064-.065-.182-.02-.23-.113" fill="#e2c170"/><path d="m12.39 20.792-.829-.003c.29-.239.633-.065.946-.12.101.174-.068.091-.117.123" fill="#e1bf6a"/><path d="m15.101 17.48.358-.115c-.008.172.011.398-.2.426-.162.02-.066-.221-.158-.31" fill="#edd8a2"/><path d="m15.805 17.48-.108-.585h.112c.275.15.167.376.117.59l-.121-.004z" fill="#ebd59c"/><path d="m18.76 19.848c-.015.11-.016.23-.225.286.07-.198.093-.39.196-.517.1-.126.132.022.149.108z" fill="#e7cf91"/><path d="m22.424 17.007c-.051.234.1.504-.122.71.053-.313-.128-.656.127-.941z" fill="#ead8a0"/><path d="m20.674 21.494c-.134.162-.326.104-.495.133.036-.523.35-.009.495-.133" fill="#d9a84b"/><path d="m15.338 20.79-.232.234-.15-.1c.066-.17.24-.128.382-.135" fill="#e5cb85"/><path d="m11.798 20.907h.589c-.196.21-.393.15-.59 0" fill="#e8d196"/><path d="m20.414 17.485c.095.002.182.02.231.113-.09.055-.11.144-.115.24-.097-.002-.186-.024-.237-.12z" fill="#e1be69"/><path d="m13.569 17.364-.115-.115c.036-.132.134-.193.258-.222.126-.018.238.007.328.104z" fill="#ead192"/><path d="m14.04 17.13c-.12 0-.238-.002-.356-.004l-.036-.128.153-.15.127.042.24.118z" fill="#d8c388"/><path d="m21.243 16.178c.156-.156.311-.156.464.003-.154.016-.31.128-.464-.003" fill="#fdf2d2"/><path d="m21.002 22.203-.002.125c-.093-.004-.185-.012-.226-.116l.106-.129.113-.007z" fill="#d7a443"/><path d="m20.88 22.083-.105.128-.125-.129.118-.05.117.055z" fill="#ede2b2"/><path d="m20.766 22.086-.06.002-.056-.006.002-.103.114-.01.03.078z" fill="#d8a342"/><path d="m8.844 19.373c-.523-.238-1.105-.403-1.305-1.045l-.03-.097.023-.049c.247-.068.402.118.571.228.413.273.905.312 1.348.49.084.166.026.277-.136.344l.003.005c-.144.098-.293.17-.474.124" fill="#b6985f"/><path d="m12.98 18.322c.32-.06.617-.307.97-.131-.26.508-.8.375-1.212.527-.275.026-.554-.044-.825.044l-.468.165-.079-.026c-.117-.087-.206-.19-.184-.352l.134-.102c.254-.063.506-.146.773-.078.296-.024.598.058.89-.047" fill="#1b1815"/><path d="m12.75 18.671c.4-.158.852-.187 1.2-.48l.2.127c-.356.531-.928.37-1.425.453l-.015-.075z" fill="#ba9c61"/><path d="m10.38 19.142c-.027.239.062.489-.08.77-.285-.306-.028-.858-.51-1.01.116-.132.26-.128.415-.091l.203.168z" fill="#dcbc6c"/><path d="m10.38 19.142-.01-.101c.084-.13.216-.155.354-.17.239.005.488-.01.604.27a.373.373 0 0 1 -.237.228l-.22-.012z" fill="#b0935c"/><path d="m9.315 19.244.129-.328.045-.056.138.002.04.06v1.025c-.166-.289-.065-.604-.352-.703" fill="#d8b86a"/><path d="m10.616 23.386c-.357-.017-.732.146-1.064-.112.375-.154.728-.103 1.064.112" fill="#cfa04c"/><path d="m8.16 22.68c-.024-.385-.512-.384-.597-.72.2.107.4.214.6.319.262.136.102.268-.002.4" fill="#e3b153"/><path d="m7.077 19.49.353-.114c-.03.221.026.51-.354.467-.088-.119-.08-.236.001-.353" fill="#e1be69"/><path d="m12.504 23.375-.59.012c.13-.374.356-.274.592-.118l.029.072z" fill="#e7c978"/><path d="m11.328 19.14c-.183-.11-.39-.108-.592-.127l-.001-.154c.248-.222.48-.09.714.032l-.003.037c.013.1-.047.159-.118.213" fill="#55483e"/><path d="m13.45 23.392c-.094.207-.272.24-.472.229l-.054-.207.174-.143.352.12" fill="#c6892f"/><path d="m8.844 19.373.474-.123c-.13.268-.347.28-.593.195l.014-.042z" fill="#e9c872"/><path d="m14.995 23.047c-.138.15-.314.097-.48.092.1-.34.28-.268.48-.092" fill="#e7ca7a"/><path d="m13.098 23.27-.122.116c-.1.088-.2.18-.35.12l-.122-.131.003-.106c.197 0 .394 0 .59.002" fill="#dead51"/><path d="m12.75 18.671-.024.1-.814-.009c.264-.166.556-.08.837-.09" fill="#524530"/><path d="m7.545 18.205-.006.122-.226-.018-.103-.242c.075-.088.022-.312.252-.236.093.11.184.221.083.374" fill="#b99a5e"/><path d="m11.557 23.509c-.162.16-.32.159-.473-.014.162-.161.315.008.473.014" fill="#b47017"/><path d="m7.077 19.49v.353l-.354.12c.064-.164.251-.268.233-.472h.121z" fill="#eddba4"/><path d="m12.23 19.083c.144-.07.26-.16.433-.12-.102.21-.248.193-.433.12" fill="#e8c672"/><path d="m10.253 18.939-.462-.036-.124.018.021-.055c.012-.183.154-.183.282-.203.154.03.348.02.283.276" fill="#685844"/><path d="m10.872 19.357c.075-.022.152-.104.22.012-.09.13-.242.175-.341.086l.12-.098z" fill="#e9c772"/><path d="m14.394 23.15c-.067.123-.145.03-.219.01l-.144-.066c.141-.111.26-.07.363.056" fill="#e7c775"/><path d="m12.745 25.625-.238-.124.259-.436c-.012.274.172.412-.021.56" fill="#bd7d23"/><path d="m12.626 23.506.35-.12.001.234c-.127-.004-.267.023-.351-.114" fill="#b47118"/><path d="m9.78 13.832.47.232c.215.062.39.18.533.35l.035.162c-.064.394-.248.737-.45 1.073a.717.717 0 0 1 -.26.205 7.13 7.13 0 0 0 -.966.707c-.123.087-.258.156-.384.237-.102.04-.194.001-.287-.03-.167-.043-.35-.033-.491-.156l-.184-.144c-.29-.253-.543-.532-.683-.898-.026-.138-.018-.266.107-.355l.126-.028-.107-.014a.358.358 0 0 1 -.24-.19.777.777 0 0 1 -.066-.263c-.02-.296.014-.574.272-.772l.226-.122c.386.143.805-.089 1.187.101.345.168.652.085.939-.139z" fill="#030302"/><path d="m8.847 12.407.002.1c-.208.133-.34.366-.589.447-.237-.022-.442-.103-.576-.314-.098-.402.018-.786.096-1.173-.062-.182.06-.247.194-.303a.518.518 0 0 1 .318.066l.13.095.185.25c.17.26.526.15.718.363l-.006.112c-.16.117-.383.15-.472.357" fill="#e4b153"/><path d="m9.78 13.832-.167.006c-.3.231-.65.224-1.001.221-.246-.052-.478-.12-.743-.029-.152.053-.415.122-.438-.204l.002-.11c.14-.084.249-.267.455-.15l.136.028c.35.096.7.078 1.05.008.252.027.496.078.706.23" fill="#6c655c"/><path d="m7.888 13.567-.455.148c.118-.231.161-.466.057-.715-.084-.2-.048-.335.194-.36l.574.256v.224c-.06.2-.344.218-.37.447" fill="#f0e0ad"/><path d="m6.017 14.411-.002-.233.59-.119.236.001.048.222c-.058.1-.152.152-.248.203-.123.052-.243.122-.383.058-.05-.1-.14-.126-.241-.132" fill="#f1e1ad"/><path d="m6.827 14.285.014-.225.364-.112c-.025.278-.213.527-.152.821l-.141-.02c-.093-.143-.1-.302-.085-.464" fill="#edece8"/><path d="m8.014 11.219a.428.428 0 0 0 -.233.248c-.16-.13-.1-.31-.114-.474l.359.006z" fill="#eacd89"/><path d="m9.325 11.939c-.328-.002-.704.107-.833-.356l.146-.163c.13-.015.255.02.383.03.18.029.366.035.536.11l.246.03c-.012.32-.342.2-.478.349" fill="#4f524a"/><path d="m9.557 11.56c-.197.135-.403-.018-.604.02-.258-.322-.3-.67-.127-1.043l.023-.158.114-.122.081-.016.1.118c-.024.429.132.79.411 1.106l.002.096z" fill="#111113"/><path d="m9.555 11.465c-.645-.191-.415-.742-.48-1.171.126-.051.158.005.134.122-.05.404.446.628.346 1.049" fill="#1c1c1f"/><path d="m9.209 10.416-.134-.122-.091-.009-.053-.072.031-.047h.729c-.11.243-.305.228-.482.25" fill="#1d1d22"/><path d="m8.962 10.166.022.12-.026.002-.048.033-.056-.01v-.065z" fill="#33250f"/><path d="m8.36 11.355-.102-.011c-.118-.16-.1-.321-.013-.485.023-.084.033-.177.137-.208l.009.13c.042.194.106.389-.031.574" fill="#a8956d"/><path d="m8.245 10.859.014.485-.245-.125.012-.22z" fill="#f0c167"/><path d="m10.85 10.4c0 .103-.024.192-.118.248-.092-.058-.113-.148-.122-.248l.118-.122z" fill="#d7a143"/><path d="m8.826 10.536.127 1.043-.326-.143-.036-.202c.12-.219-.203-.587.235-.698" fill="#fdfcf8"/><path d="m8.59 11.235.036.202-.135.146-.13-.228.03-.574c.18.1.022.35.2.454" fill="#41473e"/><path d="m8.854 10.31.104-.021-.11.09z" fill="#f5ecdf"/><path d="m7.545 18.205-.123-.365.028-.227.1-.012c.71.013 1.36.216 1.951.61.11.235.118.461-.07.665l.013.04c-.732.03-1.332-.299-1.899-.71" fill="#5a4d40"/><path d="m9.437 18.192c-.639-.165-1.28-.326-1.887-.591-.003-.108.075-.162.15-.216.101-.145.247-.136.397-.12.187.055.379.079.574.076l.164.01a.899.899 0 0 1 .373.143l.194.116c.154.08.327.096.49.148.093.035.181.08.269.124.132.069.265.133.409.174l.216.083c.142.133.421.123.426.402l-.006.002c-.134.252-.332.134-.517.09-.264-.082-.536-.14-.799-.226-.159-.056-.331-.083-.453-.215" fill="#0a0907"/><path d="m8.087 17.38-.387.005c-.125-.029-.3-.03-.312-.183-.01-.16.15-.242.282-.312l.15-.029c.274.197.593.194.91.2.21.088.25.223.116.41l-.12.002c-.202-.11-.436.003-.639-.094" fill="#978e78"/><path d="m7.78 16.885-.109.005-.122-.114-.043-.226c.1-.13.237-.127.38-.107l.138.088c.07.103.008.181-.05.261z" fill="#6d6755"/><path d="m7.45 17.614-.027.226-.213.227-.025-.473.132-.114.134.133z" fill="#b9995c"/><path d="m7.558 16.542-.009.233-.577.12-.01-.124c.1-.174.26-.257.452-.283z" fill="#9d947e"/><path d="m6.238 15.716.013-.12.1-.116c.31-.157.41.069.518.284l-.031.166-.136.13c-.152-.111-.298.012-.448.008z" fill="#f5f5f6"/><path d="m7.434 16.541a41.1 41.1 0 0 0 -.472.23.98.98 0 0 1 .107-.593c-.008-.119.058-.148.16-.132.18.12.352.241.205.495" fill="#857c69"/><path d="m7.19 16.062-.121.116c-.17.003-.221-.102-.232-.248l.005-.097.142-.04c.114.056.255.09.207.269" fill="#c2bdb0"/><path d="m11.217 4.828c.436-.08.333.146.215.38-.16-.077-.235-.202-.215-.38" fill="#c79335"/><path d="m6.948 15.824-.106.008c-.163-.119-.217-.389-.49-.353l-.126-.117.026-.239c.101-.113.278-.098.374-.22l.118-.088.213-.046h.095l.033.212c.113.24.051.48-.006.717l-.13.126z" fill="#f1eeea"/><path d="m6.724 14.888c-.007.38-.256.273-.472.235l-.008-.355.02.012c.183-.084.33-.031.46.108" fill="#f6f6f5"/><path d="m5.896 15.24c-.236 0-.471-.002-.707-.003.236-.172.472-.176.707.003" fill="#e9daa8"/><path d="m6.724 14.888a.786.786 0 0 1 -.46-.108l-.006-.237.344-.132c.224.086.35.22.237.475z" fill="#f2f2ef"/><path d="m13.803 15.006c.008-.095.023-.186.119-.236.28.245.63.035.953.151l-.245.202c-.197.15-.442.217-.628.385-.238-.1-.33-.258-.2-.502" fill="#f0e5c3"/><path d="m14.032 15.49c-.02-.48.337-.345.598-.367v.237c-.062.219.21.104.236.235-.085.14-.225.114-.355.12-.181.143-.352.152-.506-.041z" fill="#fbefcc"/><path d="m14.393 15.95-.121.118c-.095.115-.108.278-.225.382-.228.01-.266-.219-.405-.32-.072-.085-.125-.177-.121-.293.034-.14.1-.253.245-.304l.149.023c.028.29.372.198.478.393" fill="#efdfb5"/><path d="m14.393 15.95c-.156-.115-.525.061-.47-.344l.104-.03c.12.187.314.123.485.138.189.223.477.048.695.235h-.814z" fill="#f1e4c1"/><path d="m14.866 15.595h-.663c.075-.327.29-.193.427-.235.153.004.232.082.236.235" fill="#f7eac7"/><path d="m15.222 16.777c-.315.092-.523.039-.475-.355.25-.006.464.04.475.355" fill="#e8d299"/><path d="m19.559 12.808c-.217.238-.391.224-.612.074.187-.19.367-.11.612-.074" fill="#ebd69d"/><path d="m14.034 16.424c.006-.167-.009-.349.237-.355l.118.118-.116.23-.116.117c-.109.038-.14-.007-.123-.11" fill="#e0c786"/><path d="m15.809 16.896-.112-.001c-.132-.006-.273.02-.361-.12.194-.1.367-.12.473.12" fill="#f5e7be"/><path d="m21.126 12.522c.155-.006.311-.012.465-.02-.149.16-.301.245-.465.02" fill="#fefbe0"/><path d="m10.718 14.54-.035-.106.054-.123.105.014c.607-.06.881.435 1.26.756l.038.244-.047.158-.18.155c-.144.026-.306-.01-.415.128l-.192.135-.24.01c-.144-.052-.212-.167-.259-.3-.1-.35-.002-.718-.089-1.07" fill="#f5f4f1"/><path d="m12.047 15.126c-.43-.226-.7-.688-1.205-.8.576-.379 1.052-.02 1.546.206l.047.136c-.058.17-.125.333-.25.466z" fill="#efdfac"/><path d="m12.39 14.649-.001-.116c.357-.148.669-.4 1.06-.472-.048.424-.715.217-.71.695-.154.086-.258.013-.348-.107" fill="#dbb673"/><path d="m9.075 13.602c-.352.162-.702.174-1.05-.008.35-.053.7-.051 1.05.008" fill="#565457"/><path d="m8.257 13.12v-.225c.225-.089.319-.376.592-.389-.137.261-.351.451-.592.613" fill="#f0e4b6"/><path d="m8.847 12.407c.022-.297.216-.367.472-.357-.074.23-.304.253-.472.357" fill="#efe0ad"/><path d="m10.737 14.312-.053.122c-.145-.123-.29-.246-.433-.37.213-.017.396.023.486.248" fill="#fee891"/><path d="m15.929 10.863.14.122c-.292-.002-.586-.002-.88-.002.223-.187.487-.12.74-.12" fill="#0f0a06"/><path d="m22.31 8.044-.241.236c-.175-.36.283-.528.262-.842l.05-.01.046.034c.008.204-.02.4-.117.582" fill="#804c10"/><path d="m21.233 7.446c.008-.103.04-.188.138-.236.11-.026.256-.189.314.026.057.202-.09.19-.238.163l-.214.046z" fill="#a4681a"/><path d="m14.745 12.647-.135-.116c-.147-.086-.21-.197-.115-.36.094-.22.136-.477.398-.584.156-.024.247.059.308.19.064.26.106.52-.081.755z" fill="#ddd5ca"/><path d="m15.69 12.411.117.117c-.167.267-.213.266-.536-.012-.006-.277-.247-.634.252-.742.236.164.005.452.168.637" fill="#1d1d22"/><path d="m15.345 12.52c.153.067.304.227.462.009l.438.114-.012.104-.444.115-.467-.067-.097-.153z" fill="#0d0d08"/><path d="m15.345 12.52-.12.122-.018.012c-.094-.285-.022-.578-.045-.867l.022-.193c.204-.156.36-.068.502.1l.006.125-.121.003c-.425.12-.154.465-.226.698" fill="#030306"/><path d="m15.229 11.607-.01.094-.06.028-.267-.142c.129-.22.256-.44.563-.237.07.215-.197.13-.226.257" fill="#dbd8d0"/><path d="m14.495 12.171.115.36-.097.106c-.117-.075-.322-.073-.31-.264.01-.147.153-.192.292-.202" fill="#1f1e17"/><path d="m15.229 11.607.226-.257.098.005c.134.08.275.157.127.342l.005-.003c-.17.064-.279-.193-.457-.087" fill="#cececf"/><path d="m15.68 11.697c.087-.162-.04-.245-.127-.342h.384a.564.564 0 0 1 -.257.341m1.073.474-.116.123c-.021-.13-.234-.276-.032-.376.099-.05.134.142.148.253m-1.182-.348.12-.003v.592c-.194-.165-.088-.391-.12-.59" fill="#0d0d08"/><path d="m14.026 15.575-.103.031-.122-.015c-.202-.075-.383.076-.58.054l-.2-.107-.075-.224.035-.072c.256-.14.512-.28.821-.237a.853.853 0 0 0 .23.484z" fill="#e1bb77"/><path d="m12.39 14.649.349.108.108.022.068.22c-.01.09-.053.153-.143.18-.208 0-.428.126-.62-.054.019-.19.083-.356.239-.476" fill="#eedfac"/><path d="m12.868 15.001-.02-.224c.25-.124.492-.277.817-.28-.12.374-.554.237-.692.515l-.105-.01z" fill="#ebc27a"/><path d="m12.868 15.001.105.011.008.23h-.01c-.132.22-.258.174-.38-.01.006-.094.034-.164.15-.11l.127-.12z" fill="#d8ca9e"/><path d="m15.158 11.729.062-.028-.013.953-.088-.122c-.012-.27-.065-.54.04-.803" fill="#575656"/><path d="m20.766 22.086v-.117h.119v.117z" fill="#dfb969"/><path d="m11.212 18.54c-.104-.193-.434-.063-.483-.336-.087-.207.075-.379.08-.573l.11-.107.151-.039.158-.008.158.011.214.098c.091.154.204.29.356.392l.077.214.004.13.022.072-.05.015c-.26.076-.51.213-.797.131" fill="#e0bf6f"/><path d="m13.095 17.72c.021.148.314.05.246.242-.052.146-.23.105-.362.112-.162.093-.26-.148-.419-.08l-.132-.06c-.094-.106-.169-.236-.328-.264a.657.657 0 0 1 -.277-.118l-.063-.14c.041-.148.141-.227.29-.252l.22.088.117.118c.295-.001.54.103.708.354" fill="#e0c070"/><path d="m13.685 17.012-.002.114-.229.123c-.26-.133-.518-.284-.83-.237-.1-.144-.04-.233.097-.298.352 0 .693.035.964.298" fill="#e3c270"/><path d="m13.095 17.72-.708-.354c.398-.208.625-.07.708.354" fill="#d5b669"/><path d="m12.74 16.776c-.093.052-.115.139-.117.236h-.353c-.123-.05-.18-.132-.143-.267.084-.137.212-.19.365-.198l.246.075z" fill="#d5b76b"/><path d="m12.008 18.41.03-.089c.313-.03.627-.064.941 0-.31.171-.645.09-.97.088" fill="#524530"/><path d="m12.149 16.79.122.222-.002.236-.264-.004-.077-.16c.014-.144-.014-.318.221-.295" fill="#d1ae56"/><path d="m12.505 17.956c.206-.152.322.055.474.118-.156.213-.314-.043-.472.002z" fill="#e8c573"/><path d="m12.505 17.956.002.12c-.127.164-.312.095-.474.116l-.118-.119.112-.089c.114-.037.232-.058.35-.084l.127.051v.005z" fill="#eecc74"/><path d="m14.034 16.424.123.11c-.002.158-.084.237-.239.244-.219.056-.2-.155-.286-.25l-.102-.193-.005-.143.168-.122c.258-.02.187.275.341.354" fill="#fef5d7"/><path d="m13.69 16.415c.075.121.152.242.229.362l.008.113-.13.007-.167-.032c-.077-.163-.08-.316.06-.45" fill="#ebd190"/><path d="m13.688 16.89.108.008-.11.114a3.31 3.31 0 0 1 -.945-.236v-.118c.382-.188.691-.087.947.233" fill="#cbae64"/><path d="m10.734 18.549c.157.006.316.129.471-.007l.243.349c-.237.023-.477-.093-.714.008-.1-.117-.1-.234 0-.35" fill="#5c4f42"/><path d="m10.734 18.549v.35l.001.114-.365.028-.117-.102c-.06-.185-.228-.151-.366-.176-.124-.084-.404.036-.369-.246.027-.22.213-.239.4-.215.282.045.564.098.816.247" fill="#5a4d40"/><path d="m9.917 18.302c-.346.133-.415.282-.029.461l-.2.102-.258.011.007-.684c.168.001.344-.032.48.11" fill="#493f38"/><path d="m9.082 16.537c.188-.42.644-.526.95-.808.254.107.087.427.287.561-.002.151-.112.225-.218.301l-.123.096c-.176.15-.22.437-.496.483-.138-.07-.306.044-.438-.072-.12-.197-.111-.384.038-.56" fill="#9b927c"/><path d="m10.718 14.54c.297.32.133.715.172 1.076l-.109.088a.522.522 0 0 1 -.275.056.354.354 0 0 1 -.22-.166c.143-.352.287-.702.432-1.054" fill="#b3ad9d"/><path d="m9.082 16.537c.028.197-.065.415.1.588.17.182.17.365.008.552-.1-.093-.175-.227-.343-.207.003-.17-.005-.332-.236-.34-.076-.156.01-.258.119-.352-.008-.263.185-.232.352-.24" fill="#948b76"/><path d="m6.948 15.824.014-.093.23-.136.693.847c-.088.102-.207.103-.327.1h-.125c.018-.21-.177-.313-.242-.48z" fill="#958d76"/><path d="m8.73 16.778-.12.352c-.328.09-.647.156-.83-.246l.12-.122c.192-.065.426.088.593-.112l.236.128z" fill="#948b76"/><path d="m10.285 15.594c.092.002.17.029.213.119.093.079.217.122.271.244.018.172-.087.287-.184.408-.127.113-.234.107-.316-.052-.22-.137-.1-.412-.237-.583z" fill="#a5a092"/><path d="m8.612 14.059c.308-.188.673-.116 1-.221-.256.423-.611.398-1 .22" fill="#736b63"/><path d="m8.494 16.65c-.127.415-.371.21-.594.113l.124-.232c.128.154.318.062.47.12" fill="#7c7563"/><path d="m9.586 15.525c-.354.252-.492.06-.694-.07.244-.117.401.053.694.07" fill="#4e4b3f"/><path d="m7.191 15.596-.229.136c.128-.236.116-.494.123-.75l.213.167.04.048-.027.032c-.177.077-.13.227-.12.367" fill="#eeede9"/><path d="m7.311 15.229-.013-.08c.156-.027.31-.048.441.142-.17.085-.307.116-.428-.062" fill="#a29881"/><path d="m6.839 14.886c.019-.207-.172-.31-.237-.475.044-.098.134-.111.225-.126.185.123.108.318.13.485z" fill="#f4f4f4"/><path d="m9.44 17.127c.283-.09.226-.48.505-.574l.147.16.112.187c.035.13-.005.24-.082.342l-.09.117c-.095.116-.032.25-.051.374l-.083.124-.58-.134c-.088-.226-.017-.418.123-.596" fill="#908671"/><path d="m10.855 17.6c.208.253-.033.414-.126.604l-.225-.033c-.184-.225-.114-.441.023-.656l.145-.096.17.029.037.098z" fill="#debd6c"/><path d="m10.62 17.489c-.028.228-.181.436-.116.683l-.378-.196.017-.07c.064-.107.065-.229.063-.35l.057-.138.208-.091.15.162z" fill="#9d9279"/><path d="m9.44 17.127-.123.596-.127-.046-.008-.552c.023-.089.023-.216.158-.183z" fill="#7f7765"/><path d="m9.897 17.858.014-.141c.069-.148-.05-.342.113-.467l.009-.001c.187-.03.265.047.23.235l-.001.003c-.07.146.048.339-.112.464l-.024.026-.229-.12z" fill="#9d9279"/><path d="m8.087 17.38c.215.01.448-.094.638.093l-.638-.094" fill="#948b76"/><path d="m13.693 16.07-.12.117c-.325.225-.63.18-.922-.066-.095-.149-.02-.253.088-.348.152-.096.32-.07.485-.063.138-.014.263.011.357.125z" fill="#ddbd70"/><path d="m13.581 15.835-.385-.013.01-.21c.191-.198.391-.19.596-.02l-.22.243z" fill="#e4bd76"/><path d="m10.498 16.306c.082-.12.164-.237.247-.355l.122-.062c.08.007.17.048.222-.058l.239-.001c.127-.061.2.009.265.106.033.185-.092.297-.196.418a1.267 1.267 0 0 1 -.303.247l-.226.035-.141-.05c-.107-.068-.146-.192-.23-.28" fill="#f4f4f4"/><path d="m11.915 15.599.123-.122c.19-.083.347-.02.49.108.048.167-.015.298-.134.41-.183.093-.356.095-.51-.06l-.05-.175z" fill="#eceae3"/><path d="m12.741 15.122-.118.118.041.095-.022.053c-.21.17-.412.13-.609-.029l.014-.233.104-.002c.197.082.393-.21.59-.002" fill="#e6d7a6"/><path d="m12.034 15.36c.196.056.393.055.589 0 .1.049.17.115.14.24l-.136.067-.137-.064a.788.788 0 0 1 -.452-.126z" fill="#dacb99"/><path d="m11.088 15.831c.021.101.167.215.017.291l-.262-.179c-.087-.118-.086-.234.008-.349l.04.022z" fill="#ecebe8"/><path d="m11.916 15.71-.006.121c-.094.106-.192.2-.349.118l-.233-.119.111-.114c.158-.134.317-.107.477-.007" fill="#fdfdfd"/><path d="m11.916 15.71-.477.006c.072-.394.29-.19.476-.117l.001.11z" fill="#e4e4e5"/><path d="m12.625 15.597.115-.002c.092-.104.193-.18.34-.105l.125.123-.009.21-.455.005c-.106-.044-.175-.105-.116-.231" fill="#eee4b6"/><path d="m13.08 15.49-.34.104-.117-.234v-.12c.117.072.233.079.349.002l.108.247z" fill="#e3d5a5"/><path d="m12.033 18.073h-.118c-.236-.07-.411-.187-.355-.476l.024-.138.21.02.008.011c.125.176.416.285.23.583" fill="#ddbd6c"/><path d="m10.855 17.6-.002-.128c-.032-.091.02-.133.093-.164l.14.023.043.13-.158.139z" fill="#cfb87d"/><path d="m11.56 17.486v.112l-.232.003-.03-.096.03-.05.164-.02z" fill="#c6a249"/><path d="m11.09 17.489-.005-.102.123-.044.057.127-.058.13-.116-.003-.032-.072z" fill="#dab356"/><path d="m11.208 17.6v-.108l.124.002-.004.107z" fill="#efc763"/><path d="m11.09 17.489.001.11h-.12z" fill="#84724f"/><path d="m11.202 17.39-.117-.003.01-.041a.66.66 0 0 1 -.246-.33c-.042-.158-.135-.318.004-.476h.22l.232-.058c.11.044.17.13.21.235.035.14.125.215.27.225.11.014.188.068.215.18l.005.123-.212.234-.234.007v-.001c-.098-.114-.249-.023-.357-.094" fill="#f3f1ec"/><path d="m12.033 18.073-.231-.583.347.111c.124.087.3.138.238.351-.083.142-.223.118-.354.121" fill="#e4c371"/><path d="m12.387 17.952-.238-.35c.288-.056.31.16.355.35l-.058.001h-.059z" fill="#d0b266"/><path d="m13.688 16.89-.947-.232-.248-.01-.072-.186c.008-.11.048-.197.157-.24.333.015.67-.013.997.08l.115.113c-.002.159-.002.317-.002.476" fill="#e3c372"/><path d="m12.488 16.536.005.112c-.143-.02-.24.07-.344.141-.204.042-.085.228-.15.334l-.187-.11c-.142-.043-.29-.077-.366-.226l-.121-.239c.1-.137.256-.148.405-.175.279-.066.54-.058.758.163" fill="#f1f0ee"/><path d="m13.574 16.302-1.049-.001.04-.206.078-.022c.303.098.613.135.931.115z" fill="#d4b668"/><path d="m10.498 16.306c.137.019.242.069.233.233-.048.092-.131.14-.221.183l-.22.034-.144-.04-.105-.103-.018-.074.246-.226c.077.004.157.129.229-.007" fill="#bab5a9"/><path d="m10.027 16.774c-.109-.043-.113-.125-.082-.221l.077-.013-.002-.004.062.12-.005.07z" fill="#cecab9"/><path d="m10.851 15.594-.008.35-.099.006c-.152-.005-.246-.073-.246-.237l.353-.12" fill="#c3bfb3"/><path d="m10.263 17.484-.23-.235c.036-.115.07-.23.107-.344.059-.078.14-.103.233-.1l.16.075.072.165c.012.125-.004.24-.113.324l-.23.115z" fill="#9b978a"/><path d="m10.024 17.25c-.018.16.063.345-.113.467-.065-.18-.275-.397.113-.468" fill="#80755e"/><path d="m10.372 16.89-.232.015-.112-.131-.005.004.238-.057c.093.02.162.056.11.17" fill="#c5bfaf"/><path d="m10.515 16.991.012-.084.115-.072c.131-.003.222.074.311.154l.142.356-.243.126-.058.008-.058-.006c-.148-.127-.122-.333-.22-.482" fill="#edecec"/><path d="m10.515 16.991c.157.123.24.28.221.482l-.116.015-.127-.12z" fill="#b4afa1"/><path d="m10.15 17.95c.009-.16-.06-.342.112-.464.06.178.279.395-.112.464" fill="#918a78"/><path d="m12.625 15.597.116.23-.098.246-.048-.005c-.11.034-.172-.021-.212-.115l.107-.35z" fill="#e3d5a5"/><path d="m12.383 15.953.212.114-.07.234-.037.235c-.23.037-.46-.188-.688.003-.133-.128-.406.018-.474-.24l.235-.35.349-.118c.124.173.309.105.473.122" fill="#fbfcfe"/><path d="m10.953 16.99c-.134.038-.23-.049-.34-.1-.072-.066-.117-.145-.104-.248.047-.09.132-.101.222-.102h.122z" fill="#d2d0cc"/><path d="m11.326 16.299.474.24-.475.009-.252-.008z" fill="#d8d8d7"/><path d="m11.202 17.39c.125.009.274-.076.356.095l-.227.009-.124-.002-.005-.101z" fill="#d2b671"/><path d="m11.446 16.787.366.225c-.157-.019-.44.17-.366-.225" fill="#cccac7"/><path d="m10.509 16.643c.09.06.105.15.104.248l-.086.017-.155-.017-.11-.123-.038-.074.039-.037z" fill="#979386"/><path d="m10.263 16.657v.11l-.24.01.02-.134.05-.027.04.04z" fill="#989387"/><path d="m10.133 16.657-.089-.013-.024-.108z" fill="#5c584a"/></g></g></svg>