<svg width="32" height="32" viewBox="0 0 32 32" fill="none" xmlns="http://www.w3.org/2000/svg">
<circle cx="16" cy="16" r="16" fill="#000AD2"/>
<path d="M6.17214 15.6482V13.2991H6.82167C7.21139 13.2991 7.48924 13.4001 7.65523 13.6022C7.82122 13.8042 7.90422 14.1001 7.90422 14.4899C7.90422 14.8868 7.80679 15.1791 7.61193 15.3667C7.42429 15.5544 7.1753 15.6482 6.86497 15.6482H6.17214ZM4.61328 12.1516V19.8809H6.17214V16.7957H7.0057C7.37377 16.7957 7.70936 16.7488 8.01247 16.6549C8.31558 16.5611 8.57178 16.4204 8.78108 16.2327C8.99759 16.0451 9.16358 15.8033 9.27905 15.5074C9.40173 15.2115 9.46308 14.8651 9.46308 14.4682C9.46308 14.1795 9.42699 13.8981 9.35482 13.6238C9.28265 13.3424 9.16358 13.0934 8.99758 12.8769C8.83159 12.6604 8.61148 12.4871 8.33723 12.3572C8.07021 12.2201 7.73823 12.1516 7.34129 12.1516H4.61328Z" fill="white"/>
<path d="M11.8615 18.7334V13.2991H12.5219C12.8178 13.2991 13.0523 13.3568 13.2255 13.4723C13.4059 13.5805 13.5394 13.7465 13.6261 13.9702C13.7199 14.1867 13.7812 14.461 13.8101 14.793C13.839 15.1249 13.8534 15.5111 13.8534 15.9513C13.8534 16.4781 13.8353 16.9184 13.7993 17.272C13.7704 17.6256 13.7054 17.9107 13.6044 18.1272C13.5106 18.3437 13.3807 18.4989 13.2147 18.5927C13.0487 18.6865 12.8286 18.7334 12.5543 18.7334H11.8615ZM10.3026 12.1516V19.8809H12.76C13.2796 19.8809 13.709 19.8015 14.0482 19.6428C14.3874 19.484 14.6581 19.2422 14.8602 18.9175C15.0622 18.5927 15.203 18.1813 15.2823 17.6834C15.3689 17.1782 15.4123 16.5864 15.4123 15.908C15.4123 15.3378 15.3798 14.8218 15.3148 14.3599C15.2499 13.8981 15.1236 13.5047 14.9359 13.18C14.7555 12.848 14.4993 12.5954 14.1673 12.4222C13.8353 12.2418 13.3987 12.1516 12.8574 12.1516H10.3026Z" fill="white"/>
<path d="M18.0019 18.7334V16.406H18.6731C18.8463 16.406 19.0051 16.424 19.1494 16.4601C19.2937 16.4962 19.4164 16.5611 19.5175 16.6549C19.6257 16.7415 19.7087 16.8606 19.7664 17.0122C19.8314 17.1565 19.8639 17.3406 19.8639 17.5643C19.8639 18.0117 19.7484 18.3184 19.5175 18.4844C19.2865 18.6504 18.9834 18.7334 18.6081 18.7334H18.0019ZM18.0019 15.3234V13.2991H18.5648C18.9545 13.2991 19.2396 13.3748 19.42 13.5264C19.6005 13.6779 19.6907 13.9378 19.6907 14.3058C19.6907 14.6739 19.5896 14.9373 19.3876 15.0961C19.1927 15.2476 18.8788 15.3234 18.4457 15.3234H18.0019ZM16.443 12.1516V19.8809H19.0736C19.5283 19.8809 19.9072 19.8196 20.2103 19.6969C20.5206 19.5742 20.7696 19.4118 20.9572 19.2097C21.1521 19.0005 21.2892 18.7587 21.3686 18.4844C21.448 18.2102 21.4877 17.9215 21.4877 17.6184C21.4877 17.0988 21.3614 16.6838 21.1088 16.3735C20.8562 16.0631 20.5134 15.8791 20.0804 15.8214V15.7997C20.4701 15.6915 20.7624 15.4894 20.9572 15.1935C21.1521 14.8904 21.2495 14.5295 21.2495 14.111C21.2495 13.7429 21.1954 13.4326 21.0871 13.18C20.9789 12.9274 20.8273 12.7253 20.6325 12.5737C20.4376 12.4222 20.2031 12.3139 19.9288 12.249C19.6618 12.184 19.3695 12.1516 19.052 12.1516H16.443Z" fill="white"/>
<path d="M25.7601 14.7605H27.319C27.319 14.479 27.2973 14.1795 27.254 13.862C27.2179 13.5372 27.1205 13.2377 26.9617 12.9635C26.803 12.682 26.5612 12.4511 26.2364 12.2706C25.9189 12.0902 25.4823 12 24.9265 12C24.342 12 23.8765 12.101 23.5301 12.3031C23.1836 12.498 22.9166 12.7722 22.729 13.1258C22.5486 13.4795 22.4295 13.9053 22.3717 14.4032C22.3212 14.894 22.296 15.4317 22.296 16.0162C22.296 16.608 22.3212 17.1493 22.3717 17.6401C22.4295 18.1308 22.5486 18.553 22.729 18.9066C22.9166 19.2603 23.1836 19.5309 23.5301 19.7185C23.8765 19.9062 24.342 20 24.9265 20C25.4389 20 25.8539 19.9206 26.1715 19.7618C26.4962 19.6031 26.7452 19.383 26.9184 19.1015C27.0989 18.82 27.2215 18.4917 27.2865 18.1164C27.3514 17.7411 27.3839 17.3442 27.3839 16.9256H25.8251C25.8251 17.3442 25.7998 17.6834 25.7493 17.9432C25.6988 18.1958 25.6302 18.3942 25.5436 18.5386C25.457 18.6757 25.3523 18.7695 25.2297 18.82C25.1142 18.8633 24.9879 18.885 24.8508 18.885C24.6848 18.885 24.5368 18.8525 24.4069 18.7876C24.2842 18.7154 24.1796 18.5819 24.093 18.387C24.0136 18.1849 23.9523 17.9035 23.909 17.5426C23.8729 17.1818 23.8548 16.7091 23.8548 16.1245C23.8548 15.576 23.8693 15.1141 23.8981 14.7388C23.927 14.3563 23.9775 14.0496 24.0497 13.8187C24.1219 13.5805 24.2193 13.4109 24.342 13.3099C24.4719 13.2016 24.6343 13.1475 24.8291 13.1475C25.1827 13.1475 25.4245 13.2774 25.5544 13.5372C25.6915 13.7898 25.7601 14.1976 25.7601 14.7605Z" fill="white"/>
</svg>
