<svg width="32" height="32" viewBox="0 0 32 32" fill="none" xmlns="http://www.w3.org/2000/svg">
<path fill-rule="evenodd" clip-rule="evenodd" d="M16 0C7.163 0 0 7.163 0 16C0 24.837 7.163 32 16 32C24.838 32 32 24.837 32 16C32 7.163 24.838 0 16 0Z" fill="#141029"/>
<path d="M7.2404 15.619V13.1877H7.91267C8.31603 13.1877 8.60361 13.2923 8.77541 13.5014C8.94721 13.7106 9.03312 14.0168 9.03312 14.4202C9.03312 14.831 8.93228 15.1335 8.73059 15.3277C8.53638 15.5219 8.27868 15.619 7.95749 15.619H7.2404ZM5.62695 12V20H7.2404V16.8067H8.10314C8.4841 16.8067 8.83143 16.7582 9.14516 16.6611C9.45889 16.564 9.72406 16.4183 9.94068 16.2241C10.1648 16.0299 10.3366 15.7796 10.4561 15.4734C10.5831 15.1671 10.6466 14.8086 10.6466 14.3978C10.6466 14.099 10.6092 13.8077 10.5345 13.5238C10.4598 13.2325 10.3366 12.9748 10.1648 12.7507C9.99297 12.5266 9.76514 12.3473 9.48129 12.2129C9.20492 12.071 8.86131 12 8.45048 12H5.62695Z" fill="white"/>
<path d="M11.4371 20H15.9077V18.6779H13.0505V12H11.4371V20Z" fill="white"/>
<path d="M20.2566 12H15.1473V13.3221H16.8952V20H18.5087V13.3221H20.2566V12Z" fill="white"/>
<path d="M20.9565 12V20H22.57V16.6162H23.4327C23.7688 16.6162 24.0079 16.7059 24.1498 16.8852C24.2917 17.0644 24.3702 17.3109 24.3851 17.6246L24.4299 19.1597C24.4374 19.3165 24.4523 19.4697 24.4747 19.619C24.4971 19.761 24.5494 19.888 24.6316 20H26.3795V19.9328C26.2301 19.8506 26.133 19.6975 26.0882 19.4734C26.0583 19.2493 26.0359 18.9244 26.0209 18.4986C26.0135 18.282 26.006 18.0878 25.9985 17.916C25.9911 17.7367 25.9799 17.5724 25.9649 17.423C25.9201 16.9748 25.8043 16.6499 25.6176 16.4482C25.4308 16.2465 25.1358 16.1158 24.7324 16.056V16.0336C25.1881 15.9365 25.5242 15.7199 25.7408 15.3838C25.9575 15.0401 26.0658 14.5994 26.0658 14.0616C26.0658 13.3669 25.879 12.8515 25.5055 12.5154C25.1321 12.1718 24.6092 12 23.9369 12H20.9565ZM22.57 15.4958V13.1877H23.3319C24.0788 13.1877 24.4523 13.5574 24.4523 14.2969C24.4523 14.7302 24.3477 15.0401 24.1386 15.2269C23.9294 15.4062 23.6307 15.4958 23.2422 15.4958H22.57Z" fill="white"/>
</svg>
