<svg width="32" height="32" viewBox="0 0 32 32" fill="none" xmlns="http://www.w3.org/2000/svg">
<circle cx="16" cy="16" r="16" fill="#000AD2"/>
<path d="M9.32356 17.7486C9.46523 17.5573 9.57858 17.32 9.66358 17.0367C9.74859 16.7533 9.79109 16.4097 9.79109 16.0059C9.79109 15.673 9.75213 15.3507 9.67421 15.039C9.60337 14.7273 9.48649 14.451 9.32356 14.2102C9.16063 13.9622 8.94811 13.7674 8.68601 13.6258C8.4239 13.477 8.10512 13.4026 7.72968 13.4026C7.35423 13.4026 7.03545 13.477 6.77335 13.6258C6.51125 13.7674 6.29873 13.9622 6.1358 14.2102C5.97287 14.451 5.85244 14.7273 5.77452 15.039C5.70368 15.3507 5.66826 15.673 5.66826 16.0059C5.66826 16.3247 5.70368 16.6364 5.77452 16.941C5.85244 17.2385 5.97287 17.5077 6.1358 17.7486C6.29873 17.9894 6.51125 18.1843 6.77335 18.333C7.03545 18.4747 7.35423 18.5455 7.72968 18.5455C7.90677 18.5455 8.04137 18.5384 8.13346 18.5243C8.22555 18.5101 8.3141 18.4818 8.39911 18.4393L7.68717 17.7911L8.46286 16.9623L9.32356 17.7486ZM9.56795 19.5019C9.06499 19.7923 8.45224 19.9375 7.72968 19.9375C7.1488 19.9375 6.62459 19.8383 6.15705 19.64C5.6966 19.4346 5.30698 19.1547 4.98821 18.8006C4.66943 18.4464 4.42503 18.0319 4.25502 17.5573C4.08501 17.0756 4 16.5585 4 16.0059C4 15.4392 4.08501 14.915 4.25502 14.4333C4.42503 13.9445 4.66943 13.5195 4.98821 13.1582C5.30698 12.7969 5.6966 12.5136 6.15705 12.3081C6.62459 12.1027 7.1488 12 7.72968 12C8.31764 12 8.84185 12.1027 9.3023 12.3081C9.76276 12.5136 10.1524 12.7969 10.4711 13.1582C10.7899 13.5195 11.0343 13.9445 11.2043 14.4333C11.3743 14.915 11.4594 15.4392 11.4594 16.0059C11.4594 16.5585 11.3743 17.0721 11.2043 17.5467C11.0343 18.0213 10.7899 18.4393 10.4711 18.8006L11.4169 19.6612L10.6412 20.4688L9.56795 19.5019Z" fill="white"/>
<path d="M17.5939 17.7486C17.7356 17.5573 17.8489 17.32 17.9339 17.0367C18.0189 16.7533 18.0614 16.4097 18.0614 16.0059C18.0614 15.673 18.0225 15.3507 17.9445 15.039C17.8737 14.7273 17.7568 14.451 17.5939 14.2102C17.431 13.9622 17.2184 13.7674 16.9563 13.6258C16.6942 13.477 16.3754 13.4026 16 13.4026C15.6246 13.4026 15.3058 13.477 15.0437 13.6258C14.7816 13.7674 14.5691 13.9622 14.4061 14.2102C14.2432 14.451 14.1228 14.7273 14.0448 15.039C13.974 15.3507 13.9386 15.673 13.9386 16.0059C13.9386 16.3247 13.974 16.6364 14.0448 16.941C14.1228 17.2385 14.2432 17.5077 14.4061 17.7486C14.5691 17.9894 14.7816 18.1843 15.0437 18.333C15.3058 18.4747 15.6246 18.5455 16 18.5455C16.1771 18.5455 16.3117 18.5384 16.4038 18.5243C16.4959 18.5101 16.5844 18.4818 16.6694 18.4393L15.9575 17.7911L16.7332 16.9623L17.5939 17.7486ZM17.8383 19.5019C17.3353 19.7923 16.7226 19.9375 16 19.9375C15.4191 19.9375 14.8949 19.8383 14.4274 19.64C13.9669 19.4346 13.5773 19.1547 13.2585 18.8006C12.9398 18.4464 12.6954 18.0319 12.5253 17.5573C12.3553 17.0756 12.2703 16.5585 12.2703 16.0059C12.2703 15.4392 12.3553 14.915 12.5253 14.4333C12.6954 13.9445 12.9398 13.5195 13.2585 13.1582C13.5773 12.7969 13.9669 12.5136 14.4274 12.3081C14.8949 12.1027 15.4191 12 16 12C16.588 12 17.1122 12.1027 17.5726 12.3081C18.0331 12.5136 18.4227 12.7969 18.7415 13.1582C19.0602 13.5195 19.3046 13.9445 19.4747 14.4333C19.6447 14.915 19.7297 15.4392 19.7297 16.0059C19.7297 16.5585 19.6447 17.0721 19.4747 17.5467C19.3046 18.0213 19.0602 18.4393 18.7415 18.8006L19.6872 19.6612L18.9115 20.4688L17.8383 19.5019Z" fill="white"/>
<path d="M25.8642 17.7486C26.0059 17.5573 26.1192 17.32 26.2042 17.0367C26.2892 16.7533 26.3317 16.4097 26.3317 16.0059C26.3317 15.673 26.2928 15.3507 26.2149 15.039C26.144 14.7273 26.0271 14.451 25.8642 14.2102C25.7013 13.9622 25.4888 13.7674 25.2267 13.6258C24.9645 13.477 24.6458 13.4026 24.2703 13.4026C23.8949 13.4026 23.5761 13.477 23.314 13.6258C23.0519 13.7674 22.8394 13.9622 22.6764 14.2102C22.5135 14.451 22.3931 14.7273 22.3152 15.039C22.2443 15.3507 22.2089 15.673 22.2089 16.0059C22.2089 16.3247 22.2443 16.6364 22.3152 16.941C22.3931 17.2385 22.5135 17.5077 22.6764 17.7486C22.8394 17.9894 23.0519 18.1843 23.314 18.333C23.5761 18.4747 23.8949 18.5455 24.2703 18.5455C24.4474 18.5455 24.582 18.5384 24.6741 18.5243C24.7662 18.5101 24.8547 18.4818 24.9398 18.4393L24.2278 17.7911L25.0035 16.9623L25.8642 17.7486ZM26.1086 19.5019C25.6056 19.7923 24.9929 19.9375 24.2703 19.9375C23.6894 19.9375 23.1652 19.8383 22.6977 19.64C22.2372 19.4346 21.8476 19.1547 21.5289 18.8006C21.2101 18.4464 20.9657 18.0319 20.7957 17.5573C20.6257 17.0756 20.5406 16.5585 20.5406 16.0059C20.5406 15.4392 20.6257 14.915 20.7957 14.4333C20.9657 13.9445 21.2101 13.5195 21.5289 13.1582C21.8476 12.7969 22.2372 12.5136 22.6977 12.3081C23.1652 12.1027 23.6894 12 24.2703 12C24.8583 12 25.3825 12.1027 25.843 12.3081C26.3034 12.5136 26.693 12.7969 27.0118 13.1582C27.3306 13.5195 27.575 13.9445 27.745 14.4333C27.915 14.915 28 15.4392 28 16.0059C28 16.5585 27.915 17.0721 27.745 17.5467C27.575 18.0213 27.3306 18.4393 27.0118 18.8006L27.9575 19.6612L27.1818 20.4688L26.1086 19.5019Z" fill="white"/>
</svg>
