<svg width="32" height="32" viewBox="0 0 32 32" fill="none" xmlns="http://www.w3.org/2000/svg">
<g clip-path="url(#clip0_1388_11287)">
<path fill-rule="evenodd" clip-rule="evenodd" d="M16 0C7.163 0 0 7.163 0 16C0 24.837 7.163 32 16 32C24.838 32 32 24.837 32 16C32 7.163 24.838 0 16 0Z" fill="#E82127"/>
</g>
<path d="M10.2694 12.1516H5.33301V13.429H7.02178V19.8809H8.58064V13.429H10.2694V12.1516Z" fill="#F5F5F5"/>
<path d="M12.2014 17.4668H10.6425V17.7808C10.6425 18.4953 10.8302 19.0438 11.2055 19.4263C11.588 19.8088 12.2195 20 13.0999 20C13.9443 20 14.601 19.816 15.0702 19.4479C15.5465 19.0726 15.7846 18.4772 15.7846 17.6617C15.7846 17.4235 15.763 17.207 15.7197 17.0122C15.6764 16.8173 15.597 16.6405 15.4815 16.4817C15.3733 16.3157 15.2253 16.1642 15.0377 16.0271C14.85 15.8827 14.6083 15.7456 14.3124 15.6157L13.1107 15.0961C12.7788 14.959 12.5623 14.811 12.4612 14.6522C12.3602 14.4862 12.3097 14.2842 12.3097 14.046C12.3097 13.9305 12.3205 13.8187 12.3421 13.7104C12.371 13.6022 12.4179 13.5083 12.4829 13.429C12.555 13.3424 12.6489 13.2738 12.7643 13.2233C12.8798 13.1728 13.0241 13.1475 13.1974 13.1475C13.5005 13.1475 13.717 13.2485 13.8469 13.4506C13.9768 13.6455 14.0417 13.9269 14.0417 14.295H15.5356V14.0785C15.5356 13.7104 15.4743 13.3965 15.3516 13.1367C15.2361 12.8696 15.0702 12.6531 14.8536 12.4871C14.6444 12.3139 14.3918 12.1912 14.0959 12.1191C13.8072 12.0397 13.4896 12 13.1432 12C12.3999 12 11.8153 12.1876 11.3895 12.5629C10.9637 12.9382 10.7508 13.5083 10.7508 14.2733C10.7508 14.5909 10.7905 14.8724 10.8699 15.1177C10.9493 15.3559 11.072 15.5688 11.2379 15.7564C11.4112 15.9369 11.6241 16.0956 11.8766 16.2327C12.1292 16.3699 12.4287 16.4962 12.7752 16.6116C13.035 16.6982 13.2515 16.7848 13.4247 16.8714C13.6051 16.9508 13.7494 17.041 13.8577 17.1421C13.966 17.2431 14.0417 17.3586 14.085 17.4885C14.1356 17.6112 14.1608 17.7591 14.1608 17.9323C14.1608 18.2571 14.0634 18.4989 13.8685 18.6576C13.6809 18.8092 13.468 18.885 13.2298 18.885C13.0278 18.885 12.8582 18.8561 12.721 18.7984C12.5911 18.7406 12.4865 18.6613 12.4071 18.5602C12.3277 18.4592 12.2736 18.3365 12.2447 18.1922C12.2158 18.0406 12.2014 17.8746 12.2014 17.6942V17.4668Z" fill="#F5F5F5"/>
<path d="M16.5592 19.8809H20.8786V18.6035H18.1181V12.1516H16.5592V19.8809Z" fill="#F5F5F5"/>
<path d="M24.7962 16.9689L24.0493 13.4939H24.0276L23.2807 16.9689H24.7962ZM25.0019 12.1516L27.0479 19.8809H25.4241L25.0669 18.2463H23.01L22.6528 19.8809H21.029L23.075 12.1516H25.0019Z" fill="#F5F5F5"/>
<defs>
<clipPath id="clip0_1388_11287">
<rect width="32" height="32" fill="white"/>
</clipPath>
</defs>
</svg>
