<svg width="32" height="32" viewBox="0 0 32 32" fill="none" xmlns="http://www.w3.org/2000/svg">
<path fill-rule="evenodd" clip-rule="evenodd" d="M16 0C7.163 0 0 7.163 0 16C0 24.837 7.163 32 16 32C24.838 32 32 24.837 32 16C32 7.163 24.838 0 16 0Z" fill="#00AAEC"/>
<path d="M8.44225 12H3.33301V13.3221H5.08091V20H6.69435V13.3221H8.44225V12Z" fill="white"/>
<path d="M8.72089 12L10.1775 20H11.9814L12.8778 14.1961H12.9002L13.7965 20H15.6004L17.057 12H15.5108L14.6257 17.916H14.6032L13.6621 12H12.1159L11.1747 17.916H11.1523L10.2671 12H8.72089Z" fill="white"/>
<path d="M22.437 12H17.3278V13.3221H19.0757V20H20.6891V13.3221H22.437V12Z" fill="white"/>
<path d="M23.1863 12V20H24.7997V16.6162H25.6625C25.9986 16.6162 26.2376 16.7059 26.3795 16.8852C26.5215 17.0644 26.5999 17.3109 26.6148 17.6247L26.6597 19.1597C26.6671 19.3165 26.6821 19.4697 26.7045 19.619C26.7269 19.761 26.7792 19.888 26.8613 20H28.6092V19.9328C28.4598 19.8506 28.3627 19.6975 28.3179 19.4734C28.288 19.2493 28.2656 18.9244 28.2507 18.4986C28.2432 18.282 28.2358 18.0878 28.2283 17.916C28.2208 17.7367 28.2096 17.5724 28.1947 17.423C28.1498 16.9748 28.0341 16.6499 27.8473 16.4482C27.6606 16.2465 27.3655 16.1158 26.9622 16.056V16.0336C27.4178 15.9365 27.754 15.7199 27.9706 15.3838C28.1872 15.0401 28.2955 14.5994 28.2955 14.0616C28.2955 13.3669 28.1088 12.8515 27.7353 12.5154C27.3618 12.1718 26.8389 12 26.1667 12H23.1863ZM24.7997 15.4958V13.1877H25.5616C26.3086 13.1877 26.6821 13.5574 26.6821 14.2969C26.6821 14.7302 26.5775 15.0401 26.3683 15.2269C26.1592 15.4062 25.8604 15.4958 25.472 15.4958H24.7997Z" fill="white"/>
</svg>
