<svg width="32" height="32" viewBox="0 0 32 32" fill="none" xmlns="http://www.w3.org/2000/svg">
<circle cx="16" cy="16" r="16" fill="#4A93CD"/>
<path d="M6.44248 12H4.85352V17.4952C4.85352 18.0248 4.9234 18.4552 5.06317 18.7862C5.20294 19.1172 5.39053 19.3747 5.62593 19.5586C5.86133 19.7352 6.12984 19.8529 6.43145 19.9117C6.73306 19.9706 7.0457 20 7.36938 20C7.69306 20 8.0057 19.9669 8.30731 19.9007C8.60892 19.8345 8.87742 19.7057 9.11283 19.5145C9.34823 19.3232 9.53581 19.0657 9.67558 18.7421C9.81535 18.411 9.88524 17.9954 9.88524 17.4952V12H8.29627V17.4952C8.29627 17.6938 8.28156 17.8777 8.25214 18.0469C8.23007 18.2087 8.18225 18.3522 8.10869 18.4772C8.04248 18.5949 7.95053 18.6906 7.83283 18.7641C7.71512 18.8303 7.56064 18.8634 7.36938 18.8634C7.18547 18.8634 7.03099 18.8303 6.90593 18.7641C6.78823 18.6906 6.6926 18.5949 6.61903 18.4772C6.55283 18.3522 6.50501 18.2087 6.47558 18.0469C6.45352 17.8777 6.44248 17.6938 6.44248 17.4952V12Z" fill="white"/>
<path d="M10.8903 12V19.8786H12.4793V16.5462H13.3289C13.66 16.5462 13.8954 16.6345 14.0352 16.811C14.1749 16.9876 14.2522 17.2303 14.2669 17.5393L14.311 19.051C14.3184 19.2055 14.3331 19.3563 14.3552 19.5034C14.3772 19.6432 14.4287 19.7683 14.5096 19.8786H16.231V19.8124C16.0839 19.7315 15.9883 19.5807 15.9441 19.36C15.9147 19.1393 15.8926 18.8193 15.8779 18.4C15.8706 18.1867 15.8632 17.9954 15.8558 17.8262C15.8485 17.6497 15.8375 17.4878 15.8227 17.3407C15.7786 16.8993 15.6646 16.5793 15.4807 16.3807C15.2968 16.1821 15.0062 16.0533 14.6089 15.9945V15.9724C15.0577 15.8768 15.3887 15.6634 15.602 15.3324C15.8154 14.994 15.922 14.56 15.922 14.0303C15.922 13.3462 15.7381 12.8386 15.3703 12.5076C15.0025 12.1692 14.4876 12 13.8255 12H10.8903ZM12.4793 15.4428V13.1697H13.2296C13.9653 13.1697 14.3331 13.5338 14.3331 14.2621C14.3331 14.6887 14.2301 14.994 14.0241 15.1779C13.8181 15.3545 13.5239 15.4428 13.1414 15.4428H12.4793Z" fill="white"/>
<path d="M21.4402 12H16.4085V13.3021H18.1299V19.8786H19.7189V13.3021H21.4402V12Z" fill="white"/>
<path d="M22.1295 12V19.8786H23.7185V16.3807H25.5723V19.8786H27.1613V12H25.5723V15.0124H23.7185V12H22.1295Z" fill="white"/>
</svg>
