<svg width="32" height="32" viewBox="0 0 32 32" fill="none" xmlns="http://www.w3.org/2000/svg">
<circle cx="16" cy="16" r="16" fill="#96151D"/>
<path d="M9.03318 19.8228L11.5694 12.1819H9.83579L8.11286 17.5541H8.09146L6.38993 12.1819H4.66699L7.13903 19.8228H9.03318Z" fill="white"/>
<path d="M12.221 12.1819V19.8228H13.7941V14.7075H13.8155L16.9938 19.8228H18.6739V12.1819H17.1008V17.3079H17.0794L13.8904 12.1819H12.221Z" fill="white"/>
<path d="M25.1827 17.7895C25.3254 17.5969 25.4395 17.3579 25.5251 17.0725C25.6107 16.7871 25.6535 16.4411 25.6535 16.0344C25.6535 15.6991 25.6143 15.3745 25.5358 15.0606C25.4645 14.7467 25.3468 14.4685 25.1827 14.2259C25.0186 13.9762 24.8046 13.78 24.5406 13.6373C24.2766 13.4875 23.9556 13.4126 23.5775 13.4126C23.1993 13.4126 22.8783 13.4875 22.6143 13.6373C22.3504 13.78 22.1363 13.9762 21.9722 14.2259C21.8081 14.4685 21.6869 14.7467 21.6084 15.0606C21.537 15.3745 21.5014 15.6991 21.5014 16.0344C21.5014 16.3555 21.537 16.6694 21.6084 16.9762C21.6869 17.2758 21.8081 17.5469 21.9722 17.7895C22.1363 18.032 22.3504 18.2282 22.6143 18.3781C22.8783 18.5207 23.1993 18.5921 23.5775 18.5921C23.7558 18.5921 23.8914 18.585 23.9841 18.5707C24.0769 18.5564 24.166 18.5279 24.2516 18.4851L23.5346 17.8323L24.3159 16.9976L25.1827 17.7895ZM25.4288 19.5552C24.9223 19.8477 24.3052 19.994 23.5775 19.994C22.9924 19.994 22.4645 19.8941 21.9936 19.6943C21.5299 19.4874 21.1375 19.2056 20.8165 18.8489C20.4954 18.4922 20.2493 18.0749 20.0781 17.5969C19.9069 17.1117 19.8212 16.5909 19.8212 16.0344C19.8212 15.4637 19.9069 14.9358 20.0781 14.4506C20.2493 13.9584 20.4954 13.5303 20.8165 13.1665C21.1375 12.8026 21.5299 12.5172 21.9936 12.3103C22.4645 12.1034 22.9924 12 23.5775 12C24.1696 12 24.6975 12.1034 25.1613 12.3103C25.625 12.5172 26.0174 12.8026 26.3384 13.1665C26.6595 13.5303 26.9056 13.9584 27.0768 14.4506C27.248 14.9358 27.3337 15.4637 27.3337 16.0344C27.3337 16.5909 27.248 17.1082 27.0768 17.5862C26.9056 18.0642 26.6595 18.4851 26.3384 18.8489L27.2909 19.7157L26.5097 20.5291L25.4288 19.5552Z" fill="white"/>
</svg>
