<svg width="24" height="25" viewBox="0 0 24 25" fill="none" xmlns="http://www.w3.org/2000/svg">
<g clip-path="url(#clip0)">
<path d="M12 24.0068C18.6274 24.0068 24 18.6343 24 12.0068C24 5.37942 18.6274 0.00683594 12 0.00683594C5.37258 0.00683594 0 5.37942 0 12.0068C0 18.6343 5.37258 24.0068 12 24.0068Z" fill="white"/>
<path d="M12 24.0068C18.6274 24.0068 24 18.6343 24 12.0068C24 5.37942 18.6274 0.00683594 12 0.00683594C5.37258 0.00683594 0 5.37942 0 12.0068C0 18.6343 5.37258 24.0068 12 24.0068Z" fill="#627EEA" fill-opacity="0.2"/>
<path d="M17.625 13.2188L11.9985 21.0031V16.4828L17.625 13.2188ZM11.9985 9.66084V15.4366L6.375 12.1718L11.9985 9.66084ZM11.9985 3.00684L17.6213 12.1718L11.9985 9.65934V3.00684Z" fill="white"/>
<path d="M17.625 13.2188L11.9985 21.0031V16.4828L17.625 13.2188ZM11.9985 9.66084V15.4366L6.375 12.1718L11.9985 9.66084ZM11.9985 3.00684L17.6213 12.1718L11.9985 9.65934V3.00684Z" fill="#627EEA" fill-opacity="0.8"/>
<path d="M6.375 13.2188L11.9985 16.4821V21.0031L6.375 13.2188ZM11.9985 3.00684V9.65934L6.375 12.1718L11.9985 3.00684Z" fill="white"/>
<path d="M6.375 13.2188L11.9985 16.4821V21.0031L6.375 13.2188ZM11.9985 3.00684V9.65934L6.375 12.1718L11.9985 3.00684Z" fill="#627EEA" fill-opacity="0.6"/>
<path d="M11.9985 15.4369L17.6213 12.1721L11.9985 9.66113V15.4369Z" fill="#627EEA"/>
</g>
<defs>
<clipPath id="clip0">
<rect width="24" height="24" fill="white" transform="translate(0 0.00683594)"/>
</clipPath>
</defs>
</svg>
