<svg width="24" height="25" viewBox="0 0 24 25" fill="none" xmlns="http://www.w3.org/2000/svg">
<g clip-path="url(#clip0)">
<path d="M12 24.0068C18.6274 24.0068 24 18.6343 24 12.0068C24 5.37942 18.6274 0.00683594 12 0.00683594C5.37258 0.00683594 0 5.37942 0 12.0068C0 18.6343 5.37258 24.0068 12 24.0068Z" fill="#F7931A" fill-opacity="0.2"/>
<path d="M17.2206 10.5371C17.4547 8.96097 16.2633 8.11368 14.6343 7.54844L15.1627 5.41336L13.8725 5.08947L13.358 7.16829C13.0188 7.08315 12.6705 7.00283 12.3243 6.92324L12.8425 4.83073L11.553 4.50684L11.0242 6.64118C10.7434 6.57677 10.4678 6.5131 10.2003 6.44611L10.2018 6.43944L8.42242 5.99192L8.0792 7.38002C8.0792 7.38002 9.03648 7.601 9.01627 7.6147C9.53882 7.74611 9.63326 8.09443 9.61746 8.37057L9.01553 10.8029C9.05154 10.8121 9.09821 10.8255 9.14966 10.8462C9.10667 10.8355 9.06073 10.8236 9.01333 10.8121L8.1696 14.2195C8.10565 14.3794 7.9436 14.6192 7.57832 14.5282C7.59118 14.5471 6.64052 14.2924 6.64052 14.2924L6 15.7801L7.67901 16.2017C7.99137 16.2805 8.29748 16.3631 8.59881 16.4408L8.06486 18.6003L9.35361 18.9242L9.88241 16.7876C10.2345 16.8839 10.5762 16.9727 10.9106 17.0564L10.3837 19.1829L11.6739 19.5068L12.2078 17.3514C14.4079 17.7708 16.0623 17.6016 16.7587 15.5972C17.3198 13.9833 16.7307 13.0524 15.5732 12.4453C16.4162 12.2495 17.0512 11.6909 17.2206 10.5371ZM14.2108 14.8872C13.8382 16.3576 11.3173 15.5627 10.5 15.3634L11.1621 12.7568C11.9794 12.9572 14.6002 13.3538 14.2108 14.8872ZM14.9544 10.3496C14.5506 11.8442 12.0584 11.0849 11.25 10.8987L11.963 8.25684C12.7714 8.44301 15.3749 8.79048 14.9544 10.3496Z" fill="#F7931A"/>
</g>
<defs>
<clipPath id="clip0">
<rect width="24" height="24" fill="white" transform="translate(0 0.00683594)"/>
</clipPath>
</defs>
</svg>
