<svg height="32" viewBox="0 0 32 32" width="32" xmlns="http://www.w3.org/2000/svg" xmlns:xlink="http://www.w3.org/1999/xlink"><defs><path id="a" d="m31.5210875 19.8705962c-2.1372277 8.571413-10.8196524 13.7878601-19.3930655 11.6503817-8.56991276-2.1369783-13.78696841-10.8188902-11.64874067-19.3898032 2.13622752-8.57241298 10.81865227-13.78936003 19.38956507-11.65238172 8.5729131 2.13697831 13.7894687 10.81989022 11.6522411 19.39180322z"/><mask id="b" fill="#fff"><use fill="#fff" fill-rule="evenodd" xlink:href="#a"/></mask></defs><g fill="none"><use fill="#f7931a" xlink:href="#a"/><path d="m22.9607972 14.0403721c.312112-2.1015226-1.2763764-3.2312514-3.4484211-3.9848974l.7045793-2.8467784-1.7202907-.43185352-.6859605 2.77175925c-.4522439-.11351578-.9167371-.22061545-1.3782905-.32672803l.6908602-2.79002048-1.7193109-.43185352-.7050693 2.84579128c-.3743384-.08587716-.7418172-.17076722-1.0985167-.2600992l.0019599-.00888385-2.3724432-.59669817-.4576336 1.85080078s1.2763764.29464746 1.249428.31290876c.6967398.1752091.8226625.6396367.8015937 1.0078227l-.8025737 3.2430965c.0480173.0123387.1102437.0301063.1788397.057745-.0573267-.0143129-.1185731-.0301064-.1817795-.0454063l-1.1249751 4.5430989c-.0852551.2132123-.3013326.5330307-.7883646.4116181.017149.0251709-1.25040785-.3143893-1.25040785-.3143893l-.85402075 1.9835649 2.2386809.5621499c.416476.1051254.8246224.2151864 1.2263993.3188312l-.711929 2.8793525 1.7183309.4318535.7050694-2.8487525c.4693929.1283221.9250666.2467734 1.3709409.358315l-.7026195 2.8354268 1.7202908.4318535.711929-2.8739235c2.9334608.5591887 5.1393136.3336377 6.06781-2.3389186.7481869-2.1518644-.0372378-3.3931348-1.5806488-4.2025516 1.1239952-.2610863 1.9706663-1.0058486 2.1965433-2.5442342zm-4.0130612 5.800098c-.4967882 1.9604954-3.858007.9006588-4.947736.6349127l.8827721-3.4753828c1.089729.267095 4.5841878.7958892 4.0649639 2.8404701zm.991423-6.0501341c-.538402 1.9928817-3.8612672.9803611-4.939159.7321302l.9506331-3.5224662c1.0778918.2482309 4.5492255.7115281 3.9885259 2.790336z" fill="#fff" mask="url(#b)"/></g></svg>