<?xml version="1.0" encoding="UTF-8"?>
<svg width="32px" height="32px" viewBox="0 0 32 32" version="1.1" xmlns="http://www.w3.org/2000/svg" xmlns:xlink="http://www.w3.org/1999/xlink">
    <title>2F0257CE-A66D-438D-B86E-3BE5543CEC52</title>
    <defs>
        <path d="M31.5210875,19.8705962 C29.3838598,28.4420092 20.7014351,33.6584563 12.128022,31.5209779 C3.55810924,29.3839996 -1.65894641,20.7020877 0.479281328,12.1311747 C2.61550885,3.55876172 11.2979336,-1.65818533 19.8688464,0.478792978 C28.4417595,2.61577129 33.6583151,11.2986832 31.5210875,19.8705962 Z" id="path-1"></path>
    </defs>
    <g id="DeFiChain-App" stroke="none" stroke-width="1" fill="none" fill-rule="evenodd">
        <g id="tokens-dct" transform="translate(-612.000000, -206.000000)">
            <g id="Group-10" transform="translate(56.000000, 38.000000)">
                <g id="Group-8" transform="translate(224.000000, 0.000000)">
                    <g id="Group-2" transform="translate(32.000000, 144.000000)">
                        <g id="icon-coin-bitcoin-lapis" transform="translate(300.000000, 24.000000)">
                            <mask id="mask-2" fill="white">
                                <use xlink:href="#path-1"></use>
                            </mask>
                            <use id="Path" fill="#FF996D" fill-rule="nonzero" xlink:href="#path-1"></use>
                            <path d="M18.6326531,20.4592764 C20.1882086,21.0814986 21.0662333,21.7037209 21.6581894,22.2657181 L21.8955118,22.5027113 C21.9325269,22.5415371 21.9683677,22.5800117 22.0031771,22.6181132 L22.2007957,22.8420693 L22.2007957,22.8420693 L22.6314679,23.355869 L22.6314679,23.355869 L22.7963623,23.5401873 C23.2967079,24.0731255 23.8788314,24.4211749 25.3747326,24.4563354 L25.6326531,24.4592764 C27.0429874,24.4592764 28.2046914,24.7079068 29.117765,25.161336 C26.1087515,29.4682025 21.1033229,32.0803266 15.766198,31.9981151 C16.2119682,29.8802492 15.8870665,28.2479194 13.8567548,26.6323323 L13.6326531,26.4592764 C9.63265306,23.4592764 13.6326531,18.4592764 18.6326531,20.4592764 Z M12,12 L11.4422629,12.5517502 L11.4422629,12.5517502 L10.8869408,13.0911241 L10.8869408,13.0911241 L8.48262417,15.3813375 L8.48262417,15.3813375 L7.98374986,15.8634334 L7.98374986,15.8634334 L7.50298716,16.3370772 L7.50298716,16.3370772 L7.04275095,16.8028727 L7.04275095,16.8028727 L6.60545612,17.2614235 C5.11788899,18.8543776 4.0962431,20.3253047 4.00643968,21.7906851 L4,22 C4,22.7710145 3.55415249,23.542029 2.66245747,24.3130435 L2.44474084,24.494108 C0.218515006,20.9402543 -0.615908488,16.5211546 0.479281328,12.1311747 C1.7747626,6.93257091 5.47768877,2.96798115 10.1032333,1.12915642 L10.8239932,2.36822987 L10.8239932,2.36822987 L11.3752453,3.31039673 L11.3752453,3.31039673 L11.7653775,3.99070686 L11.7653775,3.99070686 L12.0113258,4.43254524 L12.0113258,4.43254524 L12.2440697,4.86553823 L12.2440697,4.86553823 L12.4619871,5.2901281 L12.4619871,5.2901281 L12.663456,5.70675713 C13.7554451,8.04593463 13.9770327,10.0229673 12,12 Z M32,15.9998818 C30.0999986,15.9998818 29.0022217,15.1977619 27.9445554,14.1014016 L27.6109999,13.7459968 L27.6109999,13.7459968 L26.7537778,12.795259 C26.5155556,12.5333333 26.2666667,12.2666667 26,12 C25.3730044,11.3730044 24.7460087,11.2374131 24.1498239,11.1926854 L23.4870035,11.1591848 L23.4870035,11.1591848 L23.2895707,11.1443517 L23.2895707,11.1443517 L23.0959121,11.1206972 C22.2333826,10.9886549 21.4944506,10.4722531 21,8 C20.4271284,5.13564214 21.8233479,3.58401163 24.4366342,2.40507824 C29.1073204,5.30150391 32.003898,10.4583985 32,15.9998818 Z" id="Shape" fill-opacity="0.804250437" fill="#000000" fill-rule="nonzero" mask="url(#mask-2)"></path>
                        </g>
                    </g>
                </g>
            </g>
        </g>
    </g>
</svg>
