<svg height="32" viewBox="0 0 32 32" width="32" xmlns="http://www.w3.org/2000/svg" xmlns:xlink="http://www.w3.org/1999/xlink"><defs><path id="a" d="m31.5210875 19.8705962c-2.1372277 8.571413-10.8196524 13.7878601-19.3930655 11.6503817-8.56991276-2.1369783-13.78696841-10.8188902-11.64874067-19.3898032 2.13622752-8.57241298 10.81865227-13.78936003 19.38956507-11.65238172 8.5729131 2.13697831 13.7894687 10.81989022 11.6522411 19.39180322z"/><mask id="b" fill="#fff"><use fill="#fff" fill-rule="evenodd" xlink:href="#a"/></mask></defs><g fill="none"><use fill="#ff996d" xlink:href="#a"/><path d="m18.6326531 20.4592764c1.5555555.6222222 2.4335802 1.2444445 3.0255363 1.8064417l.2373224.2369932c.0370151.0388258.0728559.0773004.1076653.1154019l.1976186.2239561.4306722.5137997.1648944.1843183c.5003456.5329382 1.0824691.8809876 2.5783703.9161481l.2579205.002941c1.4103343 0 2.5720383.2486304 3.4851119.7020596-3.0090135 4.3068665-8.0144421 6.9189906-13.351567 6.8367791.4457702-2.1178659.1208685-3.7501957-1.9094432-5.3657828l-.2241017-.1730559c-4.00000004-3 0-8 5-6zm-6.6326531-8.4592764-.5577371.5517502-.5553221.5393739-2.40431663 2.2902134-.49887431.4820959-.4807627.4736438-.46023621.4657955-.43729483.4585508c-1.48756713 1.5929541-2.50921302 3.0638812-2.59901644 4.5292616l-.00643968.2093149c0 .7710145-.44584751 1.542029-1.33754253 2.3130435l-.21771663.1810645c-2.22622583-3.5538537-3.06064933-7.9729534-1.96545951-12.3629333 1.29548127-5.19860379 4.99840744-9.16319355 9.62395197-11.00201828l.7207599 1.23907345.5512521.94216686.3901322.68031013.2459483.44183838.2327439.43299299.2179174.42458987.2014689.41662903c1.0919891 2.3391775 1.3135767 4.31621017-.663456 6.29324287zm20 3.9998818c-1.9000014 0-2.9977783-.8021199-4.0554446-1.8984802l-.3335555-.3554048-.8572221-.9507378c-.2382222-.2619257-.4871111-.5285923-.7537778-.795259-.6269956-.6269956-1.2539913-.7625869-1.8501761-.8073146l-.6628204-.0335006-.1974328-.0148331-.1936586-.0236545c-.8625295-.1320423-1.6014615-.6484441-2.0959121-3.1206972-.5728716-2.86435786.8233479-4.41598837 3.4366342-5.59492176 4.6706862 2.89642567 7.5672638 8.05332026 7.5633658 13.59480356z" fill="#000" fill-opacity=".80425" mask="url(#b)"/></g></svg>