<svg height="32" width="70" xmlns="http://www.w3.org/2000/svg"><g fill="currentColor" fill-rule="evenodd"><path d="M19.547 27.927V4.073c5.135 1.534 8.889 6.3 8.889 11.927s-3.754 10.394-8.89 11.927M15.992 0v13.485l-2.03-2.03-.26-5.07L15.819.009c-1.358.014-2.67.208-3.926.541l-1.025 3.082-2.905-1.457c-1.15.67-2.213 1.47-3.157 2.396l5.38 2.696.157 3.085-3.084-.158-2.697-5.38a16.056 16.056 0 0 0-2.396 3.158l1.458 2.905-3.083 1.024A15.965 15.965 0 0 0 0 15.828l6.376-2.119 5.07.259L13.476 16l-2.03 2.032-5.07.259L0 16.172c.014 1.359.208 2.67.54 3.927l3.084 1.024-1.458 2.905a16.056 16.056 0 0 0 2.396 3.158l2.697-5.38 3.084-.158-.157 3.084-5.38 2.697a16.117 16.117 0 0 0 3.157 2.396l2.905-1.457 1.025 3.082c1.256.332 2.568.527 3.926.541L13.7 25.615l.26-5.07 2.03-2.03V32c8.837 0 16-7.164 16-16s-7.163-16-16-16m49.788 29.333h3.555V2.667h-3.555zm-15.111 0h3.555V17.778h6.222v-3.556h-6.222v-8h8V2.667H50.667zm-15.111 0H47.11v-3.555h-8v-8h6.222v-3.556h-6.222v-8h8V2.667H35.556z"/></g></svg>