<svg width="24" height="25" viewBox="0 0 24 25" fill="none" xmlns="http://www.w3.org/2000/svg">
<g clip-path="url(#clip0)">
<path d="M12 0.00683594C5.37225 0.00683594 0 5.37909 0 12.0068C0 18.6346 5.37225 24.0068 12 24.0068C18.6285 24.0068 24 18.6346 24 12.0068C24 5.37909 18.6285 0.00683594 12 0.00683594Z" fill="white"/>
<path d="M12 0.00683594C5.37225 0.00683594 0 5.37909 0 12.0068C0 18.6346 5.37225 24.0068 12 24.0068C18.6285 24.0068 24 18.6346 24 12.0068C24 5.37909 18.6285 0.00683594 12 0.00683594Z" fill="#345D9D" fill-opacity="0.2"/>
<path fill-rule="evenodd" clip-rule="evenodd" d="M12.1872 12.4037L10.9452 16.6172L17.6112 16.6194C17.8399 16.6194 18.0049 16.8369 17.9419 17.0567L17.3682 19.0592C17.3127 19.2542 17.1334 19.3899 16.9287 19.3899L6.72942 19.3869L8.45292 13.5602L6.54492 14.1519L6.95292 12.7667L8.86242 12.1749L11.2842 3.99166C11.3404 3.79516 11.5197 3.66016 11.7237 3.66016L14.3059 3.66166C14.5347 3.66166 14.6989 3.87991 14.6367 4.09891L12.5982 11.0154L14.5062 10.4244L14.0974 11.8097L12.1872 12.4037Z" fill="#345D9D"/>
</g>
<defs>
<clipPath id="clip0">
<rect width="24" height="24" fill="white" transform="translate(0 0.00683594)"/>
</clipPath>
</defs>
</svg>
