<?xml version="1.0" standalone="no"?>
<!DOCTYPE svg PUBLIC "-//W3C//DTD SVG 20010904//EN"
 "http://www.w3.org/TR/2001/REC-SVG-20010904/DTD/svg10.dtd">
<svg version="1.0" xmlns="http://www.w3.org/2000/svg"
 width="860.000000pt" height="860.000000pt" viewBox="0 0 860.000000 860.000000"
 preserveAspectRatio="xMidYMid meet">

<g transform="translate(0.000000,860.000000) scale(0.100000,-0.100000)"
fill="#000000" stroke="none">
<path d="M600 7300 l0 -700 700 0 700 0 0 700 0 700 -700 0 -700 0 0 -700z
m1200 0 l0 -500 -500 0 -500 0 0 500 0 500 500 0 500 0 0 -500z"/>
<path d="M1000 7300 l0 -300 300 0 300 0 0 300 0 300 -300 0 -300 0 0 -300z"/>
<path d="M2200 7800 l0 -200 200 0 200 0 0 200 0 200 -200 0 -200 0 0 -200z"/>
<path d="M3800 7900 l0 -100 100 0 100 0 0 -100 0 -100 -100 0 -100 0 0 -100
0 -100 100 0 100 0 0 100 0 100 100 0 100 0 0 -100 0 -100 100 0 100 0 0 -100
0 -100 100 0 100 0 0 -100 0 -100 -200 0 -200 0 0 100 0 100 -200 0 -200 0 0
-100 0 -100 -100 0 -100 0 0 -100 0 -100 -100 0 -100 0 0 -100 0 -100 -100 0
-100 0 0 100 0 100 -100 0 -100 0 0 100 0 100 100 0 100 0 0 200 0 200 -200 0
-200 0 0 -100 0 -100 -200 0 -200 0 0 100 0 100 -100 0 -100 0 0 -400 0 -400
100 0 100 0 0 100 0 100 100 0 100 0 0 -200 0 -200 100 0 100 0 0 -100 0 -100
-100 0 -100 0 0 -100 0 -100 100 0 100 0 0 100 0 100 300 0 300 0 0 -100 0
-100 100 0 100 0 0 -100 0 -100 -100 0 -100 0 0 -100 0 -100 -200 0 -200 0 0
-100 0 -100 -100 0 -100 0 0 100 0 100 -100 0 -100 0 0 100 0 100 -100 0 -100
0 0 100 0 100 -100 0 -100 0 0 -100 0 -100 -100 0 -100 0 0 100 0 100 -200 0
-200 0 0 100 0 100 -100 0 -100 0 0 100 0 100 -100 0 -100 0 0 -200 0 -200
-300 0 -300 0 0 -600 0 -600 100 0 100 0 0 -100 0 -100 -100 0 -100 0 0 -100
0 -100 200 0 200 0 0 -100 0 -100 -200 0 -200 0 0 -200 0 -200 100 0 100 0 0
100 0 100 200 0 200 0 0 -100 0 -100 200 0 200 0 0 -200 0 -200 -100 0 -100 0
0 100 0 100 -100 0 -100 0 0 -200 0 -200 300 0 300 0 0 -100 0 -100 100 0 100
0 0 -100 0 -100 -200 0 -200 0 0 100 0 100 -200 0 -200 0 0 -100 0 -100 -100
0 -100 0 0 -100 0 -100 -100 0 -100 0 0 100 0 100 -100 0 -100 0 0 -100 0
-100 100 0 100 0 0 -100 0 -100 -100 0 -100 0 0 -100 0 -100 300 0 300 0 0
100 0 100 100 0 100 0 0 100 0 100 -100 0 -100 0 0 100 0 100 200 0 200 0 0
-200 0 -200 100 0 100 0 0 -100 0 -100 100 0 100 0 0 100 0 100 200 0 200 0 0
-100 0 -100 -100 0 -100 0 0 -100 0 -100 100 0 100 0 0 -200 0 -200 100 0 100
0 0 -300 0 -300 -100 0 -100 0 0 -200 0 -200 400 0 400 0 0 100 0 100 100 0
100 0 0 -100 0 -100 200 0 200 0 0 100 0 100 100 0 100 0 0 -100 0 -100 100 0
100 0 0 100 0 100 200 0 200 0 0 400 0 400 -100 0 -100 0 0 100 0 100 100 0
100 0 0 100 0 100 -300 0 -300 0 0 200 0 200 -200 0 -200 0 0 100 0 100 100 0
100 0 0 100 0 100 100 0 100 0 0 -100 0 -100 100 0 100 0 0 100 0 100 100 0
100 0 0 -200 0 -200 -100 0 -100 0 0 -100 0 -100 100 0 100 0 0 100 0 100 100
0 100 0 0 -100 0 -100 100 0 100 0 0 -100 0 -100 300 0 300 0 0 -100 0 -100
-300 0 -300 0 0 -100 0 -100 200 0 200 0 0 -200 0 -200 100 0 100 0 0 -100 0
-100 -200 0 -200 0 0 100 0 100 -100 0 -100 0 0 -300 0 -300 100 0 100 0 0
100 0 100 200 0 200 0 0 -100 0 -100 200 0 200 0 0 500 0 500 200 0 200 0 0
-100 0 -100 -100 0 -100 0 0 -100 0 -100 100 0 100 0 0 100 0 100 100 0 100 0
0 -100 0 -100 100 0 100 0 0 100 0 100 200 0 200 0 0 -200 0 -200 -100 0 -100
0 0 -100 0 -100 -200 0 -200 0 0 100 0 100 -200 0 -200 0 0 -100 0 -100 100 0
100 0 0 -100 0 -100 300 0 300 0 0 100 0 100 100 0 100 0 0 -100 0 -100 100 0
100 0 0 100 0 100 100 0 100 0 0 100 0 100 100 0 100 0 0 100 0 100 100 0 100
0 0 -100 0 -100 100 0 100 0 0 200 0 200 -100 0 -100 0 0 100 0 100 -100 0
-100 0 0 100 0 100 200 0 200 0 0 200 0 200 -100 0 -100 0 0 100 0 100 100 0
100 0 0 300 0 300 -100 0 -100 0 0 200 0 200 100 0 100 0 0 100 0 100 -100 0
-100 0 0 200 0 200 100 0 100 0 0 300 0 300 -100 0 -100 0 0 -100 0 -100 -100
0 -100 0 0 200 0 200 100 0 100 0 0 100 0 100 100 0 100 0 0 700 0 700 -200 0
-200 0 0 -200 0 -200 100 0 100 0 0 -300 0 -300 -100 0 -100 0 0 100 0 100
-100 0 -100 0 0 -100 0 -100 -100 0 -100 0 0 -100 0 -100 100 0 100 0 0 -100
0 -100 100 0 100 0 0 -100 0 -100 -200 0 -200 0 0 100 0 100 -200 0 -200 0 0
100 0 100 100 0 100 0 0 300 0 300 200 0 200 0 0 100 0 100 -300 0 -300 0 0
100 0 100 300 0 300 0 0 100 0 100 -300 0 -300 0 0 -100 0 -100 -200 0 -200 0
0 -100 0 -100 -100 0 -100 0 0 -100 0 -100 -100 0 -100 0 0 -300 0 -300 -100
0 -100 0 0 300 0 300 -100 0 -100 0 0 100 0 100 100 0 100 0 0 100 0 100 200
0 200 0 0 100 0 100 -300 0 -300 0 0 200 0 200 100 0 100 0 0 -100 0 -100 100
0 100 0 0 100 0 100 100 0 100 0 0 -100 0 -100 100 0 100 0 0 500 0 500 -100
0 -100 0 0 200 0 200 -200 0 -200 0 0 -200 0 -200 100 0 100 0 0 -100 0 -100
-100 0 -100 0 0 -100 0 -100 -300 0 -300 0 0 200 0 200 200 0 200 0 0 100 0
100 -300 0 -300 0 0 100 0 100 -200 0 -200 0 0 -100 0 -100 -100 0 -100 0 0
-100 0 -100 -100 0 -100 0 0 100 0 100 -100 0 -100 0 0 100 0 100 -100 0 -100
0 0 -100z m800 -400 l0 -100 100 0 100 0 0 -100 0 -100 -100 0 -100 0 0 100 0
100 -100 0 -100 0 0 100 0 100 100 0 100 0 0 -100z m-1600 -400 l0 -100 -100
0 -100 0 0 -100 0 -100 100 0 100 0 0 -100 0 -100 100 0 100 0 0 -100 0 -100
-200 0 -200 0 0 200 0 200 -100 0 -100 0 0 100 0 100 100 0 100 0 0 100 0 100
100 0 100 0 0 -100z m2200 0 l0 -100 200 0 200 0 0 -100 0 -100 -100 0 -100 0
0 -100 0 -100 -100 0 -100 0 0 200 0 200 -100 0 -100 0 0 100 0 100 100 0 100
0 0 -100z m800 0 l0 -100 -100 0 -100 0 0 100 0 100 100 0 100 0 0 -100z
m-2000 -200 l0 -100 100 0 100 0 0 -100 0 -100 -100 0 -100 0 0 100 0 100
-100 0 -100 0 0 -100 0 -100 -100 0 -100 0 0 100 0 100 100 0 100 0 0 100 0
100 100 0 100 0 0 -100z m800 0 l0 -100 100 0 100 0 0 -200 0 -200 300 0 300
0 0 -200 0 -200 -200 0 -200 0 0 -100 0 -100 200 0 200 0 0 -100 0 -100 -200
0 -200 0 0 100 0 100 -100 0 -100 0 0 -200 0 -200 100 0 100 0 0 -110 c0 -60
4 -110 9 -110 5 0 14 -13 21 -30 7 -16 15 -30 19 -30 8 0 31 -74 31 -100 0
-18 7 -20 60 -20 l60 0 0 100 0 100 100 0 100 0 0 -200 0 -200 200 0 200 0 0
200 0 200 100 0 100 0 0 100 0 100 100 0 100 0 0 100 0 100 -100 0 -100 0 0
100 0 100 100 0 100 0 0 100 0 100 100 0 100 0 0 -100 0 -100 100 0 100 0 0
-100 0 -100 -100 0 -100 0 0 -200 0 -200 -100 0 -100 0 0 -100 0 -100 200 0
200 0 0 -100 0 -100 200 0 200 0 0 -100 0 -100 -100 0 -100 0 0 -100 0 -100
100 0 100 0 0 -100 0 -100 100 0 100 0 0 -100 0 -100 100 0 100 0 0 100 0 100
100 0 100 0 0 -100 0 -100 -100 0 -100 0 0 -100 0 -100 -100 0 -100 0 0 -100
0 -100 -300 0 -300 0 0 -100 0 -100 100 0 100 0 0 -100 0 -100 -200 0 -200 0
0 100 0 100 -100 0 -100 0 0 100 0 100 -100 0 -100 0 0 -200 0 -200 100 0 100
0 0 -100 0 -100 200 0 200 0 0 -100 0 -100 100 0 100 0 0 100 0 100 100 0 100
0 0 -100 0 -100 100 0 100 0 0 300 0 300 100 0 100 0 0 -200 0 -200 100 0 100
0 0 -300 0 -300 -400 0 -400 0 0 100 0 100 -200 0 -200 0 0 100 0 100 -100 0
-100 0 0 100 0 100 -100 0 -100 0 0 -200 0 -200 100 0 100 0 0 -100 0 -100
-100 0 -100 0 0 -200 0 -200 -100 0 -100 0 0 -100 0 -100 -100 0 -100 0 0
-100 0 -100 -100 0 -100 0 0 400 0 400 300 0 300 0 0 100 0 100 -100 0 -100 0
0 100 0 100 -100 0 -100 0 0 -100 0 -100 -100 0 -100 0 0 300 0 300 -200 0
-200 0 0 -200 0 -200 100 0 100 0 0 -200 0 -200 -200 0 -200 0 0 -100 0 -100
-100 0 -100 0 0 100 0 100 -100 0 -100 0 0 100 0 100 100 0 100 0 0 100 0 100
-200 0 -200 0 0 100 0 100 -100 0 -100 0 0 -100 0 -100 -100 0 -100 0 0 100 0
100 100 0 100 0 0 100 0 100 -100 0 -99 0 -3 58 -3 57 -197 3 -198 2 0 -60 0
-60 -200 0 -200 0 0 -100 0 -100 -100 0 -100 0 0 100 0 100 -100 0 -100 0 0
-200 0 -200 100 0 100 0 0 -200 0 -200 -100 0 -100 0 0 -100 0 -100 100 0 100
0 0 -100 0 -100 100 0 100 0 0 -100 0 -100 100 0 100 0 0 200 0 200 -100 0
-100 0 0 200 0 200 100 0 100 0 0 -100 0 -100 100 0 100 0 0 -200 0 -200 200
0 200 0 0 -200 0 -200 -100 0 -100 0 0 -100 0 -100 100 0 100 0 0 -100 0 -100
200 0 200 0 0 -100 0 -100 -200 0 -200 0 0 100 0 100 -100 0 -100 0 0 -200 0
-200 -100 0 -100 0 0 200 0 200 -100 0 -100 0 0 -100 0 -100 -200 0 -200 0 0
100 0 100 200 0 200 0 0 200 0 200 -100 0 -100 0 0 100 0 100 -200 0 -200 0 0
-100 0 -100 -100 0 -100 0 0 100 0 100 100 0 100 0 0 200 0 200 -100 0 -100 0
0 -100 0 -100 -100 0 -100 0 0 100 0 100 100 0 100 0 0 100 0 100 -100 0 -100
0 0 100 0 100 100 0 100 0 0 100 0 100 -200 0 -200 0 0 -100 0 -100 -100 0
-100 0 0 -100 0 -100 -100 0 -100 0 0 100 0 100 100 0 100 0 0 100 0 100 100
0 100 0 0 100 0 100 100 0 100 0 0 100 0 100 -300 0 -300 0 0 100 0 100 100 0
100 0 0 100 0 100 -100 0 -100 0 0 100 0 100 -100 0 -100 0 0 100 0 100 -100
0 -100 0 0 100 0 100 -100 0 -100 0 0 100 0 100 -100 0 -100 0 0 100 0 100
200 0 200 0 0 -200 0 -200 100 0 100 0 0 300 0 300 -200 0 -200 0 0 100 0 100
-100 0 -100 0 0 -100 0 -100 -100 0 -100 0 0 300 0 300 100 0 100 0 0 100 0
100 100 0 100 0 0 -100 0 -100 100 0 100 0 0 100 0 100 200 0 200 0 0 100 0
100 100 0 100 0 0 -100 0 -100 -100 0 -100 0 0 -100 0 -100 300 0 300 0 0 100
0 100 100 0 100 0 0 -100 0 -100 100 0 100 0 0 -100 0 -100 100 0 100 0 0 100
0 100 100 0 100 0 0 -100 0 -100 110 0 c61 0 110 4 110 9 0 5 14 14 30 21 17
7 30 16 30 20 0 14 55 23 185 29 l130 6 3 158 3 157 -101 0 -100 0 0 -100 0
-100 -100 0 -100 0 0 100 0 100 100 0 100 0 0 100 0 100 100 0 100 0 0 100 0
100 -100 0 -100 0 0 100 0 100 -100 0 -100 0 0 100 0 100 300 0 300 0 0 -100
0 -100 -100 0 -100 0 0 -100 0 -100 200 0 200 0 0 100 0 100 100 0 100 0 0
100 0 100 100 0 100 0 0 100 0 100 -100 0 -100 0 0 100 0 100 100 0 100 0 0
100 0 100 100 0 100 0 0 -100z m2800 -1600 l0 -100 100 0 100 0 0 -100 0 -100
-100 0 -100 0 0 100 0 100 -100 0 -100 0 0 100 0 100 100 0 100 0 0 -100z
m-3800 -2400 l0 -100 -100 0 -100 0 0 100 0 100 100 0 100 0 0 -100z m-2600
-400 l0 -100 -100 0 -100 0 0 100 0 100 100 0 100 0 0 -100z m5800 -600 l0
-300 -300 0 -300 0 0 300 0 300 300 0 300 0 0 -300z m600 200 l0 -100 -100 0
-100 0 0 -200 0 -200 100 0 100 0 0 -100 0 -100 -100 0 -100 0 0 -200 0 -200
-100 0 -100 0 0 200 0 200 100 0 100 0 0 100 0 100 -100 0 -100 0 0 300 0 300
200 0 200 0 0 -100z m-3200 -600 l0 -100 -100 0 -100 0 0 100 0 100 100 0 100
0 0 -100z m1200 -200 l0 -100 -100 0 -100 0 0 100 0 100 100 0 100 0 0 -100z
m0 -400 l0 -100 -100 0 -100 0 0 100 0 100 100 0 100 0 0 -100z"/>
<path d="M4600 6700 l0 -100 100 0 100 0 0 100 0 100 -100 0 -100 0 0 -100z"/>
<path d="M4400 6100 l0 -100 -100 0 -100 0 0 -100 0 -100 -100 0 -100 0 0
-200 0 -200 200 0 199 0 3 -57 3 -58 95 0 95 0 3 58 3 57 99 0 100 0 0 100 0
100 -100 0 -100 0 0 -100 0 -100 -100 0 -100 0 0 300 0 300 100 0 100 0 0
-100 0 -100 100 0 100 0 0 100 0 100 200 0 200 0 0 100 0 100 -400 0 -400 0 0
-100z"/>
<path d="M1400 5200 l0 -200 100 0 100 0 0 100 0 100 100 0 100 0 0 -100 0
-100 300 0 300 0 0 100 0 100 -300 0 -300 0 0 100 0 100 -200 0 -200 0 0 -200z"/>
<path d="M2600 5100 l0 -100 100 0 100 0 0 100 0 100 -100 0 -100 0 0 -100z"/>
<path d="M3000 5000 l0 -200 100 0 100 0 0 200 0 200 -100 0 -100 0 0 -200z"/>
<path d="M6200 4900 l0 -100 100 0 100 0 0 -100 0 -100 -100 0 -100 0 0 -200
0 -200 100 0 100 0 0 -100 0 -100 -300 0 -300 0 0 -100 0 -100 400 0 400 0 0
-100 0 -100 100 0 100 0 0 100 0 100 200 0 200 0 0 200 0 200 -400 0 -400 0 0
100 0 100 200 0 200 0 0 200 0 200 -200 0 -200 0 0 100 0 100 -100 0 -100 0 0
-100z"/>
<path d="M1800 4700 l0 -100 100 0 100 0 0 100 0 100 -100 0 -100 0 0 -100z"/>
<path d="M2200 4100 l0 -700 100 0 100 0 0 100 0 100 100 0 100 0 0 100 0 100
-100 0 -100 0 0 100 0 100 100 0 100 0 0 100 0 100 100 0 100 0 0 -200 0 -200
100 0 100 0 0 -100 0 -100 -100 0 -100 0 0 -100 0 -100 100 0 100 0 0 -100 0
-100 100 0 100 0 0 100 0 100 100 0 c60 0 100 4 100 10 0 6 -4 10 -9 10 -5 0
-14 14 -21 30 -7 17 -16 30 -20 30 -17 0 -24 65 -29 285 l-6 230 -57 3 -58 3
0 299 0 300 -200 0 -200 0 0 100 0 100 -100 0 -100 0 0 -200 0 -200 -100 0
-100 0 0 200 0 200 -100 0 -100 0 0 -700z m1000 -200 l0 -100 -100 0 -100 0 0
100 0 100 100 0 100 0 0 -100z"/>
<path d="M5400 4600 l0 -200 100 0 100 0 0 -100 0 -99 -157 -3 -158 -3 -3 -97
-3 -98 161 0 160 0 0 100 0 100 200 0 200 0 0 200 0 200 -100 0 -100 0 0 -100
0 -100 -100 0 -100 0 0 200 0 200 -100 0 -100 0 0 -200z"/>
<path d="M4384 4776 c-3 -8 -4 -31 -2 -52 l3 -39 55 -3 c30 -2 58 -9 62 -15 4
-7 8 -52 8 -102 0 -224 34 -408 97 -528 45 -85 90 -132 149 -157 57 -25 70
-25 137 0 87 33 160 129 161 214 l1 41 -43 3 c-49 4 -72 -10 -72 -42 0 -59
-80 -126 -135 -112 -78 20 -157 199 -171 389 -6 71 -4 87 7 87 8 0 68 -54 134
-120 66 -66 122 -120 125 -120 10 0 70 61 70 72 0 6 -34 45 -75 87 -41 43 -75
84 -75 92 0 8 34 48 75 89 41 41 75 79 75 85 -1 11 -27 43 -53 64 -16 13 -30
2 -149 -115 -115 -114 -132 -127 -139 -109 -4 11 -8 84 -8 163 l-1 142 -115 0
c-90 0 -117 -3 -121 -14z"/>
<path d="M3971 4764 c-28 -13 -32 -19 -28 -42 2 -15 8 -35 12 -44 6 -14 2 -18
-16 -18 -35 0 -47 -11 -50 -45 -6 -76 -7 -75 80 -75 82 0 110 -13 97 -45 -4
-12 -23 -15 -85 -15 -100 0 -103 -3 -101 -143 2 -125 5 -137 34 -137 39 0 47
-19 23 -52 -24 -32 -19 -48 26 -82 l27 -20 30 22 c37 28 48 28 52 0 3 -21 9
-23 58 -23 l55 0 5 69 c6 76 19 93 63 82 34 -8 35 -32 1 -40 -23 -6 -25 -10
-22 -59 3 -46 6 -52 26 -55 33 -5 75 14 108 49 28 29 29 35 29 122 l0 92 -98
3 c-77 2 -99 6 -104 18 -10 26 11 35 83 35 107 1 105 -2 102 152 l-3 131 -38
9 c-30 7 -37 13 -32 26 21 53 17 66 -20 84 -19 9 -41 17 -48 17 -7 0 -25 -26
-42 -58 -27 -52 -33 -57 -67 -60 -36 -3 -37 -2 -64 57 -29 66 -36 69 -93 45z
m284 -244 c9 -15 -14 -40 -35 -40 -19 0 -34 25 -24 41 7 12 51 11 59 -1z
m-188 -176 c6 -15 -11 -34 -32 -34 -5 0 -16 4 -24 9 -21 14 -5 41 24 41 14 0
28 -7 32 -16z"/>
<path d="M3708 4719 c-20 -10 -39 -23 -42 -28 -7 -10 60 -151 72 -151 12 0 92
40 92 46 0 15 -64 144 -74 147 -6 3 -28 -4 -48 -14z"/>
<path d="M3690 4511 c-34 -6 -35 -7 -38 -57 -3 -49 -2 -52 26 -57 l29 -6 6
-116 c4 -64 14 -141 24 -171 l17 -54 -48 -49 c-47 -47 -48 -49 -32 -73 9 -14
27 -31 41 -38 24 -13 28 -11 63 23 21 20 43 37 50 37 6 0 40 -15 74 -34 85
-47 154 -58 338 -54 l155 3 3 57 3 56 -199 4 -199 3 -56 37 c-36 24 -66 55
-84 85 -27 47 -28 52 -31 218 -2 94 -7 173 -10 176 -11 11 -94 17 -132 10z"/>
<path d="M1800 4300 l0 -100 100 0 100 0 0 100 0 100 -100 0 -100 0 0 -100z"/>
<path d="M1800 3900 l0 -100 100 0 100 0 0 100 0 100 -100 0 -100 0 0 -100z"/>
<path d="M5400 3600 l0 -200 100 0 100 0 0 -100 0 -100 200 0 200 0 0 -100 0
-100 100 0 100 0 0 100 0 100 -100 0 -100 0 0 100 0 100 -200 0 -200 0 0 200
0 200 -100 0 -100 0 0 -200z"/>
<path d="M4200 3260 l0 -60 100 0 100 0 0 -100 0 -100 100 0 100 0 0 100 0
100 100 0 100 0 0 -200 0 -200 100 0 100 0 0 -100 0 -100 100 0 100 0 0 100 0
100 -100 0 -100 0 0 260 0 260 -400 0 -400 0 0 -60z"/>
<path d="M7000 2700 l0 -100 100 0 100 0 0 100 0 100 -100 0 -100 0 0 -100z"/>
<path d="M2600 2500 l0 -100 100 0 100 0 0 100 0 100 -100 0 -100 0 0 -100z"/>
<path d="M5800 2100 l0 -100 100 0 100 0 0 100 0 100 -100 0 -100 0 0 -100z"/>
<path d="M3600 1700 l0 -100 100 0 100 0 0 100 0 100 -100 0 -100 0 0 -100z"/>
<path d="M6600 1900 l0 -100 100 0 100 0 0 100 0 100 -100 0 -100 0 0 -100z"/>
<path d="M6600 7300 l0 -700 700 0 700 0 0 700 0 700 -700 0 -700 0 0 -700z
m1200 0 l0 -500 -500 0 -500 0 0 500 0 500 500 0 500 0 0 -500z"/>
<path d="M7000 7300 l0 -300 300 0 300 0 0 300 0 300 -300 0 -300 0 0 -300z"/>
<path d="M3000 7700 l0 -100 100 0 100 0 0 100 0 100 -100 0 -100 0 0 -100z"/>
<path d="M3400 7700 l0 -100 100 0 100 0 0 100 0 100 -100 0 -100 0 0 -100z"/>
<path d="M1800 6300 l0 -100 100 0 100 0 0 100 0 100 -100 0 -100 0 0 -100z"/>
<path d="M3000 5900 l0 -100 100 0 100 0 0 100 0 100 -100 0 -100 0 0 -100z"/>
<path d="M600 3500 l0 -100 100 0 100 0 0 -100 0 -100 100 0 100 0 0 200 0
200 -200 0 -200 0 0 -100z"/>
<path d="M600 1300 l0 -700 700 0 700 0 0 700 0 700 -700 0 -700 0 0 -700z
m1200 0 l0 -500 -500 0 -500 0 0 500 0 500 500 0 500 0 0 -500z"/>
<path d="M1000 1300 l0 -300 300 0 300 0 0 300 0 300 -300 0 -300 0 0 -300z"/>
<path d="M2200 1300 l0 -100 100 0 100 0 0 100 0 100 -100 0 -100 0 0 -100z"/>
<path d="M7600 700 l0 -100 200 0 200 0 0 100 0 100 -200 0 -200 0 0 -100z"/>
</g>
</svg>
