<svg width="24" height="25" viewBox="0 0 24 25" fill="none" xmlns="http://www.w3.org/2000/svg">
<g clip-path="url(#clip0)">
<path d="M12 24.0068C18.6274 24.0068 24 18.6343 24 12.0068C24 5.37942 18.6274 0.00683594 12 0.00683594C5.37258 0.00683594 0 5.37942 0 12.0068C0 18.6343 5.37258 24.0068 12 24.0068Z" fill="#26A17B" fill-opacity="0.2"/>
<path d="M13.4416 13.0441V13.0426C13.3591 13.0486 12.9338 13.0741 11.9851 13.0741C11.2276 13.0741 10.6943 13.0516 10.5068 13.0426V13.0448C7.59085 12.9166 5.41435 12.4088 5.41435 11.8013C5.41435 11.1946 7.59085 10.6868 10.5068 10.5563V12.5393C10.6973 12.5528 11.2433 12.5851 11.9978 12.5851C12.9031 12.5851 13.3568 12.5476 13.4416 12.5401V10.5578C16.3516 10.6876 18.5228 11.1953 18.5228 11.8013C18.5228 12.4088 16.3516 12.9151 13.4416 13.0441ZM13.4416 10.3516V8.57709H17.5021V5.87109H6.44635V8.57709H10.5068V10.3508C7.20685 10.5023 4.7251 11.1563 4.7251 11.9393C4.7251 12.7223 7.20685 13.3756 10.5068 13.5278V19.2143H13.4416V13.5263C16.7363 13.3748 19.2121 12.7216 19.2121 11.9393C19.2121 11.1571 16.7363 10.5038 13.4416 10.3516Z" fill="#26A17B"/>
</g>
<defs>
<clipPath id="clip0">
<rect width="24" height="24" fill="white" transform="translate(0 0.00683594)"/>
</clipPath>
</defs>
</svg>
