<svg height="24" viewBox="0 0 24 24" width="24" xmlns="http://www.w3.org/2000/svg"><g fill="none" fill-rule="evenodd"><path d="m0 0h24.0001621v24h-24.0001621z"/><path d="m17.9348652 3.46226505.789 1.543c.144.282.489.627.771.771.376.192.928.474 1.542.788 1.134.579 1.735 2.031 1.343 3.242l-.533 1.64900005c-.098.3-.098.789 0 1.089.129.403.321.992.533 1.649.392 1.211-.209 2.663-1.343 3.242l-1.542.788c-.282.144-.627.489-.771.772-.193.376-.474.927-.789 1.542-.579 1.133-2.03 1.735-3.242 1.342l-1.647-.533c-.302-.098-.79-.098-1.091 0-.402.13-.991.321-1.648.533-1.21099998.393-2.66299998-.209-3.24299998-1.342l-.788-1.542c-.143-.283-.488-.627-.77-.772-.376-.192-.928-.474-1.543-.788-1.134-.579-1.735-2.031-1.343-3.242l.533-1.648c.098-.301.098-.79 0-1.09-.13-.403-.32-.992-.533-1.64900005-.392-1.211.209-2.663 1.343-3.242l1.543-.788c.281-.144.627-.489.77-.771.193-.376.475-.927.788-1.543.58-1.133 2.032-1.735 3.24299998-1.342l1.648.533c.301.097.789.097 1.09 0 .402-.13.992-.321 1.648-.533 1.212-.393 2.663.209 3.242 1.342zm-1.9348652 4.53773495-5.49 5.5-2.01-2-1.5 1.5 3.51 3.5 6.99-7z" fill="#02b31b"/></g></svg>